<?xml version="1.0" encoding="utf-8"?>
<!-- Generator: Adobe Illustrator 15.1.0, SVG Export Plug-In . SVG Version: 6.00 Build 0)  -->
<!DOCTYPE svg PUBLIC "-//W3C//DTD SVG 1.1//EN" "http://www.w3.org/Graphics/SVG/1.1/DTD/svg11.dtd">
<svg version="1.1" id="レイヤー_1" xmlns="http://www.w3.org/2000/svg" xmlns:xlink="http://www.w3.org/1999/xlink" x="0px"
	 y="0px" width="185.195px" height="213.846px" viewBox="0 0 185.195 213.846" enable-background="new 0 0 185.195 213.846"
	 xml:space="preserve">
<g>
	<g>
		<polygon fill="#471F0D" points="0,53.461 92.598,0 185.196,53.461 185.196,160.385 92.598,213.846 0,160.385 		"/>
		<path fill="#DFB191" d="M92.598,5.773l87.598,50.574v101.15l-87.598,50.574L5,157.498V56.348L92.598,5.773 M92.598,0L0,53.461
			v106.924l92.598,53.461l92.598-53.461V53.461L92.598,0L92.598,0z"/>
	</g>
	<path fill="#84C6D0" d="M92.604,155.535c4.4,0.002,8.803,0.164,13.198,0.635c2.196,0.246,4.398,0.541,6.579,1.094
		c1.088,0.283,2.182,0.596,3.256,1.096c0.536,0.254,1.072,0.551,1.586,0.984c0.488,0.445,1.061,1.033,1.104,2.105l0.001,0.104
		l-0.001,0.055l-0.009,0.104c-0.014,0.146-0.039,0.266-0.064,0.369c-0.055,0.217-0.135,0.42-0.229,0.602
		c-0.189,0.365-0.425,0.658-0.667,0.912c-0.488,0.502-1.011,0.867-1.535,1.188c-1.053,0.633-2.128,1.096-3.215,1.49
		c-2.178,0.77-4.38,1.322-6.599,1.746c-4.438,0.83-8.925,1.174-13.405,1.184c-4.48-0.008-8.968-0.346-13.407-1.176
		c-2.22-0.418-4.423-0.975-6.601-1.744c-1.088-0.391-2.163-0.857-3.217-1.49c-0.525-0.32-1.047-0.688-1.537-1.189
		c-0.242-0.254-0.479-0.549-0.669-0.914c-0.192-0.359-0.319-0.824-0.305-1.289c0.015-0.193,0.007-0.119,0.034-0.311
		c0.022-0.146,0.055-0.262,0.088-0.359c0.068-0.211,0.162-0.402,0.268-0.57c0.213-0.34,0.465-0.6,0.72-0.82
		c0.515-0.436,1.051-0.732,1.589-0.986c1.074-0.5,2.168-0.814,3.258-1.094c2.18-0.553,4.383-0.85,6.58-1.092
		C83.801,155.699,88.204,155.537,92.604,155.535z M92.604,155.535c-4.398,0.01-8.808,0.348-13.121,1.16
		c-2.152,0.412-4.283,0.957-6.314,1.684c-1.011,0.369-1.997,0.809-2.865,1.344c-0.43,0.268-0.828,0.568-1.117,0.887
		c-0.299,0.32-0.41,0.637-0.367,0.789c0.027,0.148,0.181,0.389,0.502,0.645c0.314,0.252,0.727,0.484,1.17,0.684
		c0.889,0.404,1.894,0.691,2.905,0.949c2.035,0.51,4.165,0.793,6.296,1.027c4.27,0.453,8.593,0.615,12.912,0.619
		c4.318-0.004,8.643-0.158,12.913-0.609c2.132-0.23,4.262-0.518,6.298-1.027c1.013-0.254,2.017-0.545,2.907-0.949
		c0.886-0.389,1.673-0.973,1.677-1.391c-0.002,0.102,0,0.023,0,0.043v-0.008l0.002-0.016c0.004-0.012,0.004-0.023,0.002-0.035
		c0.003-0.025,0-0.051-0.004-0.078c-0.006-0.055-0.024-0.119-0.055-0.189c-0.062-0.141-0.172-0.303-0.316-0.461
		c-0.29-0.318-0.689-0.619-1.12-0.887c-0.868-0.535-1.855-0.977-2.866-1.342c-2.033-0.727-4.164-1.271-6.316-1.68
		C101.411,155.883,97.002,155.545,92.604,155.535z"/>
	<path fill="#84C6D0" d="M92.605,153.877c3.794-0.008,7.587,0.094,11.378,0.295c3.789,0.205,7.579,0.49,11.351,0.984
		c3.771,0.492,7.542,1.084,11.247,2.102c1.85,0.52,3.694,1.104,5.473,1.98c0.887,0.443,1.762,0.953,2.566,1.662
		c0.397,0.357,0.781,0.77,1.09,1.281c0.311,0.518,0.533,1.115,0.547,1.832c0.018,0.613-0.174,1.305-0.463,1.826
		c-0.287,0.541-0.656,0.984-1.041,1.375c-0.779,0.777-1.642,1.355-2.516,1.865c-1.757,1.006-3.585,1.742-5.432,2.371
		c-3.703,1.232-7.474,2.094-11.269,2.746c-7.595,1.275-15.265,1.838-22.937,1.836c-7.662,0.002-15.34-0.549-22.934-1.828
		c-3.796-0.645-7.566-1.514-11.27-2.744c-1.849-0.627-3.676-1.365-5.434-2.371c-0.875-0.512-1.736-1.092-2.518-1.869
		c-0.387-0.391-0.755-0.836-1.043-1.379c-0.289-0.545-0.48-1.164-0.463-1.883c0.016-0.617,0.24-1.289,0.551-1.783
		c0.311-0.516,0.694-0.926,1.094-1.283c0.805-0.711,1.681-1.221,2.568-1.664c1.779-0.875,3.624-1.461,5.475-1.977
		c3.705-1.018,7.478-1.609,11.248-2.1c3.771-0.492,7.563-0.779,11.352-0.98C85.017,153.971,88.811,153.869,92.605,153.877z
		 M92.605,153.877c-7.585,0-15.181,0.555-22.649,1.814c-3.729,0.639-7.427,1.492-10.984,2.682c-1.771,0.604-3.51,1.316-5.082,2.227
		c-0.779,0.457-1.52,0.973-2.099,1.564c-0.585,0.6-0.944,1.238-0.899,1.846c0.024,0.506,0.426,1.139,1.033,1.652
		c0.604,0.525,1.357,0.973,2.149,1.361c1.594,0.779,3.351,1.34,5.123,1.832c3.56,0.975,7.261,1.555,10.963,2.039
		c3.708,0.484,7.448,0.762,11.192,0.967c3.746,0.197,7.494,0.299,11.254,0.293c3.747,0.008,7.504-0.09,11.248-0.289
		c3.744-0.195,7.484-0.48,11.192-0.963c3.704-0.477,7.404-1.063,10.966-2.035c1.773-0.49,3.529-1.053,5.125-1.832
		c0.791-0.391,1.547-0.838,2.151-1.363c0.608-0.537,1.013-1.1,1.038-1.711c0.045-0.512-0.316-1.225-0.902-1.803
		c-0.579-0.592-1.32-1.107-2.1-1.564c-1.572-0.91-3.313-1.625-5.084-2.227c-3.559-1.188-7.258-2.043-10.986-2.678
		C107.786,154.43,100.19,153.877,92.605,153.877z"/>
	
		<linearGradient id="SVGID_1_" gradientUnits="userSpaceOnUse" x1="321.6152" y1="-14.374" x2="433.1865" y2="-14.374" gradientTransform="matrix(0.7071 -0.7071 0.7071 0.7071 -164.3268 378.2431)">
		<stop  offset="0" style="stop-color:#F8BC7F"/>
		<stop  offset="1" style="stop-color:#F18A24"/>
	</linearGradient>
	<path fill="url(#SVGID_1_)" d="M114.953,45.682c-1.98-1.203-8.247-4.135-12.769-3.788c-6.267,0.481-13.246,2.193-20.094,6.947
		c-9.372,6.513-2.857,15.741-3.229,16.233c-0.375,0.494-0.027,0.862,0.104,1.443c-0.851-0.602-7.331,1.888-8.052,2.014
		c-0.721,0.125-3.338-1.635-5.086-3.625c-1.74-1.982-4.667-2.889-4.667-2.889c0.011-0.432-1.021-2.254-2.509-2.943
		c-1.493-0.686-2.658-0.141-2.658-0.141c-0.283-0.152-3.193-0.73-4.965,0.947c-1.676,1.77-1.098,4.68-0.949,4.966
		c0,0-0.543,1.163,0.144,2.655s2.512,2.521,2.944,2.508c0,0,0.904,2.93,2.887,4.672c1.99,1.744,3.75,4.363,3.625,5.084
		s-2.615,7.201-2.014,8.051c-0.58-0.131-0.948-0.48-1.442-0.105c-0.492,0.373-9.722-6.143-16.233,3.23
		c-4.754,6.846-6.464,13.824-6.949,20.094c-0.346,4.52,2.586,10.787,3.79,12.768c1.204,1.984,2.401,3.82,3.236,2.789
		c0.835-1.025,0.282-5.754,0.86-8.289c0.58-2.531,2.004-3.143,2.633-3.662c0.636-0.521,1.86-3.139,2.272-3.867
		c0.41-0.734,2.699-3.885,3.119-4.328c0.42-0.439,3.189-4.541,3.668-5.486c0.476-0.949,1.369-2.482,2.033-1.852
		c0.664,0.633,2.114,3.826,2.114,3.826s1.089,5.938,2.351,10.072c1.259,4.141,3.126,6.748,3.648,7.527
		c0.524,0.779,2.922,4.447,3.824,6.01c0.906,1.559,2.633,1.652,3.158,2.432c0.523,0.777,5.902,5.74,7.183,5.418
		c1.288-0.322,1.003-0.316,2.237,0.301c1.24,0.615,5.984,3.293,7.42,3.111c1.43-0.182,2.137-0.633,2.137-0.633l1.28,0.863
		c-1.921,2.715-6.431,9.693-6.155,14.938c1.223,2.271,0.697,3.848,1.4,5.246c0.552,1.105,1.047,1.047,2.621,1.572
		c1.574,0.527,4.459,1.219,7.172-0.523c4.607-2.967,4.282-14.15,6.984-19.537c0.656,0.092,1.304,0.355,1.717-0.076
		c0.629-0.664,3.831-1.83,4.409-1.842c0.573-0.016,5.811-0.371,7.011-1.191c1.196-0.824,2.067-0.699,2.067-0.699
		s1.934-0.27,2.714-0.648c0.782-0.379,2.35-0.855,2.35-0.855s5.646,4.236,7.557,5.77c1.908,1.531,3.684,3.186,3.803,2.32
		c0.864-0.119-0.792-1.891-2.317-3.805c-1.534-1.91-5.771-7.555-5.771-7.555s0.476-1.568,0.854-2.35
		c0.38-0.781,0.647-2.713,0.647-2.713s-0.124-0.873,0.7-2.068c0.82-1.201,1.177-6.439,1.192-7.012
		c0.011-0.578,1.179-3.779,1.843-4.41c0.431-0.412,0.165-1.059,0.079-1.715c5.385-2.697,16.563-2.375,19.531-6.986
		c1.743-2.713,1.05-5.596,0.521-7.168c-0.524-1.574-0.466-2.068-1.571-2.621c-1.402-0.699-2.975-0.178-5.245-1.4
		c-5.245-0.275-12.218,4.23-14.933,6.15l-0.865-1.279c0,0,0.453-0.707,0.634-2.137c0.183-1.438-2.499-6.176-3.113-7.418
		c-0.615-1.236-0.621-0.951-0.301-2.238c0.322-1.281-4.643-6.656-5.418-7.184c-0.778-0.523-0.874-2.252-2.434-3.156
		c-1.559-0.904-5.228-3.303-6.008-3.824c-0.778-0.523-3.388-2.391-7.527-3.649c-4.136-1.26-10.073-2.351-10.073-2.351
		s-3.195-1.448-3.824-2.113c-0.631-0.666,0.901-1.559,1.852-2.035c0.945-0.479,5.047-3.248,5.484-3.666
		c0.445-0.422,3.596-2.709,4.328-3.119c0.729-0.414,3.35-1.641,3.867-2.272c0.523-0.633,1.133-2.055,3.664-2.636
		c2.534-0.577,7.264-0.025,8.289-0.861C118.773,48.082,116.938,46.883,114.953,45.682z"/>
</g>
</svg>
