<?xml version="1.0" encoding="utf-8"?>
<!-- Generator: Adobe Illustrator 15.1.0, SVG Export Plug-In . SVG Version: 6.00 Build 0)  -->
<!DOCTYPE svg PUBLIC "-//W3C//DTD SVG 1.1//EN" "http://www.w3.org/Graphics/SVG/1.1/DTD/svg11.dtd">
<svg version="1.1" id="レイヤー_1" xmlns="http://www.w3.org/2000/svg" xmlns:xlink="http://www.w3.org/1999/xlink" x="0px"
	 y="0px" width="185.195px" height="213.846px" viewBox="0 0 185.195 213.846" enable-background="new 0 0 185.195 213.846"
	 xml:space="preserve">
<g>
	<g>
		<polygon fill="#471F0D" points="0,53.461 92.598,0 185.196,53.461 185.196,160.385 92.598,213.846 0,160.385 		"/>
		<path fill="#DFB191" d="M92.598,5.773l87.598,50.574v101.15l-87.598,50.574L5,157.498V56.348L92.598,5.773 M92.598,0L0,53.461
			v106.924l92.598,53.461l92.598-53.461V53.461L92.598,0L92.598,0z"/>
	</g>
	<g>
		<path fill="#84C6D0" d="M92.604,154.65c4.76,0.002,9.521,0.191,14.278,0.74c2.375,0.287,4.76,0.633,7.117,1.279
			c1.177,0.33,2.359,0.695,3.521,1.279c0.581,0.297,1.16,0.643,1.716,1.15c0.527,0.521,1.147,1.207,1.196,2.461v0.121v0.064
			l-0.011,0.119c-0.015,0.172-0.043,0.311-0.07,0.432c-0.06,0.254-0.145,0.492-0.247,0.703c-0.205,0.428-0.46,0.77-0.723,1.066
			c-0.528,0.586-1.092,1.014-1.661,1.387c-1.139,0.738-2.301,1.281-3.478,1.74c-2.355,0.9-4.737,1.547-7.137,2.041
			c-4.803,0.971-9.656,1.373-14.503,1.385c-4.846-0.01-9.7-0.404-14.503-1.375c-2.401-0.488-4.785-1.139-7.14-2.037
			c-1.179-0.457-2.341-1.002-3.481-1.742c-0.566-0.373-1.133-0.803-1.662-1.389c-0.263-0.297-0.518-0.643-0.723-1.07
			c-0.209-0.42-0.346-0.961-0.33-1.504c0.015-0.227,0.008-0.141,0.037-0.365c0.024-0.17,0.059-0.305,0.094-0.42
			c0.074-0.246,0.177-0.469,0.291-0.666c0.23-0.396,0.502-0.701,0.777-0.957c0.557-0.51,1.138-0.857,1.719-1.152
			c1.163-0.586,2.346-0.953,3.523-1.279c2.359-0.646,4.742-0.992,7.119-1.275C83.082,154.84,87.843,154.652,92.604,154.65z
			 M92.604,154.65c-4.758,0.01-9.526,0.406-14.192,1.355c-2.328,0.48-4.635,1.117-6.832,1.967c-1.093,0.43-2.16,0.945-3.1,1.57
			c-0.465,0.311-0.896,0.664-1.209,1.035c-0.323,0.373-0.443,0.744-0.396,0.922c0.029,0.174,0.195,0.455,0.543,0.754
			c0.34,0.293,0.787,0.566,1.266,0.799c0.962,0.473,2.049,0.809,3.143,1.107c2.202,0.596,4.507,0.928,6.811,1.203
			c4.619,0.529,9.296,0.717,13.968,0.723c4.671-0.004,9.349-0.186,13.97-0.711c2.306-0.27,4.611-0.607,6.813-1.201
			c1.097-0.297,2.184-0.637,3.146-1.109c0.957-0.455,1.809-1.139,1.813-1.625c-0.002,0.117,0,0.027,0,0.051v-0.01l0.003-0.02
			c0.003-0.012,0.003-0.025,0.001-0.041c0.005-0.029,0-0.059-0.004-0.09c-0.006-0.064-0.025-0.139-0.06-0.221
			c-0.065-0.166-0.185-0.355-0.342-0.539c-0.313-0.373-0.745-0.725-1.211-1.037c-0.94-0.625-2.007-1.141-3.101-1.568
			c-2.199-0.848-4.506-1.484-6.834-1.963C102.13,155.055,97.362,154.66,92.604,154.65z"/>
		<path fill="#84C6D0" d="M92.607,152.711c4.102-0.01,8.205,0.109,12.307,0.346c4.099,0.238,8.2,0.572,12.28,1.148
			c4.078,0.576,8.158,1.268,12.166,2.457c2.001,0.605,3.997,1.289,5.92,2.314c0.96,0.518,1.906,1.113,2.777,1.943
			c0.43,0.416,0.845,0.896,1.179,1.496c0.335,0.605,0.576,1.303,0.591,2.141c0.019,0.717-0.188,1.525-0.501,2.135
			c-0.311,0.633-0.71,1.15-1.125,1.605c-0.844,0.908-1.776,1.584-2.723,2.18c-1.899,1.176-3.876,2.037-5.875,2.771
			c-4.006,1.439-8.085,2.447-12.189,3.209c-8.218,1.49-16.516,2.148-24.813,2.146c-8.288,0.002-16.595-0.643-24.81-2.137
			c-4.105-0.754-8.184-1.77-12.189-3.207c-2-0.732-3.979-1.596-5.88-2.771c-0.945-0.598-1.878-1.275-2.722-2.184
			c-0.418-0.457-0.816-0.977-1.129-1.611c-0.313-0.637-0.521-1.361-0.501-2.201c0.017-0.721,0.259-1.506,0.595-2.084
			c0.336-0.602,0.752-1.08,1.184-1.5c0.871-0.828,1.819-1.424,2.778-1.943c1.925-1.021,3.922-1.707,5.923-2.309
			c4.01-1.189,8.09-1.883,12.169-2.455c4.079-0.576,8.18-0.91,12.278-1.146C84.398,152.82,88.501,152.701,92.607,152.711z
			 M92.607,152.711c-8.207,0-16.424,0.648-24.504,2.121c-4.032,0.746-8.033,1.744-11.883,3.133
			c-1.914,0.707-3.797,1.539-5.497,2.604c-0.843,0.533-1.644,1.137-2.27,1.828c-0.634,0.699-1.022,1.445-0.974,2.156
			c0.027,0.592,0.461,1.33,1.117,1.93c0.653,0.615,1.47,1.137,2.326,1.592c1.725,0.91,3.625,1.564,5.543,2.141
			c3.851,1.139,7.854,1.816,11.859,2.381c4.01,0.568,8.056,0.893,12.106,1.131c4.052,0.232,8.106,0.35,12.175,0.344
			c4.053,0.008,8.116-0.107,12.166-0.338c4.052-0.229,8.098-0.563,12.11-1.125c4.007-0.557,8.01-1.242,11.861-2.381
			c1.919-0.57,3.818-1.229,5.545-2.141c0.854-0.455,1.673-0.977,2.328-1.592c0.657-0.627,1.095-1.285,1.121-1.998
			c0.05-0.598-0.342-1.432-0.977-2.107c-0.625-0.691-1.428-1.295-2.271-1.83c-1.701-1.063-3.583-1.896-5.5-2.6
			c-3.85-1.389-7.852-2.387-11.885-3.131C109.027,153.357,100.81,152.711,92.607,152.711z"/>
	</g>
	
		<linearGradient id="SVGID_1_" gradientUnits="userSpaceOnUse" x1="131.0044" y1="114.2197" x2="30.1748" y2="114.2197" gradientTransform="matrix(0.9989 0.0463 -0.0463 0.9989 17.4394 -17.0765)">
		<stop  offset="0" style="stop-color:#F8BC7F"/>
		<stop  offset="1" style="stop-color:#F18A24"/>
	</linearGradient>
	<path fill="url(#SVGID_1_)" d="M43.512,93.676c-0.723-2.236-1.969-5.045,1.429-7.09c1.715-1.031,2.234-0.723,4.796-2.529
		c2.56-1.809,14.854-11.695,30.546-11.793c15.691-0.1,20.521,2.6,22.008,0.193c1.488-2.408,7.297-24.053,13.159-28.564
		c3.709-2.855,5.506-0.02,5.64,3.014c0.135,3.035,1.426,10.801,0.839,11.598c-0.586,0.801,0.071,4.408,0.257,6.344
		s-0.179,3.844,0.032,5.229c0.21,1.387-0.867,6.842,0.493,7.18c1.359,0.338,9.822,1.83,11.593,5.215
		c3.231,1.527,3.964,3.488,4.464,4.611c2.671,1.775,2.047,3.398,2.756,5.908c0.707,2.51,0.844,5.543,0.489,7.178
		c-0.349,1.635,1.185,4.182,0.795,6.643c-0.39,2.459,0.021,5.506-0.878,7.115c-0.902,1.609-1.79,2.943-2.466,5.666
		c-0.68,2.719-2.914,3.441-3.812,5.051c-0.902,1.609-3.499,4.242-7.134,5.449c-3.633,1.207-9.217,2.875-9.017,4.535
		c0.197,1.662-3.123,13.893-4.073,16.6c-0.95,2.709-1.531,9.287-3.19,9.484c-3.054,0.365-8.029,1.006-11.08-22.254
		c-1.207-3.635-4.776-3.801-9.445-4.016c-4.668-0.219-21.096-2.08-28.16-4.059c-7.065-1.977-20.632-18.02-19.611-28.154
		c-2.709-0.953-1.381-5.844-0.531-6.355C44.258,95.363,43.512,93.676,43.512,93.676z"/>
</g>
</svg>
