<?xml version="1.0" encoding="utf-8"?>
<!-- Generator: Adobe Illustrator 15.1.0, SVG Export Plug-In . SVG Version: 6.00 Build 0)  -->
<!DOCTYPE svg PUBLIC "-//W3C//DTD SVG 1.1//EN" "http://www.w3.org/Graphics/SVG/1.1/DTD/svg11.dtd">
<svg version="1.1" id="レイヤー_1" xmlns="http://www.w3.org/2000/svg" xmlns:xlink="http://www.w3.org/1999/xlink" x="0px"
	 y="0px" width="185.195px" height="213.846px" viewBox="0 0 185.195 213.846" enable-background="new 0 0 185.195 213.846"
	 xml:space="preserve">
<g>
	<g>
		<polygon fill="#471F0D" points="0,53.461 92.598,0 185.196,53.461 185.196,160.385 92.598,213.846 0,160.385 		"/>
		<path fill="#DFB191" d="M92.598,5.773l87.598,50.574v101.15l-87.598,50.574L5,157.498V56.348L92.598,5.773 M92.598,0L0,53.461
			v106.924l92.598,53.461l92.598-53.461V53.461L92.598,0L92.598,0z"/>
	</g>
	<path fill="#84C6D0" d="M135.464,54.006c-4.649,0-8.877,1.797-12.032,4.73c0.357-0.029,0.719-0.048,1.084-0.048
		c7.18,0,13,5.82,13,13.001c0,7.178-5.82,13-13,13c-0.365,0-0.727-0.02-1.085-0.049c3.156,2.934,7.384,4.73,12.033,4.73
		c9.766,0,17.683-7.916,17.683-17.682C153.147,61.923,145.23,54.006,135.464,54.006z"/>
	<g>
		<path fill="#84C6D0" d="M92.606,154.65c6.026,0.002,12.055,0.191,18.078,0.74c3.007,0.287,6.025,0.633,9.011,1.279
			c1.49,0.33,2.988,0.695,4.459,1.279c0.736,0.297,1.469,0.643,2.173,1.15c0.668,0.521,1.452,1.207,1.515,2.461v0.121v0.064
			l-0.014,0.119c-0.019,0.172-0.055,0.311-0.089,0.432c-0.075,0.254-0.184,0.492-0.313,0.703c-0.259,0.428-0.582,0.77-0.914,1.066
			c-0.669,0.586-1.383,1.014-2.104,1.387c-1.441,0.738-2.913,1.281-4.403,1.74c-2.982,0.9-5.998,1.547-9.036,2.041
			c-6.081,0.971-12.226,1.373-18.362,1.385c-6.136-0.01-12.281-0.404-18.363-1.375c-3.041-0.488-6.058-1.139-9.039-2.037
			c-1.492-0.457-2.963-1.002-4.408-1.742c-0.719-0.373-1.434-0.803-2.105-1.389c-0.332-0.297-0.655-0.643-0.914-1.07
			c-0.264-0.42-0.438-0.961-0.418-1.504c0.019-0.227,0.01-0.141,0.047-0.365c0.031-0.17,0.074-0.305,0.119-0.42
			c0.094-0.246,0.223-0.469,0.367-0.666c0.293-0.396,0.636-0.701,0.986-0.957c0.703-0.51,1.439-0.857,2.175-1.152
			c1.473-0.586,2.97-0.953,4.462-1.279c2.986-0.646,6.003-0.992,9.014-1.275C80.548,154.84,86.579,154.652,92.606,154.65z
			 M92.606,154.65c-6.024,0.01-12.063,0.406-17.971,1.355c-2.947,0.48-5.867,1.117-8.65,1.967c-1.383,0.43-2.733,0.945-3.923,1.57
			c-0.59,0.311-1.136,0.664-1.532,1.035c-0.408,0.373-0.561,0.744-0.5,0.922c0.035,0.174,0.246,0.455,0.687,0.754
			c0.429,0.293,0.995,0.566,1.602,0.799c1.218,0.473,2.595,0.809,3.98,1.107c2.787,0.596,5.705,0.928,8.622,1.203
			c5.848,0.529,11.77,0.717,17.686,0.723c5.914-0.004,11.836-0.186,17.688-0.711c2.919-0.27,5.838-0.607,8.625-1.201
			c1.389-0.297,2.765-0.637,3.983-1.109c1.212-0.455,2.29-1.139,2.296-1.625c-0.003,0.117,0,0.027,0,0.051v-0.01l0.003-0.02
			c0.005-0.012,0.005-0.025,0.002-0.041c0.006-0.029,0-0.059-0.005-0.09c-0.008-0.064-0.032-0.139-0.075-0.221
			c-0.083-0.166-0.234-0.355-0.433-0.539c-0.396-0.373-0.944-0.725-1.534-1.037c-1.19-0.625-2.541-1.141-3.926-1.568
			c-2.785-0.848-5.705-1.484-8.652-1.963C104.667,155.055,98.629,154.66,92.606,154.65z"/>
		<path fill="#84C6D0" d="M92.608,152.711c5.195-0.01,10.391,0.109,15.582,0.346c5.19,0.238,10.384,0.572,15.55,1.148
			c5.163,0.576,10.329,1.268,15.403,2.457c2.533,0.605,5.062,1.289,7.496,2.314c1.215,0.518,2.413,1.113,3.516,1.943
			c0.545,0.416,1.069,0.896,1.492,1.496c0.425,0.605,0.73,1.303,0.749,2.141c0.023,0.717-0.238,1.525-0.635,2.135
			c-0.393,0.633-0.898,1.15-1.425,1.605c-1.067,0.908-2.248,1.584-3.446,2.18c-2.405,1.176-4.908,2.037-7.439,2.771
			c-5.071,1.439-10.235,2.447-15.433,3.209c-10.405,1.49-20.91,2.148-31.418,2.146c-10.493,0.002-21.011-0.643-31.412-2.137
			c-5.197-0.754-10.361-1.77-15.434-3.207c-2.532-0.732-5.036-1.596-7.444-2.771c-1.197-0.598-2.377-1.275-3.446-2.184
			c-0.529-0.457-1.034-0.977-1.429-1.611c-0.396-0.637-0.659-1.361-0.635-2.201c0.021-0.721,0.328-1.506,0.754-2.084
			c0.426-0.602,0.952-1.08,1.498-1.5c1.103-0.828,2.303-1.424,3.518-1.943c2.438-1.021,4.966-1.707,7.499-2.309
			c5.076-1.189,10.243-1.883,15.408-2.455c5.164-0.576,10.355-0.91,15.546-1.146C82.215,152.82,87.412,152.701,92.608,152.711z
			 M92.608,152.711c-10.391,0-20.793,0.648-31.023,2.121c-5.105,0.746-10.171,1.744-15.045,3.133
			c-2.424,0.707-4.808,1.539-6.96,2.604c-1.068,0.533-2.082,1.137-2.874,1.828c-0.803,0.699-1.295,1.445-1.233,2.156
			c0.035,0.592,0.584,1.33,1.415,1.93c0.827,0.615,1.86,1.137,2.946,1.592c2.183,0.91,4.589,1.564,7.017,2.141
			c4.875,1.139,9.943,1.816,15.016,2.381c5.077,0.568,10.199,0.893,15.328,1.131c5.131,0.232,10.265,0.35,15.414,0.344
			c5.133,0.008,10.277-0.107,15.406-0.338c5.129-0.229,10.252-0.563,15.332-1.125c5.073-0.557,10.142-1.242,15.019-2.381
			c2.429-0.57,4.834-1.229,7.021-2.141c1.082-0.455,2.117-0.977,2.947-1.592c0.832-0.627,1.386-1.285,1.42-1.998
			c0.063-0.598-0.434-1.432-1.236-2.107c-0.792-0.691-1.808-1.295-2.875-1.83c-2.154-1.063-4.537-1.896-6.964-2.6
			c-4.874-1.389-9.94-2.387-15.048-3.131C113.399,153.357,102.995,152.711,92.608,152.711z"/>
	</g>
	<g>
		<polygon fill="none" points="180.196,56.348 92.598,5.773 5,56.348 5,109.785 5.291,109.689 24.291,94.119 40.291,79.945 
			58.29,71.689 95.29,88.689 100.19,95.852 108.29,95.119 108.29,99.014 107.194,106.088 108.29,107.689 104.29,128.877 
			93.29,114.703 77.29,119.84 77.29,128.877 83.29,134.689 97.29,134.689 90.29,153.439 100.29,164.367 113.29,176.689 
			121.208,191.555 180.196,157.498 		"/>
		<g>
			<linearGradient id="SVGID_1_" gradientUnits="userSpaceOnUse" x1="121.2075" y1="139.8809" x2="5.0005" y2="139.8809">
				<stop  offset="0" style="stop-color:#F8BC7F"/>
				<stop  offset="1" style="stop-color:#F18A24"/>
			</linearGradient>
			<polygon fill="url(#SVGID_1_)" points="100.29,164.367 90.29,153.439 97.29,134.689 83.29,134.689 77.29,128.877 77.29,119.84 
				93.29,114.703 104.29,128.877 108.29,107.689 107.194,106.088 108.29,99.014 108.29,95.119 100.19,95.852 95.29,88.689 
				58.29,71.689 40.291,79.945 24.291,94.119 5.291,109.689 5,109.785 5,157.498 92.598,208.072 121.208,191.555 113.29,176.689 			
				"/>
			<path fill="#471F0D" d="M58.29,72.789l36.331,16.693l4.744,6.934l0.331,0.484l0.584-0.053l7.01-0.635v2.723l-1.084,6.998
				l-0.061,0.393l0.224,0.326l0.861,1.26l-3.512,18.598l-9.639-12.42l-0.43-0.553l-0.666,0.213l-16,5.137l-0.694,0.223v0.73v9.037
				v0.424l0.304,0.293l6,5.813l0.291,0.283h0.405h12.56l-6.496,17.4l-0.215,0.572l0.414,0.451l10,10.928l0.023,0.027l0.026,0.023
				l12.882,12.211l7.387,13.869l-27.272,15.746L6,156.922V110.4l18.953-15.533l15.889-14.076L58.29,72.789 M58.29,71.689
				l-17.999,8.256l-16,14.174l-19,15.57L5,109.785v47.713l87.598,50.574l28.609-16.518l-7.918-14.865l-13-12.322l-10-10.928l7-18.75
				h-14l-6-5.813v-9.037l16-5.137l11,14.174l4-21.188l-1.096-1.602l1.096-7.074v-3.895l-8.1,0.732l-4.9-7.162L58.29,71.689
				L58.29,71.689z"/>
		</g>
	</g>
</g>
</svg>
