<?xml version="1.0" encoding="utf-8"?>
<!-- Generator: Adobe Illustrator 15.1.0, SVG Export Plug-In . SVG Version: 6.00 Build 0)  -->
<!DOCTYPE svg PUBLIC "-//W3C//DTD SVG 1.1//EN" "http://www.w3.org/Graphics/SVG/1.1/DTD/svg11.dtd">
<svg version="1.1" id="レイヤー_1" xmlns="http://www.w3.org/2000/svg" xmlns:xlink="http://www.w3.org/1999/xlink" x="0px"
	 y="0px" width="185.195px" height="213.846px" viewBox="0 0 185.195 213.846" enable-background="new 0 0 185.195 213.846"
	 xml:space="preserve">
<g>
	<g>
		<polygon fill="#471F0D" points="234.142,370.83 326.74,317.369 419.338,370.83 419.338,477.754 326.74,531.216 234.142,477.754 		
			"/>
		<path fill="#DFB191" d="M326.74,323.142l87.598,50.574v101.151l-87.598,50.575l-87.598-50.575V373.716L326.74,323.142
			 M326.74,317.369l-92.598,53.461v106.925l92.598,53.461l92.598-53.461V370.83L326.74,317.369L326.74,317.369z"/>
	</g>
	<path fill="#84C6D0" d="M336.371,472.905c4.4,0.002,8.803,0.164,13.198,0.635c2.196,0.245,4.398,0.541,6.579,1.094
		c1.088,0.282,2.182,0.595,3.256,1.096c0.536,0.253,1.072,0.55,1.586,0.984c0.488,0.445,1.061,1.033,1.104,2.105l0.001,0.104
		l-0.001,0.055l-0.009,0.104c-0.014,0.146-0.039,0.266-0.064,0.368c-0.055,0.218-0.135,0.421-0.229,0.603
		c-0.189,0.365-0.425,0.658-0.667,0.912c-0.488,0.502-1.011,0.867-1.535,1.188c-1.053,0.632-2.128,1.096-3.215,1.489
		c-2.178,0.771-4.38,1.323-6.599,1.746c-4.438,0.83-8.925,1.175-13.405,1.185c-4.48-0.008-8.968-0.346-13.407-1.176
		c-2.22-0.418-4.423-0.975-6.601-1.744c-1.088-0.392-2.163-0.857-3.217-1.49c-0.525-0.32-1.047-0.688-1.537-1.189
		c-0.242-0.254-0.479-0.549-0.669-0.915c-0.192-0.359-0.319-0.823-0.305-1.288c0.015-0.193,0.007-0.119,0.034-0.312
		c0.022-0.146,0.055-0.261,0.088-0.359c0.068-0.211,0.162-0.401,0.268-0.569c0.213-0.34,0.465-0.601,0.72-0.82
		c0.515-0.436,1.051-0.732,1.589-0.986c1.074-0.5,2.168-0.814,3.258-1.094c2.18-0.553,4.383-0.85,6.58-1.092
		C327.568,473.068,331.97,472.907,336.371,472.905z M336.371,472.905c-4.398,0.009-8.808,0.348-13.121,1.16
		c-2.152,0.411-4.283,0.956-6.314,1.684c-1.011,0.368-1.997,0.809-2.865,1.344c-0.43,0.267-0.828,0.568-1.117,0.887
		c-0.299,0.319-0.41,0.637-0.367,0.788c0.027,0.149,0.181,0.39,0.502,0.646c0.314,0.251,0.727,0.484,1.17,0.683
		c0.889,0.405,1.894,0.692,2.905,0.949c2.035,0.51,4.165,0.793,6.296,1.028c4.27,0.453,8.593,0.614,12.912,0.619
		c4.318-0.004,8.643-0.158,12.913-0.609c2.132-0.23,4.262-0.519,6.298-1.027c1.013-0.254,2.017-0.545,2.907-0.949
		c0.886-0.389,1.673-0.974,1.677-1.391c-0.002,0.101,0,0.023,0,0.043v-0.008l0.002-0.017c0.004-0.011,0.004-0.022,0.002-0.035
		c0.003-0.024,0-0.05-0.004-0.077c-0.006-0.055-0.024-0.119-0.055-0.189c-0.062-0.141-0.172-0.303-0.316-0.461
		c-0.29-0.318-0.689-0.62-1.12-0.887c-0.868-0.535-1.855-0.977-2.866-1.343c-2.033-0.726-4.164-1.271-6.316-1.68
		C345.177,473.251,340.769,472.914,336.371,472.905z"/>
	<path fill="#84C6D0" d="M339.372,471.247c3.794-0.009,7.587,0.094,11.378,0.295c3.789,0.204,7.579,0.489,11.351,0.983
		c3.771,0.493,7.542,1.085,11.247,2.103c1.85,0.519,3.694,1.104,5.473,1.979c0.887,0.444,1.762,0.953,2.566,1.663
		c0.397,0.357,0.781,0.769,1.09,1.281c0.311,0.518,0.533,1.115,0.547,1.831c0.018,0.614-0.174,1.306-0.463,1.827
		c-0.287,0.541-0.656,0.984-1.041,1.375c-0.779,0.776-1.642,1.354-2.516,1.865c-1.757,1.006-3.585,1.742-5.432,2.371
		c-3.703,1.232-7.474,2.094-11.269,2.746c-7.595,1.274-15.265,1.838-22.937,1.836c-7.662,0.002-15.34-0.549-22.934-1.828
		c-3.796-0.645-7.566-1.514-11.27-2.744c-1.849-0.627-3.676-1.365-5.434-2.372c-0.875-0.512-1.736-1.091-2.518-1.868
		c-0.387-0.391-0.755-0.836-1.043-1.379c-0.289-0.545-0.48-1.165-0.463-1.883c0.016-0.617,0.24-1.289,0.551-1.784
		c0.311-0.515,0.694-0.925,1.094-1.283c0.805-0.71,1.681-1.22,2.568-1.663c1.779-0.875,3.624-1.461,5.475-1.977
		c3.705-1.018,7.478-1.61,11.248-2.1c3.771-0.493,7.563-0.779,11.352-0.981C331.784,471.34,335.578,471.238,339.372,471.247z
		 M339.372,471.247c-7.585,0-15.181,0.555-22.649,1.814c-3.729,0.639-7.427,1.492-10.984,2.682c-1.771,0.604-3.51,1.316-5.082,2.227
		c-0.779,0.457-1.52,0.973-2.099,1.564c-0.585,0.6-0.944,1.238-0.899,1.846c0.024,0.506,0.426,1.139,1.033,1.652
		c0.604,0.525,1.357,0.973,2.149,1.361c1.594,0.779,3.351,1.339,5.123,1.832c3.56,0.975,7.261,1.554,10.963,2.038
		c3.708,0.485,7.448,0.763,11.192,0.967c3.746,0.198,7.494,0.3,11.254,0.294c3.747,0.008,7.504-0.091,11.248-0.289
		c3.744-0.195,7.484-0.48,11.192-0.963c3.704-0.477,7.404-1.063,10.966-2.036c1.773-0.489,3.529-1.053,5.125-1.832
		c0.791-0.39,1.547-0.837,2.151-1.362c0.608-0.537,1.013-1.1,1.038-1.711c0.045-0.512-0.316-1.225-0.902-1.803
		c-0.579-0.592-1.32-1.108-2.1-1.565c-1.572-0.91-3.313-1.624-5.084-2.226c-3.559-1.188-7.258-2.043-10.986-2.679
		C354.552,471.799,346.957,471.247,339.372,471.247z"/>
	
		<linearGradient id="SVGID_1_" gradientUnits="userSpaceOnUse" x1="230.5952" y1="440.6475" x2="371.0264" y2="440.6475" gradientTransform="matrix(0.9821 -0.1881 0.1881 0.9821 -43.5593 43.569)">
		<stop  offset="0" style="stop-color:#F8BC7F"/>
		<stop  offset="1" style="stop-color:#F18A24"/>
	</linearGradient>
	<path fill-rule="evenodd" clip-rule="evenodd" fill="url(#SVGID_1_)" d="M373.288,409.899
		c-12.512-0.858-20.903-11.228-23.161-26.045c3.563,0.063,4.416,3.558,9.107,4.704c3.198,0.782,7.398-0.48,10.154,0.986
		c2.862,1.522,2.754,5.047,5.823,5.919c4.188-1.495,2.944-5.08,6.269-7.063c3.162-1.887,7.008-0.594,10.743-2.058
		c3.125-1.224,3.592-4.21,6.701-4.801c1.268,13.487-6.691,20.714-15.915,27.083c10.182,31.563-7.961,52.545-39.809,49.246
		c2.838,9.594,10.092,12.679,14.402,20.104c-13.572,5.16-22.721-8.496-27.035-21.787c-6.199-2.707-13.404-3.931-19.936-6.146
		c-3.681,5.373,3.516,18.128-0.191,23.483c-9.061,1.239-16.102-18.978-11.179-27.755c-12.085-8.338-24.665-16.953-31.223-34.467
		c-0.994-2.656-1.114-6.378-2.407-9.505c-2.61-6.317-19.832-29.072-2.455-31.184c6.742-0.82,16.943,8.586,23.715,13.629
		c17.954,13.375,50.455,35.239,72.861,37.629C367.765,422.727,375.255,419.803,373.288,409.899z M284.63,412.227
		c7.383,14.379,20.109,22.932,33.424,27.597c-1.297-0.745-2.021-2.339-2.563-4.198c-14.096-6.582-28.33-22.144-30.261-41.686
		c4.743,16.155,12.753,27.435,22.524,34.961c1.973,1.52,4.268,4.346,6.521,3.439c-1.368-6.814-7.299-9.577-10.949-14.316
		c-3.578-4.646-7.429-9.717-7.99-17.227c4.758,9.664,9.619,19.177,17.531,24.193c-4.804-20.705-18.547-25.052-31.223-34.468
		c-6.278-4.664-13.309-9.987-20.695-10.105c-6.191,7.609,4.084,15.129,6.271,20.489c0.802,1.965,0.618,4.17,1.191,6.22
		c8.589,30.733,36.034,40.102,61.614,46.231c-0.893-4.254-5.935-3.941-8.543-4.812c-19.467-6.49-39.307-17.182-47.332-39.002
		c-1.257-3.417-1.709-7.913-4.079-12.115c-2.429-4.304-9.687-8.866-7.773-16.098c1.569,7.739,7.991,12.449,10.577,18.492
		c1.158,2.708,1.262,5.739,2.189,8.373c9.054,25.687,30.491,33.255,53.42,40.181c-8.361-6.568-18.841-9.201-27.648-15.807
		c-8.604-6.455-16.25-14.627-20.334-26.588c-1.477-4.325-1.969-8.265-3.971-11.55c-2.027-3.326-6.721-5.233-5.342-9.528
		C278.731,390.771,280.087,403.375,284.63,412.227z M309.659,472.5c1.149-6.764-3.448-17.427-0.94-23.268
		c-2.7-1.336-5.41-2.66-8.324-3.681C297.08,454.044,301.417,470.434,309.659,472.5z M346.75,451.915
		c-3.561-0.311-6.628-1.35-9.805-2.227C338.693,452.199,344.234,452.946,346.75,451.915z M367.972,452.539
		c-9.966,2.358-20.244,1.32-27.227,1.697C346.626,458.611,360.642,456.699,367.972,452.539z"/>
</g>
<g>
	<g>
		<polygon fill="#471F0D" points="437.806,370.83 530.404,317.369 623.002,370.83 623.002,477.754 530.404,531.216 437.806,477.754 
					"/>
		<path fill="#DFB191" d="M530.404,323.142l87.598,50.574v101.151l-87.598,50.575l-87.599-50.575V373.716L530.404,323.142
			 M530.404,317.369l-92.599,53.461v106.925l92.599,53.461l92.598-53.461V370.83L530.404,317.369L530.404,317.369z"/>
	</g>
	<g>
		
			<linearGradient id="SVGID_2_" gradientUnits="userSpaceOnUse" x1="511.502" y1="528.9727" x2="511.502" y2="418.3613" gradientTransform="matrix(0.9955 -0.0945 0.0945 0.9955 -40.2421 -10.7154)">
			<stop  offset="0" style="stop-color:#F8BC7F"/>
			<stop  offset="1" style="stop-color:#F18A24"/>
		</linearGradient>
		<path fill="url(#SVGID_2_)" d="M520.504,436.543c-0.276,0.414-0.602,0.816-0.465,1.244c0.195,0.609,1.296-0.628,1.13-0.146
			c-0.166,0.479-1.215,4.297-1.145,5.262c0.067,0.97,1.584,2.431,1.98,3.244c0.393,0.807,3.677,6.117,4.546,7.493
			c0.873,1.38,0.545,1.939,0.212,2.903c-0.333,0.965-2.187,1.663-2.194,2.07c-0.006,0.402-0.375,1.084-0.463,1.724
			c-0.09,0.644,0.645,0.091,0.852-0.511c0.207-0.604,1.06-1.121,1.785-1.273c0.727-0.148,1.84,0.909,2.117,1.68
			c0.27,0.764,0.09,2.855,0.09,2.855s-0.25,0.723-0.176,1.286c0.075,0.563,0.811-0.392,1.22-1.194
			c0.41-0.801,0.464-1.725,0.552-2.366c0.088-0.644,0.676,0.366,1.518,1.064c0.836,0.69,1.428,1.7,1.705,2.47
			c0.271,0.768-0.496,1.041-0.301,1.647c0.197,0.604,1.215-0.791,1.381-1.276c0.164-0.477,0.506-1.843-0.768-3.23
			c-1.277-1.375-3.705-3.699-4.099-4.508c-0.394-0.813-5.901-9.446-6.53-10.738c-0.634-1.299,0.05-4.429,0.744-5.669
			c0.406-0.722,1.169-2.22,1.74-3.352c0.502,0.44,0.962,0.896,0.944,1.217c-0.032,0.561-0.329,1.056-0.063,1.585
			c0.263,0.527,0.881-1.066,0.867-0.723c-0.011,0.344,0.294,1.293,0.326,2.057c0.028,0.77,0.829,2.053,1.263,2.994
			c0.432,0.939,2.024,2.92,2.264,3.623c0.236,0.701,1.047,0.709,1.986,1.602c0.932,0.893,8.664,6.424,9.271,7.004
			c0.609,0.584,0.068,1.611-0.336,2.29c-0.406,0.683-0.121,0.951-0.162,1.852c-0.047,0.897,0.553,0.886,0.73,0.99
			c0.182,0.117-0.115-0.798,0.061-0.769c0.168,0.029,0.553-0.434,0.512-0.859c-0.039-0.417,0.43-1.277,0.789-1.563
			c0.357-0.293,0.971-0.48,1.254-0.25c0.277,0.232,1.217,1.121,1.24,1.377c0.023,0.253,0.553,1.779,0.473,2.298
			c-0.082,0.517,0.455,0.72,0.482,1.018c0.029,0.296-0.152,0.656,0.156,0.753c0.311,0.102,0.477-0.813,0.66-1.131
			c0.18-0.311,0.232-0.656,0.186-1.162c-0.049-0.51-0.084-1.362-0.131-1.868c-0.049-0.503,0.074-0.987,0.736-0.745
			c0.666,0.234,1.867,0.844,2.252,1.23c0.375,0.393,1.045,1.176,1.082,1.561c0.035,0.38-0.146,0.699,0.135,0.926
			c0.381,0.046,0.697-0.706,0.83-1.104c0.111-0.184,0.133-0.82-0.184-1.476c-0.814-1.837-1.885-2.377-3.1-3.03
			c-1.209-0.65-2.748-0.633-3.91-0.779c-1.164-0.145-4.172-2.158-6.141-4.021c-1.963-1.862-6.047-5.815-5.986-6.465
			c0.068-0.646-0.521-1.484-0.826-1.964c-0.301-0.487-0.02-2.942-0.199-4.845c-0.182-1.899,0.799-5.061,0.916-6.481
			c0.125-1.418,0.645,0.067,0.766,1.337c0.119,1.266,0.527,1.484,0.834,0.685c-0.352-5.08,1.699-5.021,2.414-4.188
			c0.723,0.824,0.77,1.331,0.83,1.962c0.061,0.637-0.373,1.442,0.051,1.914c0.43,0.472,0.92-1.108,0.969-0.603
			c0.047,0.506,0.674,4.414,1.137,5.264c0.463,0.854,2.449,1.557,3.146,2.133c0.693,0.57,5.881,4.045,7.242,4.936
			c1.367,0.895,1.299,1.541,1.396,2.556c0.096,1.017-1.301,2.42-1.141,2.792c0.162,0.369,0.109,1.143,0.293,1.762
			c0.186,0.621,0.623-0.186,0.563-0.818c-0.059-0.635,0.5-1.459,1.1-1.898c0.6-0.438,2.049,0.064,2.621,0.652
			c0.563,0.584,1.266,2.562,1.266,2.562s0.072,0.761,0.373,1.243s0.576-0.691,0.615-1.592c0.041-0.898-0.293-1.762-0.479-2.382
			c-0.188-0.624,0.768,0.051,1.822,0.339c1.045,0.281,2.004,0.955,2.574,1.541c0.566,0.588-0.02,1.154,0.408,1.625
			c0.432,0.469,0.779-1.222,0.73-1.732c-0.049-0.502-0.305-1.887-2.037-2.623c-1.732-0.724-4.906-1.831-5.6-2.404
			c-0.695-0.578-9.283-6.154-10.391-7.069c-1.115-0.919-1.791-4.052-1.672-5.468c0.121-1.424,0.256-5.398,0.256-5.398
			s0,0,0.416,0.344c0.414,0.345,0.445-3.369,0.375-4.125c-0.072-0.762,1.467-2.059,2.273-3.029c0.803-0.973,6.16-5.191,7.939-5.234
			c1.787-0.039,6.125-0.965,7.42-1.354c1.295-0.391,5.229-1.033,6.359-0.338c1.137,0.689,3.893,1.76,5.629,3.193
			c1.736,1.436,2.264,1.38,2.381-0.227c-1.154-6.548-5.555-7.996-5.555-7.996s-0.281-4.381-1.424-5.68
			c-1.15-1.303-3.129-3.288-3.949-3.844c-0.818-0.563-5.406-0.383-7.824-0.284c-2.42,0.101-2.959-1.507-4.553-2.124
			c-1.594-0.619-1.074-4.629,1.328-7.545c2.414-2.915,5.461-4.48,7.338-7.6c1.879-3.119,2.578-6.512,3.314-12.208
			c0.744-5.699-2.494-10.124-4.258-13.917c-1.77-3.801-4.373-4.321-5.049-4.636c-0.664-0.321,0.182,4.583,0.969,7.45
			c0.783,2.869-0.73,3.136-0.902,2.644c-0.178-0.497-0.832-3.374-2.732-4.475c-1.893-1.098-1.396,1.414-1.174,2.416
			c0.227,1,0.443,3.282-0.021,3.841c-0.455,0.552-2.291,0.087-3.375-0.581c-1.086-0.661-1.6,0.667-2.021,1.602
			c-0.424,0.935-0.621,2.872-1.035,3.935c-0.41,1.06-1.549,1.168-1.842,0.811c-0.285-0.354-0.119-1.267-0.674-1.722
			c-0.553-0.461-1.154-0.02-0.998,1.625c0.156,1.649,0.025,5.624-0.719,4.544c-0.742-1.075-1.031-2.841-1.828-1.744
			c-0.789,1.098,0.553,5.83-0.115,5.512c-0.67-0.324-2.158-1.203-3.598-0.17c-1.436,1.03-0.189,2.063-1.789,2.726
			c-1.596,0.661-3.439,4.161-4.481,5.285c-1.046,1.122-0.683,2.237-3.438,2.883c-2.753,0.646-2.479,2.157-4.489,3.88
			c-2.012,1.727-3.225,1.074-4.365,1.183c-1.139,0.108-2.537-2.44-2.764-7.542c-0.223-5.091-1.348-8.818-2.338-8.469
			c-0.988,0.349-0.246,4.111-0.578,4.659c-0.337,0.54-0.725-4.923-0.76-5.303c-0.037-0.38-1.553-1.515-2.613-1.928
			c-1.063-0.409-1.781-1.233-2.024-2.488c-0.251-1.255-3.312-2.499-4.256-3.052c-0.948-0.55-1.536,0.02-2.964-0.227
			c-1.428-0.246-2.535,0.241-2.371,0.608c0.16,0.369,0.482,2.387,0.482,2.387s-1.183-1.681-2.02-2.371
			c-0.83-0.686-4.833-1.077-4.645-0.453c0.187,0.624,1.347,2.046,0.698,1.981c-0.646-0.068-1.743-2.263-2.901-2.283
			c-1.154-0.021-3.129,2.088-3.342,2.491c-0.217,0.405-0.096,1.672,0.885,2.602c0.984,0.929,1.619,2.273,0.042,1.788
			c-1.579-0.493-3.83-2.58-4.509-3.027c-0.681-0.447-1.143,0.108-1.762,0.296c-0.621,0.187-1.463,0.78-2.438,1.253
			c-0.976,0.476-1.3,1.148-0.975,1.882c0.329,0.738,3.251,3.273,1.965,3.141c-1.295-0.133-2.575-1.545-3.249-1.869
			c-0.672-0.316-0.747,0.201-2.474,0.875c-1.728,0.678-3.155,3.116-2.72,3.711c0.443,0.601,3.972,4.1,4.53,4.558
			c0.554,0.462-1.27,0.12-2.46-0.278c-1.186-0.395-2.398-1.051-3.758-0.535c-1.359,0.514-1.541,1.294-1.926,2.609
			c-0.389,1.318,2.271,3.752,0.818,3.248c-1.455-0.498-2.803,0.141-2.371,0.611c0.428,0.47,4.92,3.37,6.186,4.525
			c1.261,1.158,0.422,1.752-0.34,1.824c-0.764,0.072-1.971-0.58-1.971-0.58l0.014,1.533l-2.455-2.965l-1.458,0.777
			c0,0,0.753,1.206,0.639,1.345c-0.116,0.142-1.63-0.995-2.058-1.464c-0.43-0.474-1.572,2.325-1.613,3.223
			c-0.043,0.9,2.095,1.846,2.095,1.846s-1.962-0.452-2.939,0.023c-0.979,0.478,3.316,2.627,5.189,3.474
			c1.866,0.845,0.765,1.333-0.489,1.579c-1.255,0.25-4.562,0.434-6.211,0.59c-1.645,0.156-5.371,0-3.261,0.691
			c2.116,0.698,4.825,0.951,5.85,0.984c1.022,0.027,1.03,1.435-0.938,2.262c-1.967,0.828-2.73,0.9-6.86,1.801
			c-4.137,0.902-3.868,1.006-2.313,1.245c1.559,0.235,7.172,0.085,8.173-0.14c1-0.219-2.713,2.433-6.122,2.884
			c-3.411,0.45,1.414,1.399,4.213,1.262c2.8-0.138,6.61-1.777,8.914-1.739c2.307,0.036,18.823,0.262,17.351,0.906
			c-1.472,0.654-1.906,1.462-1.109,1.771c0.8,0.307,5.298-0.761,5.995-0.186c0.691,0.575-0.696,0.834-5.7,1.945
			c-5.012,1.119-3.315,1.465-0.1,1.672c3.221,0.209,8.24-0.782,10.418-0.729c2.18,0.048,10.237,0.045,12.059,0.387
			c1.826,0.339,4.163,0.754,7.086,4.57c1.286,1.682,3.572,3.243,5.775,4.516c-0.67,0.375-1.465,1.373-2.248,3.467L520.504,436.543"
			/>
		<path fill="#84C6D0" d="M540.035,472.905c4.4,0.002,8.803,0.164,13.197,0.635c2.197,0.245,4.398,0.541,6.58,1.094
			c1.088,0.282,2.182,0.595,3.256,1.096c0.535,0.253,1.072,0.55,1.586,0.984c0.488,0.445,1.061,1.033,1.104,2.105l0.002,0.104
			l-0.002,0.055l-0.008,0.104c-0.014,0.146-0.039,0.266-0.064,0.368c-0.055,0.218-0.135,0.421-0.23,0.603
			c-0.189,0.365-0.424,0.658-0.666,0.912c-0.488,0.502-1.012,0.867-1.535,1.188c-1.053,0.632-2.129,1.096-3.215,1.489
			c-2.178,0.771-4.381,1.323-6.6,1.746c-4.438,0.83-8.924,1.175-13.404,1.185c-4.48-0.008-8.969-0.346-13.408-1.176
			c-2.22-0.418-4.422-0.975-6.6-1.744c-1.088-0.392-2.164-0.857-3.217-1.49c-0.525-0.32-1.048-0.688-1.537-1.189
			c-0.243-0.254-0.479-0.549-0.67-0.915c-0.191-0.359-0.318-0.823-0.305-1.288c0.015-0.193,0.008-0.119,0.035-0.312
			c0.021-0.146,0.054-0.261,0.088-0.359c0.068-0.211,0.162-0.401,0.268-0.569c0.213-0.34,0.465-0.601,0.719-0.82
			c0.515-0.436,1.051-0.732,1.589-0.986c1.075-0.5,2.168-0.814,3.258-1.094c2.181-0.553,4.384-0.85,6.58-1.092
			C531.232,473.068,535.635,472.907,540.035,472.905z M540.035,472.905c-4.398,0.009-8.809,0.348-13.121,1.16
			c-2.152,0.411-4.283,0.956-6.314,1.684c-1.012,0.368-1.998,0.809-2.865,1.344c-0.431,0.267-0.829,0.568-1.118,0.887
			c-0.299,0.319-0.41,0.637-0.366,0.788c0.026,0.149,0.18,0.39,0.502,0.646c0.314,0.251,0.727,0.484,1.17,0.683
			c0.889,0.405,1.893,0.692,2.904,0.949c2.035,0.51,4.166,0.793,6.296,1.028c4.271,0.453,8.593,0.614,12.913,0.619
			c4.318-0.004,8.643-0.158,12.912-0.609c2.133-0.23,4.262-0.519,6.299-1.027c1.012-0.254,2.016-0.545,2.906-0.949
			c0.887-0.389,1.674-0.974,1.678-1.391c-0.002,0.101,0,0.023,0,0.043v-0.008l0.002-0.017c0.004-0.011,0.004-0.022,0.002-0.035
			c0.002-0.024,0-0.05-0.004-0.077c-0.006-0.055-0.025-0.119-0.055-0.189c-0.063-0.141-0.172-0.303-0.316-0.461
			c-0.291-0.318-0.689-0.62-1.121-0.887c-0.867-0.535-1.855-0.977-2.865-1.343c-2.033-0.726-4.164-1.271-6.316-1.68
			C548.842,473.251,544.434,472.914,540.035,472.905z"/>
		<path fill="#84C6D0" d="M543.035,471.247c3.795-0.009,7.588,0.094,11.379,0.295c3.789,0.204,7.578,0.489,11.35,0.983
			c3.771,0.493,7.543,1.085,11.248,2.103c1.85,0.519,3.693,1.104,5.473,1.979c0.887,0.444,1.762,0.953,2.566,1.663
			c0.396,0.357,0.781,0.769,1.09,1.281c0.311,0.518,0.533,1.115,0.547,1.831c0.018,0.614-0.174,1.306-0.463,1.827
			c-0.287,0.541-0.656,0.984-1.041,1.375c-0.779,0.776-1.643,1.354-2.516,1.865c-1.758,1.006-3.586,1.742-5.432,2.371
			c-3.703,1.232-7.475,2.094-11.27,2.746c-7.594,1.274-15.264,1.838-22.936,1.836c-7.662,0.002-15.341-0.549-22.934-1.828
			c-3.797-0.645-7.566-1.514-11.27-2.744c-1.85-0.627-3.677-1.365-5.435-2.372c-0.874-0.512-1.736-1.091-2.517-1.868
			c-0.387-0.391-0.756-0.836-1.043-1.379c-0.289-0.545-0.481-1.165-0.463-1.883c0.016-0.617,0.24-1.289,0.551-1.784
			c0.31-0.515,0.693-0.925,1.093-1.283c0.805-0.71,1.681-1.22,2.568-1.663c1.779-0.875,3.624-1.461,5.476-1.977
			c3.705-1.018,7.477-1.61,11.248-2.1c3.771-0.493,7.563-0.779,11.352-0.981C535.447,471.34,539.242,471.238,543.035,471.247z
			 M543.035,471.247c-7.584,0-15.181,0.555-22.648,1.814c-3.729,0.639-7.428,1.492-10.984,2.682
			c-1.771,0.604-3.511,1.316-5.082,2.227c-0.779,0.457-1.52,0.973-2.1,1.564c-0.584,0.6-0.944,1.238-0.899,1.846
			c0.024,0.506,0.427,1.139,1.034,1.652c0.604,0.525,1.357,0.973,2.148,1.361c1.594,0.779,3.352,1.339,5.123,1.832
			c3.561,0.975,7.261,1.554,10.963,2.038c3.708,0.485,7.449,0.763,11.193,0.967c3.746,0.198,7.494,0.3,11.254,0.294
			c3.746,0.008,7.504-0.091,11.248-0.289c3.744-0.195,7.484-0.48,11.191-0.963c3.705-0.477,7.404-1.063,10.967-2.036
			c1.773-0.489,3.529-1.053,5.125-1.832c0.791-0.39,1.547-0.837,2.15-1.362c0.609-0.537,1.014-1.1,1.039-1.711
			c0.045-0.512-0.316-1.225-0.902-1.803c-0.58-0.592-1.32-1.108-2.1-1.565c-1.572-0.91-3.313-1.624-5.084-2.226
			c-3.559-1.188-7.258-2.043-10.986-2.679C558.217,471.799,550.621,471.247,543.035,471.247z"/>
	</g>
</g>
<g>
	<g>
		<polygon fill="#471F0D" points="234.142,722.456 326.74,668.995 419.338,722.456 419.338,829.38 326.74,882.841 234.142,829.38 		
			"/>
		<path fill="#DFB191" d="M326.74,674.769l87.598,50.574v101.15l-87.598,50.574l-87.598-50.574v-101.15L326.74,674.769
			 M326.74,668.995l-92.598,53.461V829.38l92.598,53.461l92.598-53.461V722.456L326.74,668.995L326.74,668.995z"/>
	</g>
	<g>
		<path fill="#84C6D0" d="M326.746,823.646c4.76,0.002,9.521,0.191,14.278,0.74c2.375,0.287,4.76,0.633,7.117,1.279
			c1.177,0.33,2.359,0.695,3.521,1.279c0.581,0.297,1.16,0.643,1.716,1.15c0.527,0.521,1.147,1.207,1.196,2.461v0.121v0.064
			l-0.011,0.119c-0.015,0.172-0.043,0.311-0.07,0.432c-0.06,0.254-0.145,0.492-0.247,0.703c-0.205,0.428-0.46,0.77-0.723,1.066
			c-0.528,0.586-1.092,1.014-1.661,1.387c-1.139,0.738-2.301,1.281-3.478,1.74c-2.355,0.9-4.737,1.547-7.137,2.041
			c-4.803,0.971-9.656,1.373-14.503,1.385c-4.846-0.01-9.7-0.404-14.503-1.375c-2.401-0.488-4.785-1.139-7.14-2.037
			c-1.179-0.457-2.341-1.002-3.481-1.742c-0.566-0.373-1.133-0.803-1.662-1.389c-0.263-0.297-0.518-0.643-0.723-1.07
			c-0.209-0.42-0.346-0.961-0.33-1.504c0.015-0.227,0.008-0.141,0.037-0.365c0.024-0.17,0.059-0.305,0.094-0.42
			c0.074-0.246,0.177-0.469,0.291-0.666c0.23-0.396,0.502-0.701,0.777-0.957c0.557-0.51,1.138-0.857,1.719-1.152
			c1.163-0.586,2.346-0.953,3.523-1.279c2.359-0.646,4.742-0.992,7.119-1.275C317.223,823.835,321.985,823.647,326.746,823.646z
			 M326.746,823.646c-4.758,0.01-9.526,0.406-14.192,1.355c-2.328,0.48-4.635,1.117-6.832,1.967c-1.093,0.43-2.16,0.945-3.1,1.57
			c-0.465,0.311-0.896,0.664-1.209,1.035c-0.323,0.373-0.443,0.744-0.396,0.922c0.029,0.174,0.195,0.455,0.543,0.754
			c0.34,0.293,0.787,0.566,1.266,0.799c0.962,0.473,2.049,0.809,3.143,1.107c2.202,0.596,4.507,0.928,6.811,1.203
			c4.619,0.529,9.296,0.717,13.968,0.723c4.671-0.004,9.349-0.186,13.97-0.711c2.306-0.27,4.611-0.607,6.813-1.201
			c1.097-0.297,2.184-0.637,3.146-1.109c0.957-0.455,1.809-1.139,1.813-1.625c-0.002,0.117,0,0.027,0,0.051v-0.01l0.003-0.02
			c0.003-0.012,0.003-0.025,0.001-0.041c0.005-0.029,0-0.059-0.004-0.09c-0.006-0.064-0.025-0.139-0.06-0.221
			c-0.065-0.166-0.185-0.355-0.342-0.539c-0.313-0.373-0.745-0.725-1.211-1.037c-0.94-0.625-2.007-1.141-3.101-1.568
			c-2.199-0.848-4.506-1.484-6.834-1.963C336.272,824.05,331.503,823.655,326.746,823.646z"/>
		<path fill="#84C6D0" d="M326.749,821.706c4.102-0.01,8.205,0.109,12.307,0.346c4.099,0.238,8.2,0.572,12.28,1.148
			c4.078,0.576,8.158,1.268,12.166,2.457c2.001,0.605,3.997,1.289,5.92,2.314c0.96,0.518,1.906,1.113,2.777,1.943
			c0.43,0.416,0.845,0.896,1.179,1.496c0.335,0.605,0.576,1.303,0.591,2.141c0.019,0.717-0.188,1.525-0.501,2.135
			c-0.311,0.633-0.71,1.15-1.125,1.605c-0.844,0.908-1.776,1.584-2.723,2.18c-1.899,1.176-3.876,2.037-5.875,2.771
			c-4.006,1.439-8.085,2.447-12.189,3.209c-8.218,1.49-16.516,2.148-24.813,2.146c-8.288,0.002-16.595-0.643-24.81-2.137
			c-4.105-0.754-8.184-1.77-12.189-3.207c-2-0.732-3.979-1.596-5.88-2.771c-0.945-0.598-1.878-1.275-2.722-2.184
			c-0.418-0.457-0.816-0.977-1.129-1.611c-0.313-0.637-0.521-1.361-0.501-2.201c0.017-0.721,0.259-1.506,0.595-2.084
			c0.336-0.602,0.752-1.08,1.184-1.5c0.871-0.828,1.819-1.424,2.778-1.943c1.925-1.021,3.922-1.707,5.923-2.309
			c4.01-1.189,8.09-1.883,12.169-2.455c4.079-0.576,8.18-0.91,12.278-1.146C318.54,821.815,322.643,821.696,326.749,821.706z
			 M326.749,821.706c-8.207,0-16.424,0.648-24.504,2.121c-4.032,0.746-8.033,1.744-11.883,3.133
			c-1.914,0.707-3.797,1.539-5.497,2.604c-0.843,0.533-1.644,1.137-2.27,1.828c-0.634,0.699-1.022,1.445-0.974,2.156
			c0.027,0.592,0.461,1.33,1.117,1.93c0.653,0.615,1.47,1.137,2.326,1.592c1.725,0.91,3.625,1.564,5.543,2.141
			c3.851,1.139,7.854,1.816,11.859,2.381c4.01,0.568,8.056,0.893,12.106,1.131c4.052,0.232,8.106,0.35,12.175,0.344
			c4.053,0.008,8.116-0.107,12.166-0.338c4.052-0.229,8.098-0.563,12.11-1.125c4.007-0.557,8.01-1.242,11.861-2.381
			c1.919-0.57,3.818-1.229,5.545-2.141c0.854-0.455,1.673-0.977,2.328-1.592c0.657-0.627,1.095-1.285,1.121-1.998
			c0.05-0.598-0.342-1.432-0.977-2.107c-0.625-0.691-1.428-1.295-2.271-1.83c-1.701-1.063-3.583-1.896-5.5-2.6
			c-3.85-1.389-7.852-2.387-11.885-3.131C343.168,822.353,334.952,821.706,326.749,821.706z"/>
	</g>
	
		<linearGradient id="SVGID_3_" gradientUnits="userSpaceOnUse" x1="395.8779" y1="771.6738" x2="295.0483" y2="771.6738" gradientTransform="matrix(0.9989 0.0463 -0.0463 0.9989 17.4394 -17.0765)">
		<stop  offset="0" style="stop-color:#F8BC7F"/>
		<stop  offset="1" style="stop-color:#F18A24"/>
	</linearGradient>
	<path fill="url(#SVGID_3_)" d="M277.654,762.671c-0.723-2.236-1.969-5.045,1.429-7.09c1.715-1.031,2.234-0.723,4.796-2.529
		c2.56-1.809,14.854-11.695,30.546-11.793c15.691-0.1,20.521,2.6,22.008,0.193c1.488-2.408,7.297-24.053,13.159-28.564
		c3.709-2.855,5.506-0.02,5.64,3.014c0.135,3.035,1.426,10.801,0.839,11.598c-0.586,0.801,0.071,4.408,0.257,6.344
		s-0.179,3.844,0.032,5.229c0.21,1.387-0.867,6.842,0.493,7.18c1.359,0.338,9.822,1.83,11.593,5.215
		c3.231,1.527,3.964,3.488,4.464,4.611c2.671,1.775,2.047,3.398,2.756,5.908c0.707,2.51,0.844,5.543,0.489,7.178
		c-0.349,1.635,1.185,4.182,0.795,6.643c-0.39,2.459,0.021,5.506-0.878,7.115c-0.902,1.609-1.79,2.943-2.466,5.666
		c-0.68,2.719-2.914,3.441-3.812,5.051c-0.902,1.609-3.499,4.242-7.134,5.449c-3.633,1.207-9.217,2.875-9.017,4.535
		c0.197,1.662-3.123,13.893-4.073,16.6c-0.95,2.709-1.531,9.287-3.19,9.484c-3.054,0.365-8.029,1.006-11.08-22.254
		c-1.207-3.635-4.776-3.801-9.445-4.016c-4.668-0.219-21.096-2.08-28.16-4.059c-7.065-1.977-20.632-18.02-19.611-28.154
		c-2.709-0.953-1.381-5.844-0.531-6.355C278.4,764.358,277.654,762.671,277.654,762.671z"/>
</g>
<g>
	<g>
		<polygon fill="#471F0D" points="539.638,195.017 632.236,141.556 724.833,195.017 724.833,301.941 632.236,355.402 
			539.638,301.941 		"/>
		<path fill="#DFB191" d="M632.236,147.33l87.597,50.574v101.15l-87.597,50.574l-87.599-50.574v-101.15L632.236,147.33
			 M632.236,141.556l-92.599,53.461v106.924l92.599,53.461l92.597-53.461V195.017L632.236,141.556L632.236,141.556z"/>
	</g>
	<path fill="#84C6D0" d="M632.24,297.091c4.401,0.002,8.804,0.164,13.199,0.635c2.196,0.246,4.398,0.541,6.579,1.094
		c1.088,0.283,2.182,0.596,3.256,1.096c0.536,0.254,1.072,0.551,1.586,0.984c0.488,0.445,1.061,1.033,1.104,2.105l0.001,0.104
		l-0.001,0.055l-0.009,0.104c-0.014,0.146-0.039,0.266-0.064,0.369c-0.055,0.217-0.135,0.42-0.229,0.602
		c-0.189,0.365-0.425,0.658-0.667,0.912c-0.488,0.502-1.011,0.867-1.535,1.188c-1.053,0.633-2.128,1.096-3.215,1.49
		c-2.178,0.77-4.38,1.322-6.599,1.746c-4.438,0.83-8.925,1.174-13.406,1.184c-4.479-0.008-8.967-0.346-13.406-1.176
		c-2.221-0.418-4.422-0.975-6.6-1.744c-1.089-0.391-2.164-0.857-3.218-1.49c-0.524-0.32-1.048-0.688-1.537-1.189
		c-0.243-0.254-0.479-0.549-0.669-0.914c-0.191-0.359-0.318-0.824-0.305-1.289c0.014-0.193,0.008-0.119,0.035-0.311
		c0.021-0.146,0.053-0.262,0.087-0.359c0.068-0.211,0.163-0.402,0.269-0.57c0.213-0.34,0.464-0.6,0.719-0.82
		c0.514-0.436,1.051-0.732,1.588-0.986c1.076-0.5,2.168-0.814,3.258-1.094c2.182-0.553,4.384-0.85,6.58-1.092
		C623.438,297.255,627.841,297.093,632.24,297.091z M632.24,297.091c-4.398,0.01-8.807,0.348-13.119,1.16
		c-2.152,0.412-4.283,0.957-6.315,1.684c-1.011,0.369-1.997,0.809-2.864,1.344c-0.432,0.268-0.83,0.568-1.119,0.887
		c-0.299,0.32-0.41,0.637-0.365,0.789c0.025,0.148,0.18,0.389,0.502,0.645c0.313,0.252,0.727,0.484,1.169,0.684
		c0.89,0.404,1.894,0.691,2.905,0.949c2.035,0.51,4.166,0.793,6.295,1.027c4.271,0.453,8.594,0.615,12.912,0.619
		c4.319-0.004,8.644-0.158,12.914-0.609c2.132-0.23,4.262-0.518,6.298-1.027c1.013-0.254,2.017-0.545,2.907-0.949
		c0.886-0.389,1.673-0.973,1.677-1.391c-0.002,0.102,0,0.023,0,0.043v-0.008l0.002-0.016c0.004-0.012,0.004-0.023,0.002-0.035
		c0.003-0.025,0-0.051-0.004-0.078c-0.006-0.055-0.024-0.119-0.055-0.189c-0.062-0.141-0.172-0.303-0.316-0.461
		c-0.29-0.318-0.689-0.619-1.12-0.887c-0.868-0.535-1.855-0.977-2.866-1.342c-2.033-0.727-4.164-1.271-6.316-1.68
		C641.048,297.439,636.64,297.101,632.24,297.091z"/>
	<path fill="#84C6D0" d="M632.242,295.433c3.793-0.008,7.587,0.094,11.378,0.295c3.789,0.205,7.579,0.49,11.351,0.984
		c3.771,0.492,7.542,1.084,11.247,2.102c1.85,0.52,3.694,1.104,5.473,1.98c0.887,0.443,1.762,0.953,2.566,1.662
		c0.397,0.357,0.781,0.77,1.09,1.281c0.311,0.518,0.533,1.115,0.547,1.832c0.018,0.613-0.174,1.305-0.463,1.826
		c-0.287,0.541-0.656,0.984-1.041,1.375c-0.779,0.777-1.642,1.355-2.516,1.865c-1.757,1.006-3.585,1.742-5.432,2.371
		c-3.703,1.232-7.474,2.094-11.269,2.746c-7.595,1.275-15.265,1.838-22.938,1.836c-7.66,0.002-15.34-0.549-22.933-1.828
		c-3.796-0.645-7.565-1.514-11.269-2.744c-1.85-0.627-3.678-1.365-5.436-2.371c-0.873-0.512-1.736-1.092-2.516-1.869
		c-0.387-0.391-0.756-0.836-1.043-1.379c-0.289-0.545-0.482-1.164-0.463-1.883c0.015-0.617,0.239-1.289,0.55-1.783
		c0.31-0.516,0.694-0.926,1.093-1.283c0.805-0.711,1.682-1.221,2.568-1.664c1.779-0.875,3.625-1.461,5.476-1.977
		c3.706-1.018,7.478-1.609,11.249-2.1c3.771-0.492,7.562-0.779,11.351-0.98C624.654,295.527,628.449,295.425,632.242,295.433z
		 M632.242,295.433c-7.586,0-15.182,0.555-22.649,1.814c-3.728,0.639-7.427,1.492-10.984,2.682
		c-1.771,0.604-3.511,1.316-5.082,2.227c-0.779,0.457-1.52,0.973-2.099,1.564c-0.585,0.6-0.945,1.238-0.9,1.846
		c0.025,0.506,0.427,1.139,1.034,1.652c0.604,0.525,1.358,0.973,2.149,1.361c1.594,0.779,3.352,1.34,5.123,1.832
		c3.561,0.975,7.26,1.555,10.963,2.039c3.707,0.484,7.448,0.762,11.191,0.967c3.746,0.197,7.494,0.299,11.254,0.293
		c3.748,0.008,7.505-0.09,11.249-0.289c3.744-0.195,7.484-0.48,11.192-0.963c3.704-0.477,7.404-1.063,10.966-2.035
		c1.773-0.49,3.529-1.053,5.125-1.832c0.791-0.391,1.547-0.838,2.151-1.363c0.608-0.537,1.013-1.1,1.038-1.711
		c0.045-0.512-0.316-1.225-0.902-1.803c-0.579-0.592-1.32-1.107-2.1-1.564c-1.572-0.91-3.313-1.625-5.084-2.227
		c-3.559-1.188-7.258-2.043-10.986-2.678C647.423,295.986,639.827,295.433,632.242,295.433z"/>
	
		<linearGradient id="SVGID_4_" gradientUnits="userSpaceOnUse" x1="614.7148" y1="266.8843" x2="614.7148" y2="186.8823" gradientTransform="matrix(0.9963 0.0855 -0.0855 0.9963 33.4829 -30.1233)">
		<stop  offset="0" style="stop-color:#F8BC7F"/>
		<stop  offset="1" style="stop-color:#F18A24"/>
	</linearGradient>
	<path fill="url(#SVGID_4_)" d="M553.643,249.615c0.674-1.563,2.43-1.05,3.293-0.617c1.297-0.429,1.834-0.383,2.547-0.321
		c0.793-0.831,1.032-1.531,2.283-1.424c1.373-1.323,5.666-3.114,8.025-5.432c2.357-2.317,2.953-7.128,5.938-10.471
		c2.988-3.345,7.895-5.983,9.609-7.097c2.467-3.57,4.68-7.339,8.229-8.834c0.102,0.907,0.115,1.81,0.115,1.81
		s2.094-3.421,5.191-3.876c0.109,0.82-0.184,2.145-0.184,2.145s2.777-3,5.586-3.211c-0.361,1.049-0.51,1.758-0.51,1.758
		s3.067-3.246,6.479-3.135c-0.613,0.847-0.675,1.563-0.675,1.563s3.463-2.584,6.383-3.054c0.489,0.582-0.481,1.399-0.481,1.399
		s3.402-1.867,6.648-1.951c-0.434,0.863-0.434,0.863-0.434,0.863s3.338-1.152,5.678-1.133c-0.241,0.699-0.303,1.414-0.303,1.414
		s4.443-1.418,6.572-1.057c-0.226,0.52-1.165,0.98-1.165,0.98s5.408-0.077,7.535,0.285c-0.806,1.012-0.806,1.012-0.806,1.012
		s5.941-0.029,7.862,0.675c-1.328,0.786-1.328,0.786-1.328,0.786l3.426-0.066l-0.285,1.235c11.187-0.3,21.631,3.837,27.941,5.818
		c4.328,1.357,7.476,3.631,9.547,6.305c2.913-1.197,5.4,0.606,7.826,3.104c2.482,2.554,4.258,7.025,6.225,7.193
		c-3.473,0.604-6.623-2.548-7.884-4.635c-0.864-1.432-3.013-2.722-4.637-3.245c0.246,0.481,0.465,0.97,0.649,1.462
		c1.394,3.697,0.987,9.526-2.148,16.243c-0.008,0.611-0.186,1.19-0.55,1.676c-0.1,0.134-0.428,0.522-0.867,1.073
		c-0.09,0.161-0.173,0.318-0.265,0.48c-0.567,0.986-1.238,1.91-1.981,2.779c0.047,2.276,0.221,5.177,0.763,6.678
		c0.974,2.695,2.986,2.667,3.557,7.74c0.568,5.072,3.122,8.105,4.07,8.79c0.944,0.685,1.154,2.913,1.154,2.913
		s1.322,3.329,0.325,3.244c-0.997-0.086-1.491-1.334-1.491-1.334s-1.129,6.134-4.539,6.041c-0.895-1.282-0.267-6.252-0.912-8.116
		c-0.643-1.865-2.49-8.454-3.636-9.156c-0.298-0.182-1.313-0.655-2.669-1.345c-0.316,1.208-0.738,2.334-1.316,3.28
		c-2.104,3.455-6.679,12.261-6.625,13.975c0.055,1.718-1.433,2.659-1.922,1.333c-3.394,2.061-5.879,2.918-7.8,1.898
		c-1.924-1.021,1.507-3.508,4.265-7.547c2.759-4.043,2.688-7.897,2.506-10.48c-0.133-1.902-2.523-4.118-3.405-7.598
		c-0.335,0.097-0.645,0.184-0.93,0.258c-4.373,1.164-12.827,3.664-18.003,4.217c-6.412,0.686-15.755-0.611-19.795-1.314
		c-0.788,2.72-2.144,7.553-2.269,9.011c-0.177,2.065-0.236,7.169,0.06,8.139c0.296,0.972,0.526,2.692-0.226,2.628
		s-1.111-0.281-1.111-0.281s-0.021,2.457-5.72,2.724c0.398-2.425,1.798-5.521,1.846-6.083c0.048-0.564,0.442-7.342,0.442-7.342
		s-0.381-4.441-0.659-6.193c-0.053,0.033-0.103,0.067-0.153,0.096c-3.635,2.055-10.154,5.866-10.758,6.543
		c-0.605,0.677-5.361,5.186-5.801,6.059c-0.439,0.874-0.973,2.829-1.467,2.242c-0.498-0.59-0.498-0.59-0.498-0.59
		s-2.324,1.622-3.62,1.875c-1.295,0.252-3.63-0.131-3.568-0.854c0.062-0.721,1.575-3.506,2.557-4.334
		c0.981-0.826,4.003-4.209,4.821-5.23c0.816-1.023,4.354-6.182,5.334-7.01c0.603-0.506,1.465-1.673,2.121-2.916
		c-1.27,0.003-2.234,0.063-2.71,0.201c-2.398,0.693-14.622-1.614-16.349-2.482c-1.725-0.869-12.404-0.165-14.816-1.451
		c-2.407-1.287-8.101,0.025-9.545,0.082c-1.446,0.055-3.04-0.261-2.053-1.257c-1.104,0.266-4.723,0.495-4.723,0.495
		C555.898,258.99,552.967,251.178,553.643,249.615z"/>
</g>
<g>
	<g>
		<polygon fill="#471F0D" points="0,53.461 92.598,0 185.195,53.461 185.195,160.385 92.598,213.846 0,160.385 		"/>
		<path fill="#DFB191" d="M92.598,5.773l87.598,50.574v101.15l-87.598,50.574L5,157.498V56.348L92.598,5.773 M92.598,0L0,53.461
			v106.924l92.598,53.461l92.598-53.461V53.461L92.598,0L92.598,0z"/>
	</g>
	<path fill="#84C6D0" d="M92.604,155.535c4.4,0.002,8.803,0.164,13.199,0.635c2.195,0.246,4.398,0.541,6.578,1.094
		c1.088,0.283,2.182,0.596,3.256,1.096c0.537,0.254,1.072,0.551,1.586,0.984c0.488,0.445,1.061,1.033,1.105,2.105v0.104v0.055
		l-0.01,0.104c-0.014,0.146-0.039,0.266-0.064,0.369c-0.055,0.217-0.135,0.42-0.229,0.602c-0.189,0.365-0.426,0.658-0.668,0.912
		c-0.488,0.502-1.01,0.867-1.535,1.188c-1.053,0.633-2.127,1.096-3.215,1.49c-2.178,0.77-4.379,1.322-6.598,1.746
		c-4.439,0.83-8.926,1.174-13.406,1.184c-4.48-0.008-8.967-0.346-13.406-1.176c-2.221-0.418-4.424-0.975-6.602-1.744
		c-1.088-0.391-2.162-0.857-3.217-1.49c-0.525-0.32-1.047-0.688-1.537-1.189c-0.242-0.254-0.479-0.549-0.668-0.914
		c-0.193-0.359-0.32-0.824-0.305-1.289c0.014-0.193,0.006-0.119,0.033-0.311c0.023-0.146,0.055-0.262,0.088-0.359
		c0.068-0.211,0.162-0.402,0.268-0.57c0.213-0.34,0.465-0.6,0.721-0.82c0.514-0.436,1.051-0.732,1.588-0.986
		c1.074-0.5,2.168-0.814,3.258-1.094c2.18-0.553,4.383-0.85,6.58-1.092C83.801,155.699,88.203,155.537,92.604,155.535z
		 M92.604,155.535c-4.398,0.01-8.807,0.348-13.121,1.16c-2.152,0.412-4.283,0.957-6.314,1.684c-1.01,0.369-1.996,0.809-2.865,1.344
		c-0.43,0.268-0.828,0.568-1.117,0.887c-0.299,0.32-0.41,0.637-0.367,0.789c0.027,0.148,0.182,0.389,0.502,0.645
		c0.314,0.252,0.727,0.484,1.17,0.684c0.889,0.404,1.895,0.691,2.906,0.949c2.035,0.51,4.164,0.793,6.295,1.027
		c4.27,0.453,8.594,0.615,12.912,0.619c4.318-0.004,8.643-0.158,12.914-0.609c2.131-0.23,4.262-0.518,6.297-1.027
		c1.014-0.254,2.018-0.545,2.908-0.949c0.885-0.389,1.672-0.973,1.676-1.391c-0.002,0.102,0,0.023,0,0.043v-0.008l0.002-0.016
		c0.004-0.012,0.004-0.023,0.002-0.035c0.004-0.025,0-0.051-0.004-0.078c-0.006-0.055-0.023-0.119-0.055-0.189
		c-0.061-0.141-0.172-0.303-0.316-0.461c-0.289-0.318-0.689-0.619-1.119-0.887c-0.869-0.535-1.855-0.977-2.867-1.342
		c-2.033-0.727-4.164-1.271-6.316-1.68C101.41,155.883,97.002,155.545,92.604,155.535z"/>
	<path fill="#84C6D0" d="M92.605,153.877c3.793-0.008,7.586,0.094,11.377,0.295c3.789,0.205,7.58,0.49,11.352,0.984
		c3.77,0.492,7.541,1.084,11.246,2.102c1.85,0.52,3.695,1.104,5.473,1.98c0.887,0.443,1.762,0.953,2.566,1.662
		c0.398,0.357,0.781,0.77,1.09,1.281c0.311,0.518,0.533,1.115,0.547,1.832c0.018,0.613-0.174,1.305-0.463,1.826
		c-0.287,0.541-0.656,0.984-1.041,1.375c-0.779,0.777-1.641,1.355-2.516,1.865c-1.756,1.006-3.584,1.742-5.432,2.371
		c-3.703,1.232-7.473,2.094-11.268,2.746c-7.596,1.275-15.266,1.838-22.938,1.836c-7.662,0.002-15.34-0.549-22.934-1.828
		c-3.795-0.645-7.566-1.514-11.27-2.744c-1.848-0.627-3.676-1.365-5.434-2.371c-0.875-0.512-1.736-1.092-2.518-1.869
		c-0.387-0.391-0.755-0.836-1.043-1.379c-0.289-0.545-0.48-1.164-0.463-1.883c0.016-0.617,0.24-1.289,0.551-1.783
		c0.311-0.516,0.694-0.926,1.094-1.283c0.805-0.711,1.681-1.221,2.568-1.664c1.779-0.875,3.625-1.461,5.475-1.977
		c3.705-1.018,7.479-1.609,11.248-2.1c3.771-0.492,7.563-0.779,11.352-0.98C85.018,153.971,88.811,153.869,92.605,153.877z
		 M92.605,153.877c-7.586,0-15.182,0.555-22.65,1.814c-3.729,0.639-7.426,1.492-10.984,2.682c-1.77,0.604-3.51,1.316-5.082,2.227
		c-0.779,0.457-1.52,0.973-2.099,1.564c-0.585,0.6-0.944,1.238-0.899,1.846c0.024,0.506,0.426,1.139,1.033,1.652
		c0.604,0.525,1.357,0.973,2.149,1.361c1.595,0.779,3.351,1.34,5.124,1.832c3.559,0.975,7.26,1.555,10.963,2.039
		c3.707,0.484,7.447,0.762,11.191,0.967c3.746,0.197,7.494,0.299,11.254,0.293c3.748,0.008,7.504-0.09,11.248-0.289
		c3.744-0.195,7.484-0.48,11.193-0.963c3.703-0.477,7.404-1.063,10.965-2.035c1.773-0.49,3.529-1.053,5.125-1.832
		c0.791-0.391,1.547-0.838,2.152-1.363c0.607-0.537,1.012-1.1,1.037-1.711c0.045-0.512-0.316-1.225-0.902-1.803
		c-0.578-0.592-1.32-1.107-2.1-1.564c-1.572-0.91-3.313-1.625-5.084-2.227c-3.559-1.188-7.258-2.043-10.986-2.678
		C107.785,154.43,100.189,153.877,92.605,153.877z"/>
	
		<linearGradient id="SVGID_5_" gradientUnits="userSpaceOnUse" x1="612.666" y1="133.4541" x2="759.6074" y2="133.4541" gradientTransform="matrix(-0.9934 -0.115 -0.115 0.9934 789.5571 45.1971)">
		<stop  offset="0" style="stop-color:#F8BC7F"/>
		<stop  offset="1" style="stop-color:#F18A24"/>
	</linearGradient>
	<path fill="url(#SVGID_5_)" d="M19.688,89.819c0.503-3.093,7.681-3.892,7.681-3.892s1.915-3.014,6.522-1.055
		c5.941-0.432,13.396,0.525,21.246,2.207c0.046-0.044,0.088-0.08,0.134-0.126c1.615-1.46,4.074-3.337,7.146-5.274
		c3.074-1.945,6.758-3.956,10.727-5.834c3.969-1.881,8.217-3.631,12.387-5.174c8.336-3.107,17.484-5.588,24.545-7.153
		c7.061-1.577,12.02-2.336,12.037-2.229c0.027,0.128-4.869,1.188-11.852,3.001c-6.98,1.805-16.027,4.453-24.303,7.537
		c-4.141,1.529-8.352,3.283-12.281,5.146c-3.93,1.859-7.578,3.832-10.641,5.699c-2.854,1.732-5.189,3.369-6.869,4.631
		c0.047,0.01,0.094,0.023,0.139,0.031c1.375-0.961,3-2,4.846-3.057c3.145-1.811,6.9-3.668,10.936-5.387
		c4.033-1.717,8.346-3.301,12.568-4.674c8.445-2.77,17.674-4.91,24.781-6.225c7.109-1.321,12.088-1.924,12.098-1.848
		c0.018,0.104-4.924,0.931-11.98,2.432c-7.057,1.496-16.213,3.762-24.613,6.521c-4.201,1.365-8.482,2.95-12.488,4.659
		c-4.006,1.701-7.734,3.535-10.871,5.285c-1.57,0.876-2.992,1.73-4.24,2.524c0.012,0.006,0.023,0.007,0.035,0.009
		c0.303-0.17,0.609-0.34,0.926-0.51c3.184-1.736,6.982-3.504,11.053-5.127s8.414-3.107,12.668-4.381
		c8.502-2.574,17.771-4.506,24.904-5.672c7.135-1.174,12.121-1.678,12.129-1.614c0.014,0.088-4.949,0.778-12.043,2.104
		c-7.092,1.314-16.305,3.357-24.77,5.919c-4.234,1.272-8.555,2.753-12.6,4.371c-4.049,1.608-7.82,3.356-10.996,5.04
		c-0.072,0.039-0.141,0.078-0.211,0.115c0.381,0.089,0.762,0.178,1.143,0.273c1.018-0.555,2.137-1.123,3.359-1.697
		c2.977-1.396,6.508-2.789,10.279-4.036c3.771-1.251,7.781-2.354,11.697-3.276c7.834-1.867,16.324-3.111,22.84-3.771
		c6.52-0.666,11.059-0.84,11.063-0.773c0.006,0.082-4.518,0.451-11.004,1.27c-6.486,0.814-14.928,2.166-22.721,4.026
		c-3.898,0.919-7.885,2.026-11.633,3.269c-3.746,1.234-7.25,2.61-10.215,3.96c-0.951,0.429-1.838,0.858-2.67,1.274
		c0.48,0.121,0.961,0.241,1.445,0.365c2.457-0.901,5.168-1.771,8.006-2.568c3.811-1.068,7.844-2.005,11.775-2.781
		c7.861-1.568,16.346-2.569,22.848-3.072c6.506-0.509,11.029-0.604,11.031-0.539c0.006,0.082-4.506,0.372-10.984,1.033
		c-6.479,0.659-14.92,1.771-22.746,3.334c-3.912,0.773-7.926,1.715-11.713,2.777c-2.422,0.678-4.748,1.409-6.904,2.154
		c0.602,0.159,1.203,0.322,1.807,0.484c1.166-0.313,2.363-0.615,3.588-0.901c3.771-0.885,7.76-1.636,11.639-2.241
		c7.758-1.223,16.102-1.879,22.488-2.135c6.387-0.264,10.818-0.195,10.82-0.131c0,0.084-4.428,0.211-10.795,0.627
		c-6.367,0.41-14.672,1.182-22.396,2.402c-3.861,0.602-7.828,1.355-11.58,2.237c-0.766,0.182-1.52,0.366-2.264,0.553
		c0.449,0.128,0.898,0.256,1.342,0.382c3.25-0.42,6.602-0.775,9.867-1.049c7.652-0.664,15.832-0.922,22.084-0.945
		c6.256-0.025,10.588,0.131,10.588,0.203c-0.002,0.077-4.334,0.111-10.578,0.293C93.699,89,85.545,89.379,77.916,90.039
		c-2.658,0.223-5.369,0.505-8.037,0.826c1.186,0.35,2.367,0.707,3.537,1.066c0.936-0.04,1.869-0.076,2.795-0.104
		c7.406-0.247,15.299-0.072,21.324,0.227c6.029,0.299,10.195,0.678,10.191,0.748c-0.006,0.082-4.184-0.106-10.207-0.251
		c-6.027-0.146-13.9-0.198-21.285,0.05c-0.205,0.004-0.41,0.012-0.615,0.018c0.646,0.203,1.291,0.411,1.928,0.617
		c12.938,0.752,27.059,2.383,27.043,2.528c-0.014,0.133-12.141-0.864-24.191-1.591c1.65,0.55,3.256,1.098,4.811,1.645
		c8.957,1.05,16.506,2.183,16.49,2.292c-0.014,0.099-6.08-0.55-13.775-1.333c10.598,3.795,18.145,7.018,18.145,7.018
		s0.018,0.011,0.043,0.024c0.605-0.254,1.209-0.507,1.809-0.749c6.818-2.814,14.775-5.279,14.822-5.137s-7.742,3.049-14.531,5.848
		c-0.391,0.16-0.783,0.322-1.178,0.488c0.322,0.155,0.719,0.35,1.182,0.576c0.545-0.204,1.088-0.402,1.627-0.595
		c6.928-2.529,14.98-4.665,15.021-4.526c0.043,0.146-7.861,2.732-14.76,5.248c-0.307,0.113-0.617,0.227-0.926,0.338
		c0.512,0.251,1.078,0.524,1.684,0.814c6.91-2.139,14.66-3.82,14.691-3.68c0.035,0.136-7.018,2.105-13.676,4.166
		c0.23,0.112,0.463,0.221,0.699,0.335c6.734-1.133,13.674-1.765,13.688-1.632c0.016,0.133-6.16,1.075-12.508,2.197
		c1.045,0.494,2.15,1.016,3.289,1.55c5.459-0.352,10.176-0.388,10.178-0.274c0.004,0.104-4.018,0.421-8.928,0.855
		c0.725,0.34,1.459,0.68,2.193,1.016c3.375-0.133,5.793-0.126,5.795-0.047c0.004,0.072-1.959,0.248-4.813,0.498
		c2.012,0.92,4.008,1.81,5.842,2.593c2.449,1.339,8.213,2.027,9.748,2.681c1.537,0.65,23.738-8.665,27.42-9.084
		c3.682-0.421-2.945,4.629-8.205,7.785c-5.26,3.161-8.963,6.166-7.721,9.072c1.242,2.902,13.514,23.229,11.998,23.563
		c-1.516,0.338-21.635-22.215-23.381-23.813c-1.465-1.343-17.555-1.246-36.135-2.528c1.684,0.509,3.301,0.96,4.713,1.338
		c2.949,0.781,5.014,1.265,4.998,1.341c-0.014,0.07-2.117-0.223-5.113-0.855c-2.283-0.486-5.082-1.189-7.855-2.06
		c-1.023-0.078-2.055-0.162-3.088-0.249c0.471,0.211,0.941,0.422,1.41,0.619c3.428,1.477,7.176,2.825,10.072,3.781
		c2.895,0.963,4.926,1.571,4.904,1.649c-0.016,0.068-2.096-0.354-5.049-1.17s-6.77-2.062-10.23-3.554
		c-1.117-0.475-2.242-0.988-3.342-1.528c-0.785-0.071-1.57-0.146-2.357-0.225c-0.285-0.03-0.57-0.063-0.859-0.097
		c2.344,1.418,5.225,2.902,8.059,4.104c3.428,1.479,7.176,2.827,10.072,3.784c2.896,0.964,4.926,1.572,4.908,1.646
		c-0.02,0.071-2.102-0.353-5.053-1.17c-2.953-0.814-6.77-2.061-10.23-3.551c-3.432-1.458-6.975-3.293-9.502-5.045
		c-0.121-0.018-0.24-0.036-0.359-0.055c2.25,1.999,5.4,4.313,8.537,6.224c3.178,1.956,6.689,3.835,9.416,5.205
		c2.725,1.372,4.646,2.269,4.615,2.341c-0.027,0.064-2.025-0.654-4.828-1.891c-2.803-1.234-6.396-3.021-9.607-4.998
		c-3.215-1.961-6.488-4.32-8.74-6.438c-0.236-0.22-0.457-0.436-0.672-0.648c-0.385-0.064-0.77-0.133-1.158-0.208
		c0.533,0.701,1.26,1.612,2.164,2.634c1.996,2.276,4.895,5.006,7.826,7.316c2.916,2.326,6.178,4.615,8.719,6.303
		c2.541,1.69,4.34,2.811,4.301,2.881c-0.037,0.061-1.934-0.895-4.566-2.459c-2.633-1.565-5.986-3.771-8.934-6.119
		c-2.957-2.335-5.922-5.072-7.9-7.443c-0.994-1.179-1.748-2.254-2.207-3.06c-0.039-0.065-0.07-0.127-0.105-0.188
		c-22.389-4.408-51.593-19.893-53.824-20.121c-2.441-0.255-6.251-3.976-6.251-3.976S19.184,92.912,19.688,89.819z"/>
</g>
<g>
	<g>
		<polygon fill="#471F0D" points="132.309,546.644 224.906,493.183 317.504,546.644 317.504,653.567 224.906,707.028 
			132.309,653.567 		"/>
		<path fill="#DFB191" d="M224.906,498.956l87.598,50.574v101.15l-87.598,50.574l-87.598-50.574V549.53L224.906,498.956
			 M224.906,493.183l-92.598,53.461v106.924l92.598,53.461l92.598-53.461V546.644L224.906,493.183L224.906,493.183z"/>
	</g>
	<path fill="#84C6D0" d="M224.912,648.718c4.4,0.002,8.803,0.164,13.198,0.635c2.196,0.246,4.398,0.541,6.579,1.094
		c1.088,0.283,2.182,0.596,3.256,1.096c0.536,0.254,1.072,0.551,1.586,0.984c0.488,0.445,1.061,1.033,1.104,2.105l0.001,0.104
		l-0.001,0.055l-0.009,0.104c-0.014,0.146-0.039,0.266-0.064,0.369c-0.055,0.217-0.135,0.42-0.229,0.602
		c-0.189,0.365-0.425,0.658-0.667,0.912c-0.488,0.502-1.011,0.867-1.535,1.188c-1.053,0.633-2.128,1.096-3.215,1.49
		c-2.178,0.77-4.38,1.322-6.599,1.746c-4.438,0.83-8.925,1.174-13.405,1.184c-4.48-0.008-8.968-0.346-13.407-1.176
		c-2.22-0.418-4.423-0.975-6.601-1.744c-1.088-0.391-2.163-0.857-3.217-1.49c-0.525-0.32-1.047-0.688-1.537-1.189
		c-0.242-0.254-0.479-0.549-0.669-0.914c-0.192-0.359-0.319-0.824-0.305-1.289c0.015-0.193,0.007-0.119,0.034-0.311
		c0.022-0.146,0.055-0.262,0.088-0.359c0.068-0.211,0.162-0.402,0.268-0.57c0.213-0.34,0.465-0.6,0.72-0.82
		c0.515-0.436,1.051-0.732,1.589-0.986c1.074-0.5,2.168-0.814,3.258-1.094c2.18-0.553,4.383-0.85,6.58-1.092
		C216.109,648.882,220.512,648.72,224.912,648.718z M224.912,648.718c-4.398,0.01-8.808,0.348-13.121,1.16
		c-2.152,0.412-4.283,0.957-6.314,1.684c-1.011,0.369-1.997,0.809-2.865,1.344c-0.43,0.268-0.828,0.568-1.117,0.887
		c-0.299,0.32-0.41,0.637-0.367,0.789c0.027,0.148,0.181,0.389,0.502,0.645c0.314,0.252,0.727,0.484,1.17,0.684
		c0.889,0.404,1.894,0.691,2.905,0.949c2.035,0.51,4.165,0.793,6.296,1.027c4.27,0.453,8.593,0.615,12.912,0.619
		c4.318-0.004,8.643-0.158,12.913-0.609c2.132-0.23,4.262-0.518,6.298-1.027c1.013-0.254,2.017-0.545,2.907-0.949
		c0.886-0.389,1.673-0.973,1.677-1.391c-0.002,0.102,0,0.023,0,0.043v-0.008l0.002-0.016c0.004-0.012,0.004-0.023,0.002-0.035
		c0.003-0.025,0-0.051-0.004-0.078c-0.006-0.055-0.024-0.119-0.055-0.189c-0.062-0.141-0.172-0.303-0.316-0.461
		c-0.29-0.318-0.689-0.619-1.12-0.887c-0.868-0.535-1.855-0.977-2.866-1.342c-2.033-0.727-4.164-1.271-6.316-1.68
		C233.719,649.065,229.311,648.728,224.912,648.718z"/>
	<path fill="#84C6D0" d="M224.913,647.06c3.794-0.008,7.587,0.094,11.378,0.295c3.789,0.205,7.579,0.49,11.351,0.984
		c3.771,0.492,7.542,1.084,11.247,2.102c1.85,0.52,3.694,1.104,5.473,1.98c0.887,0.443,1.762,0.953,2.566,1.662
		c0.397,0.357,0.781,0.77,1.09,1.281c0.311,0.518,0.533,1.115,0.547,1.832c0.018,0.613-0.174,1.305-0.463,1.826
		c-0.287,0.541-0.656,0.984-1.041,1.375c-0.779,0.777-1.642,1.355-2.516,1.865c-1.757,1.006-3.585,1.742-5.432,2.371
		c-3.703,1.232-7.474,2.094-11.269,2.746c-7.595,1.275-15.265,1.838-22.937,1.836c-7.662,0.002-15.34-0.549-22.934-1.828
		c-3.796-0.645-7.566-1.514-11.27-2.744c-1.849-0.627-3.676-1.365-5.434-2.371c-0.875-0.512-1.736-1.092-2.518-1.869
		c-0.387-0.391-0.755-0.836-1.043-1.379c-0.289-0.545-0.48-1.164-0.463-1.883c0.016-0.617,0.24-1.289,0.551-1.783
		c0.311-0.516,0.694-0.926,1.094-1.283c0.805-0.711,1.681-1.221,2.568-1.664c1.779-0.875,3.624-1.461,5.475-1.977
		c3.705-1.018,7.478-1.609,11.248-2.1c3.771-0.492,7.563-0.779,11.352-0.98C217.325,647.153,221.119,647.052,224.913,647.06z
		 M224.913,647.06c-7.585,0-15.181,0.555-22.649,1.814c-3.729,0.639-7.427,1.492-10.984,2.682c-1.771,0.604-3.51,1.316-5.082,2.227
		c-0.779,0.457-1.52,0.973-2.099,1.564c-0.585,0.6-0.944,1.238-0.899,1.846c0.024,0.506,0.426,1.139,1.033,1.652
		c0.604,0.525,1.357,0.973,2.149,1.361c1.594,0.779,3.351,1.34,5.123,1.832c3.56,0.975,7.261,1.555,10.963,2.039
		c3.708,0.484,7.448,0.762,11.192,0.967c3.746,0.197,7.494,0.299,11.254,0.293c3.747,0.008,7.504-0.09,11.248-0.289
		c3.744-0.195,7.484-0.48,11.192-0.963c3.704-0.477,7.404-1.063,10.966-2.035c1.773-0.49,3.529-1.053,5.125-1.832
		c0.791-0.391,1.547-0.838,2.151-1.363c0.608-0.537,1.013-1.1,1.038-1.711c0.045-0.512-0.316-1.225-0.902-1.803
		c-0.579-0.592-1.32-1.107-2.1-1.564c-1.572-0.91-3.313-1.625-5.084-2.227c-3.559-1.188-7.258-2.043-10.986-2.678
		C240.094,647.612,232.498,647.06,224.913,647.06z"/>
	
		<linearGradient id="SVGID_6_" gradientUnits="userSpaceOnUse" x1="66.436" y1="427.9189" x2="178.0073" y2="427.9189" gradientTransform="matrix(0.7071 -0.7071 0.7071 0.7071 -164.3268 378.2431)">
		<stop  offset="0" style="stop-color:#F8BC7F"/>
		<stop  offset="1" style="stop-color:#F18A24"/>
	</linearGradient>
	<path fill="url(#SVGID_6_)" d="M247.261,538.864c-1.98-1.203-8.247-4.135-12.769-3.788c-6.267,0.481-13.246,2.193-20.094,6.947
		c-9.372,6.513-2.857,15.741-3.229,16.233c-0.375,0.494-0.027,0.862,0.104,1.443c-0.851-0.602-7.331,1.888-8.052,2.014
		c-0.721,0.125-3.338-1.635-5.086-3.625c-1.74-1.982-4.667-2.889-4.667-2.889c0.011-0.432-1.021-2.254-2.509-2.943
		c-1.493-0.686-2.658-0.141-2.658-0.141c-0.283-0.152-3.193-0.73-4.965,0.947c-1.676,1.77-1.098,4.68-0.949,4.966
		c0,0-0.543,1.163,0.144,2.655s2.512,2.521,2.944,2.508c0,0,0.904,2.93,2.887,4.672c1.99,1.744,3.75,4.363,3.625,5.084
		s-2.615,7.201-2.014,8.051c-0.58-0.131-0.948-0.48-1.442-0.105c-0.492,0.373-9.722-6.143-16.233,3.23
		c-4.754,6.846-6.464,13.824-6.949,20.094c-0.346,4.52,2.586,10.787,3.79,12.768c1.204,1.984,2.401,3.82,3.236,2.789
		c0.835-1.025,0.282-5.754,0.86-8.289c0.58-2.531,2.004-3.143,2.633-3.662c0.636-0.521,1.86-3.139,2.272-3.867
		c0.41-0.734,2.699-3.885,3.119-4.328c0.42-0.439,3.189-4.541,3.668-5.486c0.476-0.949,1.369-2.482,2.033-1.852
		c0.664,0.633,2.114,3.826,2.114,3.826s1.089,5.938,2.351,10.072c1.259,4.141,3.126,6.748,3.648,7.527
		c0.524,0.779,2.922,4.447,3.824,6.01c0.906,1.559,2.633,1.652,3.158,2.432c0.523,0.777,5.902,5.74,7.183,5.418
		c1.288-0.322,1.003-0.316,2.237,0.301c1.24,0.615,5.984,3.293,7.42,3.111c1.43-0.182,2.137-0.633,2.137-0.633l1.28,0.863
		c-1.921,2.715-6.431,9.693-6.155,14.938c1.223,2.271,0.697,3.848,1.4,5.246c0.552,1.105,1.047,1.047,2.621,1.572
		c1.574,0.527,4.459,1.219,7.172-0.523c4.607-2.967,4.282-14.15,6.984-19.537c0.656,0.092,1.304,0.355,1.717-0.076
		c0.629-0.664,3.831-1.83,4.409-1.842c0.573-0.016,5.811-0.371,7.011-1.191c1.196-0.824,2.067-0.699,2.067-0.699
		s1.934-0.27,2.714-0.648c0.782-0.379,2.35-0.855,2.35-0.855s5.646,4.236,7.557,5.77c1.908,1.531,3.684,3.186,3.803,2.32
		c0.864-0.119-0.792-1.891-2.317-3.805c-1.534-1.91-5.771-7.555-5.771-7.555s0.476-1.568,0.854-2.35
		c0.38-0.781,0.647-2.713,0.647-2.713s-0.124-0.873,0.7-2.068c0.82-1.201,1.177-6.439,1.192-7.012
		c0.011-0.578,1.179-3.779,1.843-4.41c0.431-0.412,0.165-1.059,0.079-1.715c5.385-2.697,16.563-2.375,19.531-6.986
		c1.743-2.713,1.05-5.596,0.521-7.168c-0.524-1.574-0.466-2.068-1.571-2.621c-1.402-0.699-2.975-0.178-5.245-1.4
		c-5.245-0.275-12.218,4.23-14.933,6.15l-0.865-1.279c0,0,0.453-0.707,0.634-2.137c0.183-1.438-2.499-6.176-3.113-7.418
		c-0.615-1.236-0.621-0.951-0.301-2.238c0.322-1.281-4.643-6.656-5.418-7.184c-0.778-0.523-0.874-2.252-2.434-3.156
		c-1.559-0.904-5.228-3.303-6.008-3.824c-0.778-0.523-3.388-2.391-7.527-3.649c-4.136-1.26-10.073-2.351-10.073-2.351
		s-3.195-1.448-3.824-2.113c-0.631-0.666,0.901-1.559,1.852-2.035c0.945-0.479,5.047-3.248,5.484-3.666
		c0.445-0.422,3.596-2.709,4.328-3.119c0.729-0.414,3.35-1.641,3.867-2.272c0.523-0.633,1.133-2.055,3.664-2.636
		c2.534-0.577,7.264-0.025,8.289-0.861C251.081,541.265,249.246,540.065,247.261,538.864z"/>
</g>
<g>
	<g>
		<polygon fill="#471F0D" points="539.638,546.644 632.235,493.182 724.833,546.644 724.833,653.567 632.235,707.028 
			539.638,653.567 		"/>
		<path fill="#DFB191" d="M632.235,498.956l87.598,50.575v101.15l-87.598,50.574l-87.598-50.574V549.53L632.235,498.956
			 M632.235,493.182l-92.598,53.461v106.924l92.598,53.461l92.598-53.461V546.644L632.235,493.182L632.235,493.182z"/>
	</g>
	<path fill="#84C6D0" d="M675.102,547.188c-4.649,0-8.877,1.797-12.032,4.73c0.357-0.029,0.719-0.048,1.084-0.048
		c7.18,0,13,5.82,13,13.001c0,7.178-5.82,13-13,13c-0.365,0-0.727-0.02-1.085-0.049c3.156,2.934,7.384,4.73,12.033,4.73
		c9.766,0,17.683-7.916,17.683-17.682C692.784,555.105,684.867,547.188,675.102,547.188z"/>
	<g>
		<path fill="#84C6D0" d="M632.243,647.833c6.026,0.002,12.055,0.191,18.078,0.74c3.007,0.287,6.025,0.633,9.011,1.279
			c1.49,0.33,2.988,0.695,4.459,1.279c0.736,0.297,1.469,0.643,2.173,1.15c0.668,0.521,1.452,1.207,1.515,2.461v0.121v0.064
			l-0.014,0.119c-0.019,0.172-0.055,0.311-0.089,0.432c-0.075,0.254-0.184,0.492-0.313,0.703c-0.259,0.428-0.582,0.77-0.914,1.066
			c-0.669,0.586-1.383,1.014-2.104,1.387c-1.441,0.738-2.913,1.281-4.403,1.74c-2.982,0.9-5.998,1.547-9.036,2.041
			c-6.081,0.971-12.226,1.373-18.362,1.385c-6.136-0.01-12.281-0.404-18.363-1.375c-3.041-0.488-6.058-1.139-9.039-2.037
			c-1.492-0.457-2.963-1.002-4.408-1.742c-0.719-0.373-1.434-0.803-2.105-1.389c-0.332-0.297-0.655-0.643-0.914-1.07
			c-0.264-0.42-0.438-0.961-0.418-1.504c0.019-0.227,0.01-0.141,0.047-0.365c0.031-0.17,0.074-0.305,0.119-0.42
			c0.094-0.246,0.223-0.469,0.367-0.666c0.293-0.396,0.636-0.701,0.986-0.957c0.703-0.51,1.439-0.857,2.175-1.152
			c1.473-0.586,2.97-0.953,4.462-1.279c2.986-0.646,6.003-0.992,9.014-1.275C620.186,648.022,626.216,647.835,632.243,647.833z
			 M632.243,647.833c-6.024,0.01-12.063,0.406-17.971,1.355c-2.947,0.48-5.867,1.117-8.65,1.967c-1.383,0.43-2.733,0.945-3.923,1.57
			c-0.59,0.311-1.136,0.664-1.532,1.035c-0.408,0.373-0.561,0.744-0.5,0.922c0.035,0.174,0.246,0.455,0.687,0.754
			c0.429,0.293,0.995,0.566,1.602,0.799c1.218,0.473,2.595,0.809,3.98,1.107c2.787,0.596,5.705,0.928,8.622,1.203
			c5.848,0.529,11.77,0.717,17.686,0.723c5.914-0.004,11.836-0.186,17.688-0.711c2.919-0.27,5.838-0.607,8.625-1.201
			c1.389-0.297,2.765-0.637,3.983-1.109c1.212-0.455,2.29-1.139,2.296-1.625c-0.003,0.117,0,0.027,0,0.051v-0.01l0.003-0.02
			c0.005-0.012,0.005-0.025,0.002-0.041c0.006-0.029,0-0.059-0.005-0.09c-0.008-0.064-0.032-0.139-0.075-0.221
			c-0.083-0.166-0.234-0.355-0.433-0.539c-0.396-0.373-0.944-0.725-1.534-1.037c-1.19-0.625-2.541-1.141-3.926-1.568
			c-2.785-0.848-5.705-1.484-8.652-1.963C644.304,648.237,638.267,647.843,632.243,647.833z"/>
		<path fill="#84C6D0" d="M632.245,645.894c5.195-0.01,10.391,0.109,15.582,0.346c5.19,0.238,10.384,0.572,15.55,1.148
			c5.163,0.576,10.329,1.268,15.403,2.457c2.533,0.605,5.062,1.289,7.496,2.314c1.215,0.518,2.413,1.113,3.516,1.943
			c0.545,0.416,1.069,0.896,1.492,1.496c0.425,0.605,0.73,1.303,0.749,2.141c0.023,0.717-0.238,1.525-0.635,2.135
			c-0.393,0.633-0.898,1.15-1.425,1.605c-1.067,0.908-2.248,1.584-3.446,2.18c-2.405,1.176-4.908,2.037-7.439,2.771
			c-5.071,1.439-10.235,2.447-15.433,3.209c-10.405,1.49-20.91,2.148-31.418,2.146c-10.493,0.002-21.011-0.643-31.412-2.137
			c-5.197-0.754-10.361-1.77-15.434-3.207c-2.532-0.732-5.036-1.596-7.444-2.771c-1.197-0.598-2.377-1.275-3.446-2.184
			c-0.529-0.457-1.034-0.977-1.429-1.611c-0.396-0.637-0.659-1.361-0.635-2.201c0.021-0.721,0.328-1.506,0.754-2.084
			c0.426-0.602,0.952-1.08,1.498-1.5c1.103-0.828,2.303-1.424,3.518-1.943c2.438-1.021,4.966-1.707,7.499-2.309
			c5.076-1.189,10.243-1.883,15.408-2.455c5.164-0.576,10.355-0.91,15.546-1.146C621.853,646.003,627.049,645.884,632.245,645.894z
			 M632.245,645.894c-10.391,0-20.793,0.648-31.023,2.121c-5.105,0.746-10.171,1.744-15.045,3.133
			c-2.424,0.707-4.808,1.539-6.96,2.604c-1.068,0.533-2.082,1.137-2.874,1.828c-0.803,0.699-1.295,1.445-1.233,2.156
			c0.035,0.592,0.584,1.33,1.415,1.93c0.827,0.615,1.86,1.137,2.946,1.592c2.183,0.91,4.589,1.564,7.017,2.141
			c4.875,1.139,9.943,1.816,15.016,2.381c5.077,0.568,10.199,0.893,15.328,1.131c5.131,0.232,10.265,0.35,15.414,0.344
			c5.133,0.008,10.277-0.107,15.406-0.338c5.129-0.229,10.252-0.563,15.332-1.125c5.073-0.557,10.142-1.242,15.019-2.381
			c2.429-0.57,4.834-1.229,7.021-2.141c1.082-0.455,2.117-0.977,2.947-1.592c0.832-0.627,1.386-1.285,1.42-1.998
			c0.063-0.598-0.434-1.432-1.236-2.107c-0.792-0.691-1.808-1.295-2.875-1.83c-2.154-1.063-4.537-1.896-6.964-2.6
			c-4.874-1.389-9.94-2.387-15.048-3.131C653.036,646.54,642.632,645.894,632.245,645.894z"/>
	</g>
	<g>
		<polygon fill="none" points="719.833,549.53 632.235,498.956 544.638,549.53 544.638,602.968 544.928,602.872 563.928,587.302 
			579.928,573.128 597.927,564.872 634.927,581.872 639.827,589.034 647.927,588.302 647.927,592.196 646.831,599.271 
			647.927,600.872 643.927,622.06 632.927,607.886 616.927,613.022 616.927,622.06 622.927,627.872 636.927,627.872 
			629.927,646.622 639.927,657.55 652.927,669.872 660.845,684.737 719.833,650.681 		"/>
		<g>
			<linearGradient id="SVGID_7_" gradientUnits="userSpaceOnUse" x1="660.8447" y1="633.0635" x2="544.6377" y2="633.0635">
				<stop  offset="0" style="stop-color:#F8BC7F"/>
				<stop  offset="1" style="stop-color:#F18A24"/>
			</linearGradient>
			<polygon fill="url(#SVGID_7_)" points="639.927,657.55 629.927,646.622 636.927,627.872 622.927,627.872 616.927,622.06 
				616.927,613.022 632.927,607.886 643.927,622.06 647.927,600.872 646.831,599.271 647.927,592.196 647.927,588.302 
				639.827,589.034 634.927,581.872 597.927,564.872 579.928,573.128 563.928,587.302 544.928,602.872 544.638,602.968 
				544.638,650.681 632.235,701.255 660.845,684.737 652.927,669.872 			"/>
			<path fill="#471F0D" d="M597.927,565.972l36.331,16.693l4.744,6.934l0.331,0.484l0.584-0.053l7.01-0.635v2.723l-1.084,6.998
				l-0.061,0.393l0.224,0.326l0.861,1.26l-3.512,18.598l-9.639-12.42l-0.43-0.553l-0.666,0.213l-16,5.137l-0.694,0.223v0.73v9.037
				v0.424l0.304,0.293l6,5.813l0.291,0.283h0.405h12.56l-6.496,17.4l-0.215,0.572l0.414,0.451l10,10.928l0.023,0.027l0.026,0.023
				l12.882,12.211l7.387,13.869l-27.272,15.746l-86.598-49.996v-46.521l18.953-15.533l15.889-14.076L597.927,565.972
				 M597.927,564.872l-17.999,8.256l-16,14.174l-19,15.57l-0.29,0.096v47.713l87.598,50.574l28.609-16.518l-7.918-14.865l-13-12.322
				l-10-10.928l7-18.75h-14l-6-5.813v-9.037l16-5.137l11,14.174l4-21.188l-1.096-1.602l1.096-7.074v-3.895l-8.1,0.732l-4.9-7.162
				L597.927,564.872L597.927,564.872z"/>
		</g>
	</g>
</g>
<g>
	<g>
		<polygon fill="#471F0D" points="335.973,546.644 428.57,493.183 521.168,546.644 521.168,653.567 428.57,707.028 335.973,653.567 
					"/>
		<path fill="#DFB191" d="M428.57,498.956l87.598,50.574v101.15l-87.598,50.574l-87.597-50.574V549.53L428.57,498.956
			 M428.57,493.183l-92.597,53.461v106.924l92.597,53.461l92.598-53.461V546.644L428.57,493.183L428.57,493.183z"/>
	</g>
	<path fill="#84C6D0" d="M428.576,648.718c4.4,0.002,8.803,0.164,13.199,0.635c2.195,0.246,4.398,0.541,6.578,1.094
		c1.088,0.283,2.182,0.596,3.256,1.096c0.537,0.254,1.072,0.551,1.586,0.984c0.488,0.445,1.061,1.033,1.105,2.105v0.104v0.055
		l-0.01,0.104c-0.014,0.146-0.039,0.266-0.064,0.369c-0.055,0.217-0.135,0.42-0.229,0.602c-0.189,0.365-0.426,0.658-0.668,0.912
		c-0.488,0.502-1.01,0.867-1.535,1.188c-1.053,0.633-2.127,1.096-3.215,1.49c-2.178,0.77-4.379,1.322-6.598,1.746
		c-4.439,0.83-8.926,1.174-13.406,1.184c-4.48-0.008-8.967-0.346-13.406-1.176c-2.221-0.418-4.424-0.975-6.602-1.744
		c-1.088-0.391-2.162-0.857-3.217-1.49c-0.525-0.32-1.047-0.688-1.537-1.189c-0.242-0.254-0.479-0.549-0.668-0.914
		c-0.193-0.359-0.32-0.824-0.305-1.289c0.014-0.193,0.006-0.119,0.033-0.311c0.023-0.146,0.055-0.262,0.088-0.359
		c0.068-0.211,0.162-0.402,0.268-0.57c0.213-0.34,0.465-0.6,0.721-0.82c0.514-0.436,1.051-0.732,1.588-0.986
		c1.074-0.5,2.168-0.814,3.258-1.094c2.18-0.553,4.383-0.85,6.58-1.092C419.773,648.882,424.176,648.72,428.576,648.718z
		 M428.576,648.718c-4.398,0.01-8.807,0.348-13.121,1.16c-2.152,0.412-4.283,0.957-6.314,1.684c-1.01,0.369-1.996,0.809-2.865,1.344
		c-0.43,0.268-0.828,0.568-1.117,0.887c-0.299,0.32-0.41,0.637-0.367,0.789c0.027,0.148,0.182,0.389,0.502,0.645
		c0.314,0.252,0.727,0.484,1.17,0.684c0.889,0.404,1.895,0.691,2.906,0.949c2.035,0.51,4.164,0.793,6.295,1.027
		c4.27,0.453,8.594,0.615,12.912,0.619c4.318-0.004,8.643-0.158,12.914-0.609c2.131-0.23,4.262-0.518,6.297-1.027
		c1.014-0.254,2.018-0.545,2.908-0.949c0.885-0.389,1.672-0.973,1.676-1.391c-0.002,0.102,0,0.023,0,0.043v-0.008l0.002-0.016
		c0.004-0.012,0.004-0.023,0.002-0.035c0.004-0.025,0-0.051-0.004-0.078c-0.006-0.055-0.023-0.119-0.055-0.189
		c-0.061-0.141-0.172-0.303-0.316-0.461c-0.289-0.318-0.689-0.619-1.119-0.887c-0.869-0.535-1.855-0.977-2.867-1.342
		c-2.033-0.727-4.164-1.271-6.316-1.68C437.383,649.065,432.975,648.728,428.576,648.718z"/>
	<path fill="#84C6D0" d="M428.578,647.06c3.793-0.008,7.586,0.094,11.377,0.295c3.789,0.205,7.58,0.49,11.352,0.984
		c3.77,0.492,7.541,1.084,11.246,2.102c1.85,0.52,3.695,1.104,5.473,1.98c0.887,0.443,1.762,0.953,2.566,1.662
		c0.398,0.357,0.781,0.77,1.09,1.281c0.311,0.518,0.533,1.115,0.547,1.832c0.018,0.613-0.174,1.305-0.463,1.826
		c-0.287,0.541-0.656,0.984-1.041,1.375c-0.779,0.777-1.641,1.355-2.516,1.865c-1.756,1.006-3.584,1.742-5.432,2.371
		c-3.703,1.232-7.473,2.094-11.268,2.746c-7.596,1.275-15.266,1.838-22.938,1.836c-7.662,0.002-15.34-0.549-22.934-1.828
		c-3.795-0.645-7.566-1.514-11.27-2.744c-1.848-0.627-3.675-1.365-5.433-2.371c-0.875-0.512-1.736-1.092-2.518-1.869
		c-0.387-0.391-0.755-0.836-1.043-1.379c-0.289-0.545-0.48-1.164-0.463-1.883c0.016-0.617,0.24-1.289,0.551-1.783
		c0.311-0.516,0.694-0.926,1.094-1.283c0.805-0.711,1.681-1.221,2.568-1.664c1.779-0.875,3.625-1.461,5.474-1.977
		c3.705-1.018,7.479-1.609,11.248-2.1c3.771-0.492,7.563-0.779,11.352-0.98C420.99,647.153,424.783,647.052,428.578,647.06z
		 M428.578,647.06c-7.586,0-15.182,0.555-22.65,1.814c-3.729,0.639-7.426,1.492-10.984,2.682c-1.77,0.604-3.509,1.316-5.082,2.227
		c-0.779,0.457-1.52,0.973-2.099,1.564c-0.585,0.6-0.944,1.238-0.899,1.846c0.024,0.506,0.426,1.139,1.033,1.652
		c0.604,0.525,1.357,0.973,2.149,1.361c1.594,0.779,3.35,1.34,5.124,1.832c3.559,0.975,7.26,1.555,10.963,2.039
		c3.707,0.484,7.447,0.762,11.191,0.967c3.746,0.197,7.494,0.299,11.254,0.293c3.748,0.008,7.504-0.09,11.248-0.289
		c3.744-0.195,7.484-0.48,11.193-0.963c3.703-0.477,7.404-1.063,10.965-2.035c1.773-0.49,3.529-1.053,5.125-1.832
		c0.791-0.391,1.547-0.838,2.152-1.363c0.607-0.537,1.012-1.1,1.037-1.711c0.045-0.512-0.316-1.225-0.902-1.803
		c-0.578-0.592-1.32-1.107-2.1-1.564c-1.572-0.91-3.313-1.625-5.084-2.227c-3.559-1.188-7.258-2.043-10.986-2.678
		C443.758,647.612,436.162,647.06,428.578,647.06z"/>
	<linearGradient id="SVGID_8_" gradientUnits="userSpaceOnUse" x1="398.3682" y1="663.2832" x2="398.3682" y2="579.4717">
		<stop  offset="0" style="stop-color:#F8BC7F"/>
		<stop  offset="1" style="stop-color:#F18A24"/>
	</linearGradient>
	<path fill="url(#SVGID_8_)" d="M432.217,648.716c-8.385,8.385-20.332,13.688-32.779,14.547l-0.24,0.014
		c-12.856,0.215-25.317-5.006-34.235-14.32c-7.75-8.098-11.872-18.119-11.306-27.492l0.065-0.576
		c2.199-13.088,6.947-23.357,14.113-30.523c7.328-7.328,16.953-10.975,27.836-10.547l0.07-0.004
		c25.129-2.846,43.135,12.242,46.994,39.395C444.42,629.757,440.688,640.247,432.217,648.716z M357.205,621.575l-0.006,0.102
		c-0.507,8.391,3.258,17.439,10.327,24.824c8.237,8.604,19.741,13.426,31.564,13.229l0.148-0.008
		c11.561-0.799,22.684-5.727,30.471-13.514c7.645-7.645,11.023-17.045,9.52-26.471c-3.568-25.098-20.102-39.031-43.152-36.391
		l-0.479,0.018c-9.896-0.404-18.628,2.885-25.253,9.508c-6.634,6.635-11.049,16.258-13.123,28.604L357.205,621.575z
		 M422.818,595.081L400.699,617.2v-29.582C409.641,587.388,417.117,589.962,422.818,595.081z M396.156,619.079h-33.805
		c2.059-9.643,5.843-17.463,11.043-22.762L396.156,619.079z M395.771,587.962l0.457-0.016c0.609-0.074,1.213-0.135,1.811-0.186
		v29.438l-22.694-22.693C380.915,589.761,387.771,587.556,395.771,587.962z M361.767,622.093c0.021-0.119,0.045-0.234,0.064-0.352
		h34.327l-23.423,23.424c-0.649-0.592-1.286-1.197-1.896-1.834C364.779,637.003,361.396,629.073,361.767,622.093z M374.771,646.892
		l23.268-23.268v31.512C389.596,655.056,381.391,652.12,374.771,646.892z M400.699,623.622l22.348,22.348
		c-6.207,4.848-14.197,8.096-22.348,9.012V623.622z M426.467,642.966c-0.441,0.441-0.898,0.873-1.365,1.295l-22.521-22.52h32.283
		C435.637,629.253,432.691,636.741,426.467,642.966z M434.482,619.081l-31.9-0.002l22.135-22.133
		C429.617,602.231,432.953,609.681,434.482,619.081z"/>
	<linearGradient id="SVGID_9_" gradientUnits="userSpaceOnUse" x1="414.5781" y1="576.8496" x2="414.5781" y2="533.1953">
		<stop  offset="0" style="stop-color:#F8BC7F"/>
		<stop  offset="1" style="stop-color:#F18A24"/>
	</linearGradient>
	<path fill="url(#SVGID_9_)" d="M432.209,569.263c-4.367,4.367-10.59,7.129-17.074,7.576l-0.125,0.008
		c-6.697,0.111-13.188-2.607-17.832-7.459c-4.037-4.219-6.183-9.438-5.888-14.32l0.033-0.301c1.146-6.816,3.619-12.166,7.351-15.898
		c3.818-3.816,8.83-5.717,14.5-5.494l0.035-0.001c13.09-1.483,22.469,6.376,24.479,20.519
		C438.564,559.388,436.621,564.851,432.209,569.263z M393.137,555.125l-0.004,0.052c-0.264,4.372,1.697,9.086,5.381,12.932
		c4.289,4.482,10.281,6.994,16.439,6.891l0.078-0.004c6.021-0.418,11.814-2.982,15.871-7.039c3.98-3.982,5.742-8.878,4.959-13.788
		c-1.859-13.073-10.471-20.33-22.477-18.954l-0.25,0.008c-5.154-0.21-9.703,1.503-13.154,4.953
		c-3.455,3.455-5.754,8.468-6.836,14.898L393.137,555.125z M427.313,541.325l-11.52,11.521v-15.408
		C420.449,537.317,424.344,538.659,427.313,541.325z M413.426,553.825h-17.607c1.072-5.023,3.043-9.096,5.752-11.855
		L413.426,553.825z M413.225,537.617l0.238-0.009c0.318-0.039,0.631-0.069,0.943-0.096v15.333l-11.82-11.821
		C405.486,538.554,409.059,537.405,413.225,537.617z M395.514,555.396c0.01-0.063,0.023-0.123,0.033-0.184h17.879l-12.199,12.201
		c-0.338-0.309-0.67-0.623-0.988-0.955C397.082,563.161,395.32,559.03,395.514,555.396z M402.287,568.312l12.119-12.119v16.414
		C410.008,572.563,405.734,571.036,402.287,568.312z M415.793,556.192l11.639,11.639c-3.232,2.525-7.395,4.217-11.639,4.693V556.192
		z M429.213,566.267c-0.23,0.23-0.467,0.455-0.711,0.674l-11.73-11.729h16.814C433.99,559.124,432.455,563.024,429.213,566.267z
		 M433.389,553.825h-16.615l11.527-11.529C430.855,545.05,432.592,548.931,433.389,553.825z"/>
	<linearGradient id="SVGID_10_" gradientUnits="userSpaceOnUse" x1="464.8125" y1="610.4482" x2="464.8125" y2="554.1348">
		<stop  offset="0" style="stop-color:#F8BC7F"/>
		<stop  offset="1" style="stop-color:#F18A24"/>
	</linearGradient>
	<path fill="url(#SVGID_10_)" d="M487.557,600.661c-5.635,5.635-13.662,9.197-22.025,9.775l-0.162,0.008
		c-8.639,0.145-17.01-3.363-23.002-9.623c-5.209-5.439-7.979-12.174-7.598-18.471l0.043-0.387c1.479-8.795,4.67-15.695,9.484-20.51
		c4.924-4.925,11.391-7.375,18.703-7.088l0.047-0.002c16.885-1.912,28.984,8.226,31.578,26.471
		C495.756,587.923,493.246,594.972,487.557,600.661z M437.154,582.425l-0.004,0.068c-0.342,5.639,2.188,11.719,6.938,16.68
		c5.535,5.781,13.266,9.021,21.209,8.889l0.1-0.006c7.768-0.537,15.242-3.848,20.475-9.08c5.135-5.135,7.408-11.451,6.396-17.785
		c-2.398-16.865-13.508-26.227-28.994-24.452l-0.322,0.012c-6.65-0.271-12.518,1.938-16.969,6.39
		c-4.457,4.457-7.424,10.924-8.818,19.219L437.154,582.425z M481.24,564.624l-14.861,14.861v-19.877
		C472.387,559.453,477.41,561.183,481.24,564.624z M463.326,580.749h-22.715c1.383-6.48,3.926-11.734,7.42-15.295L463.326,580.749z
		 M463.066,559.84l0.309-0.011c0.41-0.051,0.814-0.091,1.217-0.125v19.779l-15.25-15.248
		C453.086,561.049,457.691,559.566,463.066,559.84z M440.219,582.772c0.014-0.08,0.031-0.156,0.045-0.236h23.064l-15.74,15.738
		c-0.436-0.396-0.863-0.803-1.273-1.23C442.244,592.79,439.971,587.464,440.219,582.772z M448.957,599.437l15.635-15.635v21.172
		C458.918,604.921,453.404,602.948,448.957,599.437z M466.379,583.8l15.016,15.016c-4.17,3.258-9.539,5.439-15.016,6.055V583.8z
		 M483.693,596.798c-0.297,0.297-0.605,0.586-0.918,0.869l-15.133-15.131h21.691C489.854,587.583,487.875,592.616,483.693,596.798z
		 M489.078,580.749h-21.434l14.871-14.873C485.809,569.427,488.051,574.433,489.078,580.749z"/>
</g>
</svg>
