<?xml version="1.0" encoding="utf-8"?>
<!-- Generator: Adobe Illustrator 15.1.0, SVG Export Plug-In . SVG Version: 6.00 Build 0)  -->
<!DOCTYPE svg PUBLIC "-//W3C//DTD SVG 1.1//EN" "http://www.w3.org/Graphics/SVG/1.1/DTD/svg11.dtd">
<svg version="1.1" id="レイヤー_1" xmlns="http://www.w3.org/2000/svg" xmlns:xlink="http://www.w3.org/1999/xlink" x="0px"
	 y="0px" width="185.195px" height="213.846px" viewBox="0 0 185.195 213.846" enable-background="new 0 0 185.195 213.846"
	 xml:space="preserve">
<g>
	<g>
		<polygon fill="#471F0D" points="0,53.461 92.598,0 185.195,53.461 185.195,160.385 92.598,213.846 0,160.385 		"/>
		<path fill="#DFB191" d="M92.598,5.773l87.598,50.574v101.15l-87.598,50.574L5,157.498V56.348L92.598,5.773 M92.598,0L0,53.461
			v106.924l92.599,53.461l92.598-53.461V53.461L92.598,0L92.598,0z"/>
	</g>
	<path fill="#84C6D0" d="M92.604,155.535c4.399,0.002,8.803,0.164,13.199,0.635c2.194,0.246,4.397,0.541,6.577,1.094
		c1.089,0.283,2.183,0.596,3.257,1.096c0.536,0.255,1.071,0.552,1.586,0.984c0.487,0.445,1.061,1.033,1.104,2.105v0.104v0.055
		l-0.01,0.104c-0.014,0.146-0.039,0.266-0.064,0.369c-0.055,0.217-0.135,0.42-0.229,0.602c-0.189,0.365-0.426,0.658-0.668,0.912
		c-0.488,0.502-1.01,0.867-1.535,1.188c-1.053,0.633-2.127,1.096-3.215,1.489c-2.178,0.771-4.379,1.322-6.599,1.746
		c-4.438,0.83-8.926,1.174-13.405,1.185c-4.48-0.009-8.967-0.347-13.406-1.177c-2.221-0.418-4.424-0.975-6.602-1.743
		c-1.089-0.392-2.162-0.857-3.218-1.49c-0.524-0.32-1.047-0.688-1.537-1.189c-0.241-0.254-0.479-0.549-0.668-0.914
		c-0.192-0.358-0.319-0.823-0.305-1.289c0.014-0.192,0.006-0.118,0.033-0.311c0.022-0.146,0.055-0.262,0.088-0.359
		c0.068-0.211,0.162-0.401,0.268-0.569c0.214-0.341,0.466-0.601,0.722-0.82c0.514-0.437,1.051-0.732,1.588-0.986
		c1.074-0.5,2.168-0.813,3.258-1.094c2.18-0.553,4.383-0.85,6.58-1.092C83.801,155.699,88.203,155.537,92.604,155.535z
		 M92.604,155.535c-4.398,0.01-8.808,0.348-13.121,1.159c-2.152,0.412-4.283,0.957-6.314,1.685c-1.01,0.369-1.996,0.809-2.864,1.344
		c-0.431,0.269-0.828,0.568-1.117,0.887c-0.299,0.32-0.41,0.638-0.367,0.789c0.027,0.148,0.182,0.39,0.502,0.646
		c0.314,0.252,0.727,0.483,1.17,0.684c0.889,0.404,1.896,0.691,2.906,0.949c2.035,0.51,4.164,0.793,6.295,1.027
		c4.27,0.453,8.594,0.614,12.912,0.619c4.317-0.005,8.643-0.158,12.914-0.609c2.131-0.23,4.262-0.518,6.297-1.027
		c1.014-0.254,2.018-0.545,2.908-0.948c0.885-0.39,1.672-0.974,1.676-1.392c-0.002,0.103,0,0.023,0,0.043v-0.008l0.002-0.016
		c0.004-0.013,0.004-0.023,0.002-0.035c0.004-0.025,0-0.051-0.004-0.078c-0.006-0.055-0.023-0.119-0.055-0.189
		c-0.062-0.141-0.173-0.303-0.316-0.461c-0.289-0.317-0.689-0.619-1.119-0.887c-0.869-0.535-1.854-0.977-2.867-1.342
		c-2.033-0.728-4.164-1.271-6.315-1.681C101.41,155.883,97.002,155.545,92.604,155.535z"/>
	<path fill="#84C6D0" d="M92.605,153.877c3.793-0.008,7.586,0.094,11.377,0.295c3.789,0.205,7.58,0.49,11.352,0.984
		c3.771,0.491,7.541,1.084,11.246,2.102c1.851,0.52,3.695,1.104,5.474,1.979c0.887,0.443,1.762,0.953,2.565,1.662
		c0.398,0.357,0.781,0.771,1.09,1.281c0.312,0.519,0.533,1.115,0.547,1.832c0.019,0.613-0.174,1.305-0.463,1.826
		c-0.287,0.541-0.655,0.984-1.041,1.375c-0.778,0.777-1.641,1.354-2.516,1.865c-1.756,1.006-3.584,1.742-5.432,2.371
		c-3.703,1.231-7.474,2.094-11.269,2.746c-7.596,1.274-15.266,1.838-22.938,1.836c-7.662,0.002-15.341-0.55-22.935-1.828
		c-3.795-0.646-7.565-1.515-11.27-2.744c-1.849-0.627-3.677-1.365-5.435-2.371c-0.875-0.512-1.735-1.092-2.518-1.869
		c-0.387-0.391-0.755-0.836-1.043-1.379c-0.289-0.545-0.48-1.164-0.463-1.883c0.016-0.617,0.239-1.289,0.551-1.783
		c0.311-0.516,0.694-0.926,1.094-1.283c0.806-0.711,1.682-1.221,2.568-1.664c1.779-0.875,3.625-1.461,5.475-1.977
		c3.705-1.019,7.479-1.609,11.248-2.101c3.771-0.491,7.563-0.778,11.353-0.979C85.018,153.971,88.811,153.869,92.605,153.877z
		 M92.605,153.877c-7.586,0-15.183,0.555-22.65,1.813c-3.729,0.64-7.426,1.492-10.983,2.683c-1.771,0.604-3.511,1.315-5.082,2.227
		c-0.779,0.457-1.521,0.974-2.1,1.564c-0.585,0.6-0.943,1.237-0.898,1.846c0.023,0.506,0.426,1.139,1.032,1.652
		c0.604,0.524,1.357,0.973,2.149,1.36c1.595,0.779,3.351,1.34,5.124,1.832c3.559,0.976,7.26,1.556,10.963,2.039
		c3.707,0.484,7.447,0.763,11.191,0.967c3.746,0.197,7.494,0.3,11.254,0.293c3.748,0.009,7.504-0.09,11.248-0.288
		c3.744-0.195,7.483-0.48,11.192-0.964c3.703-0.477,7.404-1.063,10.966-2.034c1.772-0.49,3.528-1.054,5.125-1.832
		c0.791-0.392,1.547-0.839,2.151-1.363c0.607-0.537,1.012-1.101,1.037-1.711c0.045-0.512-0.316-1.226-0.902-1.803
		c-0.577-0.593-1.319-1.107-2.1-1.564c-1.572-0.91-3.313-1.625-5.084-2.227c-3.559-1.188-7.258-2.043-10.986-2.679
		C107.785,154.43,100.189,153.877,92.605,153.877z"/>
	
		<linearGradient id="SVGID_1_" gradientUnits="userSpaceOnUse" x1="162.6296" y1="130.9016" x2="309.572" y2="130.9016" gradientTransform="matrix(-0.9934 -0.115 0.115 -0.9934 312.0909 256.0534)">
		<stop  offset="0" style="stop-color:#F8BC7F"/>
		<stop  offset="1" style="stop-color:#F18A24"/>
	</linearGradient>
	<path fill="url(#SVGID_1_)" d="M19.688,89.819c0.503-3.093,7.681-3.892,7.681-3.892s1.915-3.014,6.522-1.055
		c5.94-0.433,13.396,0.524,21.246,2.207c0.046-0.044,0.088-0.08,0.134-0.126c1.615-1.46,4.074-3.337,7.146-5.274
		c3.074-1.945,6.758-3.956,10.728-5.834c3.969-1.881,8.217-3.631,12.387-5.174c8.336-3.107,17.484-5.588,24.545-7.153
		c7.062-1.577,12.021-2.336,12.037-2.229c0.027,0.128-4.869,1.188-11.852,3.001c-6.98,1.805-16.027,4.453-24.304,7.537
		c-4.141,1.528-8.352,3.282-12.28,5.146c-3.931,1.859-7.578,3.832-10.642,5.699c-2.854,1.731-5.188,3.369-6.869,4.631
		c0.047,0.01,0.095,0.023,0.14,0.031c1.375-0.961,3-2,4.846-3.058c3.145-1.811,6.9-3.668,10.936-5.387
		c4.033-1.717,8.347-3.301,12.568-4.674c8.445-2.771,17.674-4.91,24.781-6.225c7.108-1.321,12.088-1.925,12.098-1.849
		c0.019,0.104-4.924,0.932-11.979,2.433c-7.058,1.495-16.214,3.762-24.613,6.521c-4.201,1.365-8.482,2.95-12.488,4.659
		c-4.006,1.701-7.733,3.535-10.871,5.285c-1.569,0.876-2.992,1.729-4.24,2.523c0.013,0.006,0.023,0.008,0.035,0.01
		c0.304-0.171,0.609-0.341,0.927-0.511c3.184-1.735,6.981-3.504,11.053-5.127s8.414-3.106,12.668-4.381
		c8.502-2.574,17.771-4.506,24.904-5.672c7.135-1.174,12.12-1.678,12.129-1.614c0.014,0.088-4.949,0.778-12.043,2.104
		c-7.093,1.313-16.306,3.356-24.771,5.919c-4.233,1.271-8.555,2.753-12.6,4.371c-4.049,1.607-7.82,3.355-10.996,5.04
		c-0.072,0.039-0.142,0.078-0.211,0.114c0.381,0.09,0.762,0.179,1.143,0.273c1.019-0.555,2.137-1.123,3.359-1.697
		c2.977-1.396,6.508-2.789,10.279-4.036c3.771-1.251,7.78-2.354,11.696-3.275c7.834-1.867,16.324-3.111,22.84-3.771
		c6.521-0.666,11.06-0.84,11.063-0.772c0.006,0.082-4.519,0.451-11.004,1.27c-6.486,0.814-14.928,2.166-22.721,4.026
		c-3.898,0.919-7.886,2.025-11.634,3.269c-3.746,1.234-7.25,2.61-10.215,3.96c-0.951,0.43-1.838,0.858-2.67,1.274
		c0.48,0.121,0.961,0.241,1.445,0.365c2.457-0.901,5.168-1.771,8.006-2.568c3.811-1.068,7.844-2.005,11.775-2.781
		c7.86-1.567,16.346-2.568,22.848-3.071c6.506-0.51,11.029-0.604,11.031-0.539c0.006,0.082-4.507,0.372-10.984,1.032
		c-6.479,0.659-14.92,1.771-22.746,3.334c-3.912,0.773-7.926,1.716-11.713,2.777c-2.422,0.678-4.748,1.409-6.904,2.154
		c0.603,0.159,1.203,0.321,1.808,0.483c1.166-0.313,2.362-0.614,3.588-0.9c3.771-0.885,7.76-1.637,11.639-2.241
		c7.758-1.223,16.103-1.879,22.488-2.135c6.387-0.265,10.817-0.195,10.819-0.131c0,0.084-4.428,0.211-10.795,0.627
		c-6.366,0.409-14.672,1.182-22.396,2.401c-3.861,0.603-7.828,1.355-11.58,2.237c-0.766,0.182-1.521,0.366-2.264,0.553
		c0.448,0.128,0.897,0.256,1.342,0.382c3.25-0.42,6.602-0.774,9.867-1.049c7.651-0.664,15.832-0.922,22.084-0.944
		c6.256-0.025,10.588,0.131,10.588,0.202c-0.002,0.077-4.334,0.111-10.578,0.293C93.699,89,85.545,89.379,77.916,90.039
		c-2.658,0.223-5.369,0.505-8.037,0.826c1.187,0.35,2.367,0.707,3.537,1.065c0.937-0.04,1.869-0.076,2.795-0.104
		c7.406-0.247,15.299-0.072,21.324,0.227c6.029,0.299,10.195,0.678,10.191,0.748c-0.006,0.082-4.185-0.106-10.207-0.251
		c-6.027-0.146-13.9-0.198-21.285,0.05c-0.205,0.004-0.41,0.013-0.615,0.019c0.646,0.203,1.291,0.411,1.928,0.616
		c12.938,0.752,27.06,2.384,27.043,2.528c-0.014,0.133-12.141-0.864-24.19-1.591c1.649,0.55,3.256,1.098,4.811,1.645
		c8.957,1.051,16.506,2.184,16.49,2.292c-0.014,0.1-6.08-0.55-13.775-1.333c10.599,3.796,18.146,7.019,18.146,7.019
		s0.018,0.011,0.043,0.023c0.604-0.254,1.209-0.507,1.809-0.749c6.818-2.813,14.775-5.278,14.822-5.137
		c0.047,0.143-7.742,3.049-14.531,5.849c-0.391,0.159-0.782,0.321-1.178,0.487c0.322,0.155,0.719,0.351,1.182,0.576
		c0.546-0.204,1.089-0.402,1.627-0.595c6.929-2.529,14.98-4.665,15.021-4.526c0.043,0.146-7.861,2.732-14.76,5.248
		c-0.308,0.113-0.617,0.228-0.926,0.338c0.512,0.251,1.077,0.524,1.684,0.814c6.91-2.14,14.66-3.82,14.691-3.681
		c0.034,0.137-7.019,2.105-13.677,4.166c0.23,0.112,0.463,0.222,0.699,0.335c6.734-1.133,13.674-1.765,13.688-1.632
		c0.016,0.133-6.16,1.075-12.509,2.197c1.045,0.494,2.15,1.016,3.289,1.55c5.459-0.352,10.177-0.388,10.179-0.273
		c0.004,0.104-4.019,0.421-8.929,0.854c0.726,0.34,1.459,0.68,2.193,1.017c3.375-0.134,5.793-0.126,5.795-0.048
		c0.004,0.072-1.959,0.248-4.813,0.498c2.012,0.92,4.008,1.811,5.842,2.594c2.449,1.339,8.213,2.026,9.748,2.681
		c1.537,0.65,23.737-8.665,27.42-9.084c3.682-0.421-2.945,4.629-8.205,7.785c-5.26,3.161-8.963,6.166-7.721,9.071
		c1.241,2.902,13.514,23.229,11.998,23.563c-1.517,0.338-21.636-22.215-23.382-23.813c-1.465-1.343-17.555-1.245-36.135-2.527
		c1.685,0.509,3.301,0.96,4.713,1.338c2.949,0.781,5.015,1.265,4.998,1.341c-0.014,0.07-2.117-0.223-5.113-0.854
		c-2.282-0.486-5.081-1.189-7.854-2.061c-1.023-0.078-2.055-0.162-3.088-0.249c0.471,0.211,0.94,0.422,1.41,0.619
		c3.428,1.477,7.176,2.825,10.071,3.781c2.896,0.963,4.927,1.57,4.904,1.648c-0.016,0.068-2.096-0.354-5.049-1.17
		c-2.953-0.815-6.771-2.062-10.23-3.554c-1.116-0.475-2.241-0.988-3.342-1.528c-0.785-0.07-1.569-0.146-2.356-0.225
		c-0.285-0.03-0.57-0.063-0.859-0.097c2.344,1.418,5.225,2.901,8.059,4.104c3.429,1.479,7.177,2.827,10.072,3.784
		c2.896,0.964,4.926,1.572,4.908,1.646c-0.021,0.071-2.102-0.353-5.053-1.17c-2.953-0.813-6.771-2.061-10.23-3.551
		c-3.432-1.458-6.975-3.293-9.502-5.045c-0.121-0.018-0.24-0.036-0.359-0.055c2.25,1.999,5.4,4.313,8.537,6.224
		c3.179,1.956,6.689,3.835,9.416,5.205c2.726,1.372,4.646,2.269,4.615,2.341c-0.027,0.064-2.024-0.654-4.828-1.891
		c-2.803-1.234-6.396-3.021-9.606-4.998c-3.215-1.961-6.488-4.32-8.74-6.438c-0.236-0.22-0.457-0.436-0.672-0.647
		c-0.385-0.064-0.771-0.133-1.158-0.208c0.533,0.701,1.26,1.611,2.164,2.634c1.996,2.276,4.895,5.006,7.826,7.316
		c2.916,2.325,6.178,4.614,8.719,6.303c2.541,1.689,4.34,2.811,4.301,2.881c-0.037,0.061-1.934-0.896-4.565-2.459
		c-2.634-1.565-5.986-3.771-8.935-6.119c-2.957-2.335-5.922-5.072-7.899-7.443c-0.994-1.179-1.748-2.254-2.207-3.06
		c-0.039-0.065-0.07-0.127-0.105-0.188c-22.389-4.408-51.593-19.894-53.824-20.121c-2.44-0.256-6.251-3.977-6.251-3.977
		S19.184,92.912,19.688,89.819z"/>
</g>
</svg>
