<?xml version="1.0" encoding="utf-8"?>
<!-- Generator: Adobe Illustrator 15.1.0, SVG Export Plug-In . SVG Version: 6.00 Build 0)  -->
<!DOCTYPE svg PUBLIC "-//W3C//DTD SVG 1.1//EN" "http://www.w3.org/Graphics/SVG/1.1/DTD/svg11.dtd">
<svg version="1.1" id="レイヤー_1" xmlns="http://www.w3.org/2000/svg" xmlns:xlink="http://www.w3.org/1999/xlink" x="0px"
	 y="0px" width="185.195px" height="213.846px" viewBox="0 0 185.195 213.846" enable-background="new 0 0 185.195 213.846"
	 xml:space="preserve">
<g>
	<g>
		<polygon fill="#471F0D" points="0.001,53.461 92.598,0 185.195,53.461 185.195,160.385 92.598,213.846 0.001,160.385 		"/>
		<path fill="#DFB191" d="M92.598,5.773l87.598,50.574v101.15l-87.598,50.574L5.001,157.498V56.348L92.598,5.773 M92.598,0
			L0.001,53.461v106.924l92.597,53.461l92.598-53.461V53.461L92.598,0L92.598,0z"/>
	</g>
	<path fill="#84C6D0" d="M92.604,155.535c4.4,0.002,8.803,0.164,13.199,0.635c2.195,0.246,4.398,0.541,6.578,1.094
		c1.088,0.283,2.182,0.596,3.256,1.096c0.537,0.254,1.072,0.551,1.586,0.984c0.488,0.445,1.061,1.033,1.105,2.105v0.104v0.055
		l-0.01,0.104c-0.014,0.146-0.039,0.266-0.064,0.369c-0.055,0.217-0.135,0.42-0.229,0.602c-0.189,0.365-0.426,0.658-0.668,0.912
		c-0.488,0.502-1.01,0.867-1.535,1.188c-1.053,0.633-2.127,1.096-3.215,1.49c-2.178,0.77-4.379,1.322-6.598,1.746
		c-4.439,0.83-8.926,1.174-13.406,1.184c-4.48-0.008-8.967-0.346-13.406-1.176c-2.221-0.418-4.424-0.975-6.602-1.744
		c-1.088-0.391-2.162-0.857-3.217-1.49c-0.525-0.32-1.047-0.688-1.537-1.189c-0.242-0.254-0.479-0.549-0.668-0.914
		c-0.193-0.359-0.32-0.824-0.305-1.289c0.014-0.193,0.006-0.119,0.033-0.311c0.023-0.146,0.055-0.262,0.088-0.359
		c0.068-0.211,0.162-0.402,0.268-0.57c0.213-0.34,0.465-0.6,0.721-0.82c0.514-0.436,1.051-0.732,1.588-0.986
		c1.074-0.5,2.168-0.814,3.258-1.094c2.18-0.553,4.383-0.85,6.58-1.092C83.801,155.699,88.203,155.537,92.604,155.535z
		 M92.604,155.535c-4.398,0.01-8.807,0.348-13.121,1.16c-2.152,0.412-4.283,0.957-6.314,1.684c-1.01,0.369-1.996,0.809-2.865,1.344
		c-0.43,0.268-0.828,0.568-1.117,0.887c-0.299,0.32-0.41,0.637-0.367,0.789c0.027,0.148,0.182,0.389,0.502,0.645
		c0.314,0.252,0.727,0.484,1.17,0.684c0.889,0.404,1.895,0.691,2.906,0.949c2.035,0.51,4.164,0.793,6.295,1.027
		c4.27,0.453,8.594,0.615,12.912,0.619c4.318-0.004,8.643-0.158,12.914-0.609c2.131-0.23,4.262-0.518,6.297-1.027
		c1.014-0.254,2.018-0.545,2.908-0.949c0.885-0.389,1.672-0.973,1.676-1.391c-0.002,0.102,0,0.023,0,0.043v-0.008l0.002-0.016
		c0.004-0.012,0.004-0.023,0.002-0.035c0.004-0.025,0-0.051-0.004-0.078c-0.006-0.055-0.023-0.119-0.055-0.189
		c-0.061-0.141-0.172-0.303-0.316-0.461c-0.289-0.318-0.689-0.619-1.119-0.887c-0.869-0.535-1.855-0.977-2.867-1.342
		c-2.033-0.727-4.164-1.271-6.316-1.68C101.41,155.883,97.002,155.545,92.604,155.535z"/>
	<path fill="#84C6D0" d="M92.605,153.877c3.793-0.008,7.586,0.094,11.377,0.295c3.789,0.205,7.58,0.49,11.352,0.984
		c3.77,0.492,7.541,1.084,11.246,2.102c1.85,0.52,3.695,1.104,5.473,1.98c0.887,0.443,1.762,0.953,2.566,1.662
		c0.398,0.357,0.781,0.77,1.09,1.281c0.311,0.518,0.533,1.115,0.547,1.832c0.018,0.613-0.174,1.305-0.463,1.826
		c-0.287,0.541-0.656,0.984-1.041,1.375c-0.779,0.777-1.641,1.355-2.516,1.865c-1.756,1.006-3.584,1.742-5.432,2.371
		c-3.703,1.232-7.473,2.094-11.268,2.746c-7.596,1.275-15.266,1.838-22.938,1.836c-7.662,0.002-15.34-0.549-22.934-1.828
		c-3.795-0.645-7.566-1.514-11.27-2.744c-1.848-0.627-3.675-1.365-5.433-2.371c-0.875-0.512-1.736-1.092-2.518-1.869
		c-0.387-0.391-0.755-0.836-1.043-1.379c-0.289-0.545-0.48-1.164-0.463-1.883c0.016-0.617,0.24-1.289,0.551-1.783
		c0.311-0.516,0.694-0.926,1.094-1.283c0.805-0.711,1.681-1.221,2.568-1.664c1.779-0.875,3.624-1.461,5.474-1.977
		c3.705-1.018,7.479-1.609,11.248-2.1c3.771-0.492,7.563-0.779,11.352-0.98C85.018,153.971,88.811,153.869,92.605,153.877z
		 M92.605,153.877c-7.586,0-15.182,0.555-22.65,1.814c-3.729,0.639-7.426,1.492-10.984,2.682c-1.77,0.604-3.509,1.316-5.081,2.227
		c-0.779,0.457-1.52,0.973-2.099,1.564c-0.585,0.6-0.944,1.238-0.899,1.846c0.024,0.506,0.426,1.139,1.033,1.652
		c0.604,0.525,1.357,0.973,2.149,1.361c1.594,0.779,3.35,1.34,5.123,1.832c3.559,0.975,7.26,1.555,10.963,2.039
		c3.707,0.484,7.447,0.762,11.191,0.967c3.746,0.197,7.494,0.299,11.254,0.293c3.748,0.008,7.504-0.09,11.248-0.289
		c3.744-0.195,7.484-0.48,11.193-0.963c3.703-0.477,7.404-1.063,10.965-2.035c1.773-0.49,3.529-1.053,5.125-1.832
		c0.791-0.391,1.547-0.838,2.152-1.363c0.607-0.537,1.012-1.1,1.037-1.711c0.045-0.512-0.316-1.225-0.902-1.803
		c-0.578-0.592-1.32-1.107-2.1-1.564c-1.572-0.91-3.313-1.625-5.084-2.227c-3.559-1.188-7.258-2.043-10.986-2.678
		C107.785,154.43,100.189,153.877,92.605,153.877z"/>
	<linearGradient id="SVGID_1_" gradientUnits="userSpaceOnUse" x1="62.396" y1="170.1001" x2="62.396" y2="86.2891">
		<stop  offset="0" style="stop-color:#F8BC7F"/>
		<stop  offset="1" style="stop-color:#F18A24"/>
	</linearGradient>
	<path fill="url(#SVGID_1_)" d="M96.244,155.533c-8.385,8.385-20.332,13.688-32.779,14.547l-0.24,0.014
		c-12.855,0.215-25.316-5.006-34.234-14.32c-7.75-8.098-11.872-18.119-11.306-27.492l0.065-0.576
		c2.199-13.088,6.947-23.357,14.113-30.523c7.328-7.328,16.953-10.975,27.836-10.547l0.07-0.004
		c25.129-2.846,43.135,12.242,46.994,39.395C108.447,136.574,104.715,147.064,96.244,155.533z M21.232,128.393l-0.006,0.102
		c-0.507,8.391,3.258,17.439,10.327,24.824c8.237,8.604,19.741,13.426,31.563,13.229l0.148-0.008
		c11.561-0.799,22.684-5.727,30.471-13.514c7.645-7.645,11.023-17.045,9.52-26.471c-3.568-25.098-20.102-39.031-43.152-36.391
		l-0.479,0.018c-9.896-0.404-18.628,2.885-25.253,9.508c-6.634,6.635-11.049,16.258-13.123,28.604L21.232,128.393z M86.846,101.898
		l-22.119,22.119V94.436C73.668,94.205,81.145,96.779,86.846,101.898z M60.184,125.896H26.379
		c2.059-9.643,5.843-17.463,11.043-22.762L60.184,125.896z M59.799,94.779l0.457-0.016c0.609-0.074,1.213-0.135,1.811-0.186v29.438
		l-22.693-22.693C44.942,96.578,51.799,94.373,59.799,94.779z M25.795,128.91c0.021-0.119,0.045-0.234,0.064-0.352h34.326
		l-23.423,23.424c-0.649-0.592-1.286-1.197-1.896-1.834C28.807,143.82,25.424,135.891,25.795,128.91z M38.799,153.709l23.268-23.268
		v31.512C53.624,161.873,45.419,158.938,38.799,153.709z M64.727,130.439l22.348,22.348c-6.207,4.848-14.197,8.096-22.348,9.012
		V130.439z M90.494,149.783c-0.441,0.441-0.898,0.873-1.365,1.295l-22.521-22.52h32.283
		C99.664,136.07,96.719,143.559,90.494,149.783z M98.51,125.898l-31.9-0.002l22.135-22.133
		C93.645,109.049,96.98,116.498,98.51,125.898z"/>
	<linearGradient id="SVGID_2_" gradientUnits="userSpaceOnUse" x1="78.606" y1="83.6675" x2="78.606" y2="40.0122">
		<stop  offset="0" style="stop-color:#F8BC7F"/>
		<stop  offset="1" style="stop-color:#F18A24"/>
	</linearGradient>
	<path fill="url(#SVGID_2_)" d="M96.236,76.08c-4.367,4.367-10.59,7.129-17.074,7.576l-0.125,0.008
		c-6.697,0.111-13.188-2.607-17.832-7.459c-4.037-4.219-6.183-9.438-5.888-14.32l0.033-0.301c1.146-6.816,3.618-12.166,7.351-15.898
		c3.818-3.816,8.83-5.717,14.5-5.494l0.035-0.001c13.09-1.483,22.469,6.376,24.479,20.519
		C102.592,66.205,100.648,71.668,96.236,76.08z M57.164,61.942l-0.004,0.052c-0.264,4.372,1.697,9.086,5.381,12.932
		c4.289,4.482,10.281,6.994,16.439,6.891l0.078-0.004c6.021-0.418,11.814-2.982,15.871-7.039c3.98-3.982,5.742-8.878,4.959-13.788
		c-1.859-13.073-10.471-20.33-22.477-18.954l-0.25,0.008c-5.154-0.21-9.703,1.503-13.154,4.953
		c-3.455,3.455-5.754,8.468-6.836,14.898L57.164,61.942z M91.34,48.143L79.82,59.664V44.256
		C84.477,44.135,88.371,45.477,91.34,48.143z M77.453,60.643H59.846c1.072-5.023,3.043-9.096,5.752-11.855L77.453,60.643z
		 M77.252,44.435l0.238-0.009c0.318-0.039,0.631-0.069,0.943-0.096v15.333l-11.82-11.821C69.514,45.371,73.086,44.223,77.252,44.435
		z M59.541,62.213c0.01-0.063,0.023-0.123,0.033-0.184h17.879L65.254,74.23c-0.338-0.309-0.67-0.623-0.988-0.955
		C61.109,69.979,59.348,65.848,59.541,62.213z M66.314,75.129L78.434,63.01v16.414C74.035,79.381,69.762,77.854,66.314,75.129z
		 M79.82,63.01l11.639,11.639c-3.232,2.525-7.395,4.217-11.639,4.693V63.01z M93.24,73.084c-0.23,0.23-0.467,0.455-0.711,0.674
		l-11.73-11.729h16.814C98.018,65.941,96.482,69.842,93.24,73.084z M97.416,60.643H80.801l11.527-11.529
		C94.883,51.867,96.619,55.748,97.416,60.643z"/>
	<linearGradient id="SVGID_3_" gradientUnits="userSpaceOnUse" x1="128.8398" y1="117.2661" x2="128.8398" y2="60.9521">
		<stop  offset="0" style="stop-color:#F8BC7F"/>
		<stop  offset="1" style="stop-color:#F18A24"/>
	</linearGradient>
	<path fill="url(#SVGID_3_)" d="M151.584,107.479c-5.635,5.635-13.662,9.197-22.025,9.775l-0.162,0.008
		c-8.639,0.145-17.01-3.363-23.002-9.623c-5.209-5.439-7.979-12.174-7.598-18.471l0.043-0.387c1.479-8.795,4.67-15.695,9.484-20.51
		c4.924-4.925,11.391-7.375,18.703-7.088l0.047-0.002c16.885-1.912,28.984,8.226,31.578,26.471
		C159.783,94.74,157.273,101.789,151.584,107.479z M101.182,89.242l-0.004,0.068c-0.342,5.639,2.188,11.719,6.938,16.68
		c5.535,5.781,13.266,9.021,21.209,8.889l0.1-0.006c7.768-0.537,15.242-3.848,20.475-9.08c5.135-5.135,7.408-11.451,6.396-17.785
		c-2.398-16.865-13.508-26.227-28.994-24.452l-0.322,0.012c-6.65-0.271-12.518,1.938-16.969,6.39
		c-4.457,4.457-7.424,10.924-8.818,19.219L101.182,89.242z M145.268,71.441l-14.861,14.861V66.426
		C136.414,66.271,141.438,68,145.268,71.441z M127.354,87.566h-22.715c1.383-6.48,3.926-11.734,7.42-15.295L127.354,87.566z
		 M127.094,66.657l0.309-0.011c0.41-0.051,0.814-0.091,1.217-0.125v19.779l-15.25-15.248
		C117.113,67.866,121.719,66.384,127.094,66.657z M104.246,89.59c0.014-0.08,0.031-0.156,0.045-0.236h23.064l-15.74,15.738
		c-0.436-0.396-0.863-0.803-1.273-1.23C106.271,99.607,103.998,94.281,104.246,89.59z M112.984,106.254l15.635-15.635v21.172
		C122.945,111.738,117.432,109.766,112.984,106.254z M130.406,90.617l15.016,15.016c-4.17,3.258-9.539,5.439-15.016,6.055V90.617z
		 M147.721,103.615c-0.297,0.297-0.605,0.586-0.918,0.869L131.67,89.354h21.691C153.881,94.4,151.902,99.434,147.721,103.615z
		 M153.105,87.566h-21.434l14.871-14.873C149.836,76.244,152.078,81.25,153.105,87.566z"/>
</g>
</svg>
