<?xml version="1.0" encoding="utf-8"?>
<!-- Generator: Adobe Illustrator 15.1.0, SVG Export Plug-In . SVG Version: 6.00 Build 0)  -->
<!DOCTYPE svg PUBLIC "-//W3C//DTD SVG 1.1//EN" "http://www.w3.org/Graphics/SVG/1.1/DTD/svg11.dtd">
<svg version="1.1" id="レイヤー_1" xmlns="http://www.w3.org/2000/svg" xmlns:xlink="http://www.w3.org/1999/xlink" x="0px"
	 y="0px" width="185.195px" height="213.846px" viewBox="0 0 185.195 213.846" enable-background="new 0 0 185.195 213.846"
	 xml:space="preserve">
<g>
	<g>
		<polygon fill="#471F0D" points="0,53.461 92.598,0 185.195,53.461 185.195,160.386 92.598,213.846 0,160.386 		"/>
		<path fill="#DFB191" d="M92.598,5.773l87.597,50.574v101.151l-87.597,50.573L5,157.499V56.348L92.598,5.773 M92.598,0L0,53.461
			v106.925l92.598,53.46l92.597-53.46V53.461L92.598,0L92.598,0z"/>
	</g>
	<g>
		<path fill="#84C6D0" d="M92.605,154.649c6.027,0.002,12.056,0.191,18.079,0.742c3.007,0.286,6.025,0.632,9.011,1.277
			c1.49,0.33,2.988,0.695,4.459,1.281c0.736,0.295,1.469,0.642,2.173,1.149c0.668,0.521,1.452,1.208,1.515,2.461v0.121v0.063
			l-0.014,0.121c-0.019,0.171-0.055,0.311-0.089,0.431c-0.075,0.254-0.184,0.491-0.313,0.704c-0.259,0.427-0.582,0.769-0.914,1.065
			c-0.669,0.587-1.383,1.014-2.104,1.388c-1.441,0.738-2.913,1.28-4.403,1.74c-2.982,0.9-5.998,1.546-9.036,2.04
			c-6.082,0.971-12.226,1.373-18.363,1.385c-6.135-0.01-12.281-0.404-18.362-1.374c-3.041-0.488-6.058-1.139-9.04-2.038
			c-1.492-0.458-2.963-1.002-4.408-1.741c-0.718-0.375-1.434-0.804-2.105-1.391c-0.332-0.296-0.655-0.641-0.915-1.069
			c-0.264-0.42-0.438-0.962-0.417-1.505c0.019-0.226,0.009-0.139,0.046-0.364c0.031-0.17,0.074-0.305,0.119-0.42
			c0.094-0.246,0.224-0.469,0.368-0.665c0.292-0.397,0.635-0.702,0.985-0.959c0.704-0.509,1.439-0.855,2.175-1.152
			c1.473-0.584,2.969-0.951,4.462-1.278c2.987-0.646,6.003-0.992,9.013-1.275C80.548,154.84,86.578,154.651,92.605,154.649z
			 M92.605,154.649c-6.024,0.011-12.062,0.406-17.97,1.355c-2.948,0.48-5.867,1.117-8.65,1.968c-1.383,0.43-2.734,0.944-3.923,1.57
			c-0.59,0.312-1.135,0.664-1.532,1.036c-0.409,0.373-0.561,0.744-0.501,0.921c0.036,0.175,0.247,0.455,0.687,0.754
			c0.429,0.294,0.996,0.566,1.602,0.798c1.218,0.474,2.595,0.81,3.98,1.109c2.787,0.596,5.705,0.927,8.622,1.201
			c5.848,0.53,11.77,0.718,17.685,0.724c5.915-0.004,11.837-0.185,17.688-0.712c2.919-0.27,5.838-0.605,8.625-1.2
			c1.389-0.297,2.765-0.637,3.983-1.109c1.212-0.454,2.29-1.138,2.296-1.625c-0.003,0.117,0,0.027,0,0.05v-0.009l0.003-0.02
			c0.005-0.013,0.005-0.026,0.002-0.041c0.006-0.028,0-0.058-0.005-0.09c-0.008-0.064-0.032-0.14-0.075-0.222
			c-0.083-0.164-0.234-0.354-0.433-0.538c-0.396-0.372-0.944-0.726-1.534-1.037c-1.19-0.625-2.541-1.141-3.926-1.568
			c-2.785-0.849-5.705-1.485-8.652-1.963C104.667,155.055,98.629,154.66,92.605,154.649z"/>
		<path fill="#84C6D0" d="M92.608,152.712c5.194-0.011,10.39,0.109,15.582,0.345c5.19,0.238,10.383,0.571,15.549,1.148
			c5.163,0.577,10.329,1.269,15.403,2.457c2.533,0.606,5.062,1.29,7.496,2.313c1.215,0.52,2.413,1.114,3.516,1.943
			c0.545,0.418,1.069,0.898,1.492,1.497c0.425,0.605,0.73,1.304,0.749,2.14c0.023,0.718-0.238,1.526-0.635,2.136
			c-0.393,0.632-0.898,1.15-1.425,1.606c-1.067,0.907-2.248,1.583-3.446,2.18c-2.405,1.176-4.908,2.036-7.439,2.771
			c-5.071,1.44-10.235,2.447-15.433,3.209c-10.405,1.489-20.911,2.147-31.417,2.146c-10.494,0.002-21.011-0.642-31.412-2.136
			c-5.198-0.754-10.362-1.77-15.434-3.207c-2.532-0.732-5.036-1.596-7.444-2.772c-1.197-0.598-2.378-1.274-3.447-2.183
			c-0.529-0.456-1.034-0.977-1.429-1.611c-0.396-0.637-0.659-1.361-0.634-2.2c0.021-0.722,0.328-1.506,0.753-2.085
			c0.425-0.602,0.952-1.081,1.499-1.499c1.102-0.83,2.303-1.426,3.517-1.943c2.438-1.022,4.966-1.708,7.499-2.311
			c5.077-1.188,10.244-1.882,15.408-2.453c5.165-0.576,10.356-0.911,15.546-1.146C82.215,152.821,87.411,152.701,92.608,152.712z
			 M92.608,152.712c-10.391,0-20.794,0.648-31.024,2.12c-5.105,0.746-10.171,1.744-15.045,3.134
			c-2.424,0.705-4.808,1.538-6.96,2.602c-1.067,0.534-2.082,1.137-2.874,1.828c-0.803,0.701-1.295,1.447-1.233,2.157
			c0.034,0.591,0.583,1.33,1.415,1.931c0.827,0.614,1.861,1.137,2.946,1.591c2.183,0.91,4.589,1.564,7.017,2.141
			c4.876,1.139,9.944,1.815,15.016,2.382c5.077,0.567,10.2,0.892,15.329,1.13c5.131,0.231,10.264,0.351,15.414,0.344
			c5.133,0.009,10.277-0.106,15.405-0.338c5.129-0.229,10.252-0.562,15.333-1.126c5.073-0.557,10.142-1.241,15.019-2.379
			c2.429-0.571,4.834-1.23,7.021-2.141c1.082-0.455,2.117-0.979,2.947-1.592c0.832-0.628,1.386-1.285,1.42-2
			c0.063-0.598-0.434-1.431-1.236-2.106c-0.792-0.691-1.808-1.295-2.875-1.829c-2.154-1.063-4.537-1.897-6.964-2.601
			c-4.874-1.388-9.94-2.388-15.048-3.13C113.398,153.357,102.995,152.712,92.608,152.712z"/>
	</g>
	<g>
		<g>
			<linearGradient id="SVGID_1_" gradientUnits="userSpaceOnUse" x1="147.9063" y1="72.3843" x2="77.6855" y2="72.3843">
				<stop  offset="0" style="stop-color:#F8BC7F"/>
				<stop  offset="1" style="stop-color:#F18A24"/>
			</linearGradient>
			<path fill="url(#SVGID_1_)" d="M146.915,63.154c-1.885,0.443-3.049,1.495-4.266,2.881c-0.832,0.943-2.66,5.043-4.711,5.098
				c-0.434,0.011-1.338-0.215-2.529-0.598c-0.109-0.244-0.188-0.51-0.188-0.51s-0.232,0.163-0.52,0.277
				c-0.35-0.118-0.717-0.248-1.1-0.385c-0.121-0.254-0.207-0.559-0.207-0.559s-0.246,0.172-0.541,0.286
				c-0.354-0.129-0.719-0.265-1.09-0.407c-0.143-0.267-0.254-0.654-0.254-0.654s-0.295,0.205-0.625,0.316
				c-0.4-0.154-0.809-0.314-1.215-0.477c-0.148-0.268-0.266-0.672-0.266-0.672s-0.293,0.204-0.621,0.317
				c-2.932-1.182-5.939-2.478-8.039-3.442c0.068-1.132,2.832-2.362,3.785-2.914c-3.01-0.311-5.969,1.515-6.607,1.612
				c-2.113-0.888-4.298-1.484-6.498-1.85c-0.375-0.178-0.841-0.376-1.245-0.482c-0.832-0.222-2.494-0.887-2.881-1.108
				c-0.445-0.057-1.053-0.388-1.496-0.887c-0.61-0.222-0.886-0.774-1.608-1.052c-1.481,0.555-3.231,2.655-3.961,3.396
				c-5.051,0.768-11.048,2.693-11.885,3.252c-4.284,0.554-7.499,3.934-9.014,4.765c-1.461,0.802-1.125,0.608-1.125,0.774
				c0,0.333,0.368,0.666,1.422,1.22c1.053,0.554,1.515,0.776,1.237,0.832c-0.277,0.054-2.771,0.054-2.771,0.054
				c-0.609,0.224-0.554,0.611,0.222,1.055c0.775,0.443,4.267,2.493,5.319,3.655c1.035,1.146,7.282,3.954,15.614,5.258
				c1.54,3.632,5.994,4.938,6.382,4.55c0.221-0.221-0.719-0.72-1.108-1.772c-0.464-1.263-0.368-2.037-0.11-2.387
				c5.599,0.007,11.771-1.153,16.489-2.778c2.193-0.35,4.633,2.176,7.223,2.229c2.715,0.055,3.658-0.666,3.658-0.666
				s-0.832,0.222-2.715-0.387c-1.592-0.516-3.107-2.455-3.436-3.246c1.406-0.797,2.818-1.487,4.172-2.065
				c0.227,0.111,0.436,0.248,0.436,0.248s0.064-0.25,0.193-0.511c0.389-0.158,0.771-0.309,1.146-0.446
				c0.242,0.112,0.48,0.269,0.48,0.269s0.066-0.252,0.193-0.513c0.428-0.148,0.842-0.284,1.24-0.406c0.25,0.114,0.5,0.278,0.5,0.278
				s0.059-0.229,0.178-0.476c0.625-0.175,1.205-0.311,1.729-0.41c0.135,0.077,0.23,0.143,0.23,0.143s0.021-0.08,0.063-0.194
				c0.971-0.163,1.713-0.178,2.127-0.039c1.498,0.497,2.715,5.596,8.145,7.922c0.389,0.279,1.387,0.555,0.555-0.332
				c-0.83-0.887-3.49-5.539-3.656-8.477c-0.166-2.937,0.83-5.318,1.607-6.371c0.775-1.054,2.227-2.636,2.658-2.937
				C148.188,63.043,147.87,62.929,146.915,63.154z"/>
			<path fill="#471F0D" d="M104.195,57.946c0.722,0.277,0.998,0.83,1.608,1.052c0.443,0.499,1.051,0.83,1.496,0.887
				c0.387,0.222,2.049,0.887,2.881,1.108c0.403,0.106,0.87,0.305,1.245,0.482c2.2,0.365,4.385,0.962,6.498,1.85
				c0.589-0.09,3.148-1.648,5.903-1.648c0.233,0,0.469,0.012,0.704,0.036c-0.953,0.552-3.717,1.782-3.785,2.914
				c2.1,0.965,5.107,2.261,8.039,3.442c0.328-0.113,0.621-0.317,0.621-0.317s0.117,0.404,0.266,0.672
				c0.406,0.162,0.814,0.322,1.215,0.477c0.33-0.111,0.625-0.316,0.625-0.316s0.111,0.388,0.254,0.654
				c0.371,0.143,0.736,0.278,1.09,0.407c0.295-0.114,0.541-0.286,0.541-0.286s0.086,0.305,0.207,0.559
				c0.383,0.137,0.75,0.267,1.1,0.385c0.287-0.114,0.52-0.277,0.52-0.277s0.078,0.266,0.188,0.51
				c1.163,0.373,2.053,0.598,2.498,0.598c0.011,0,0.021,0,0.031,0c2.051-0.055,3.879-4.154,4.711-5.098
				c1.217-1.386,2.381-2.438,4.266-2.881c0.327-0.077,0.58-0.114,0.748-0.114c0.322,0,0.335,0.137-0.029,0.392
				c-0.432,0.301-1.883,1.883-2.658,2.937c-0.777,1.053-1.773,3.435-1.607,6.371c0.166,2.938,2.826,7.59,3.656,8.477
				c0.427,0.454,0.372,0.604,0.166,0.604c-0.196,0-0.531-0.136-0.721-0.271c-5.43-2.326-6.646-7.425-8.145-7.922
				c-0.188-0.063-0.444-0.095-0.76-0.095c-0.377,0-0.838,0.045-1.367,0.134c-0.041,0.114-0.063,0.194-0.063,0.194
				s-0.096-0.065-0.23-0.143c-0.523,0.1-1.104,0.235-1.729,0.41c-0.119,0.247-0.178,0.476-0.178,0.476s-0.25-0.164-0.5-0.278
				c-0.398,0.122-0.813,0.258-1.24,0.406c-0.127,0.261-0.193,0.513-0.193,0.513s-0.238-0.156-0.48-0.269
				c-0.375,0.138-0.758,0.288-1.146,0.446c-0.129,0.261-0.193,0.511-0.193,0.511s-0.209-0.137-0.436-0.248
				c-1.354,0.578-2.766,1.269-4.172,2.065c0.328,0.791,1.844,2.73,3.436,3.246c1.089,0.352,1.826,0.426,2.254,0.426
				c0.313,0,0.461-0.039,0.461-0.039s-0.875,0.669-3.365,0.669c-0.096,0-0.193-0.001-0.293-0.003
				c-2.423-0.049-4.713-2.262-6.794-2.262c-0.144,0-0.287,0.011-0.429,0.033c-4.706,1.62-10.856,2.778-16.443,2.778
				c-0.015,0-0.031,0-0.046,0c-0.258,0.35-0.354,1.124,0.11,2.387c0.389,1.053,1.33,1.552,1.108,1.772
				c-0.043,0.044-0.139,0.065-0.275,0.065c-1.078,0-4.74-1.392-6.107-4.615c-8.332-1.304-14.579-4.111-15.614-5.258
				c-1.053-1.162-4.544-3.212-5.319-3.655c-0.776-0.443-0.832-0.831-0.222-1.055c0,0,2.494,0,2.771-0.054
				c0.277-0.056-0.185-0.278-1.237-0.832c-1.054-0.554-1.422-0.887-1.422-1.22c0-0.166-0.335,0.027,1.125-0.774
				c1.515-0.831,4.729-4.211,9.014-4.765c0.837-0.559,6.833-2.484,11.885-3.252C100.964,60.602,102.714,58.501,104.195,57.946
				 M104.205,55.807l-0.711,0.267c-1.534,0.574-2.939,1.994-4.248,3.403c-4.282,0.724-9.6,2.264-11.523,3.188
				c-3.536,0.571-6.275,2.656-8.108,4.052c-0.505,0.385-0.983,0.748-1.241,0.89l-0.228,0.125c-1.188,0.651-1.68,0.921-1.906,1.812
				l-0.214,0.843l0.284,0.451c0.018,0.06,0.037,0.118,0.059,0.175c-0.39,0.389-0.628,0.882-0.674,1.431
				c-0.061,0.72,0.174,1.753,1.636,2.588c1.911,1.093,4.24,2.611,4.829,3.262c1.586,1.757,8.203,4.404,15.776,5.725
				c1.907,3.2,5.643,4.806,7.426,4.806c0.859,0,1.395-0.355,1.692-0.654c0.237-0.236,1.369-1.53-0.205-3.268
				c-0.106-0.116-0.213-0.235-0.3-0.354c4.892-0.23,10.25-1.226,14.788-2.761c0.546,0,1.434,0.438,2.291,0.86
				c1.3,0.641,2.773,1.366,4.463,1.4c0.113,0.003,0.225,0.004,0.333,0.004c2.938,0,4.249-0.827,4.58-1.08l6.336-4.846
				c1.28,1.775,3.134,3.843,6.187,5.193c0.438,0.263,1.051,0.501,1.665,0.501c0.884,0,1.644-0.486,1.983-1.27
				c0.266-0.614,0.361-1.581-0.69-2.702c-0.538-0.588-2.499-4.025-3.005-6.417l0.342-0.262l-0.362,0.156
				c-0.049-0.246-0.081-0.48-0.093-0.699c-0.143-2.512,0.735-4.415,1.22-5.07c0.698-0.949,1.922-2.264,2.227-2.509
				c1.364-0.954,1.11-2.179,0.999-2.531c-0.226-0.714-0.907-1.476-2.147-1.476c-0.333,0-0.728,0.055-1.207,0.167
				c-2.592,0.61-4.1,2.131-5.31,3.508c-0.325,0.369-0.639,0.875-1.034,1.516c-0.447,0.723-1.618,2.615-2.264,2.897
				c-0.088-0.014-0.342-0.06-0.871-0.207l-0.637-2.111l-1.333,0.929l-0.467-1.609l-1.379,0.958l-0.499-1.74l-1.559,1.083
				l-0.555-1.917l-1.915,1.338c-1.432-0.585-2.89-1.2-4.247-1.79c0.174-0.094,0.327-0.175,0.44-0.234
				c0.278-0.147,0.521-0.276,0.705-0.383l5.328-3.088l-6.126-0.632c-0.296-0.031-0.602-0.047-0.909-0.047
				c-2.423,0-4.634,0.961-5.822,1.478c-0.019,0.008-0.037,0.016-0.057,0.024c-1.866-0.723-3.854-1.27-5.925-1.63
				c-0.491-0.221-0.938-0.386-1.332-0.489c-0.662-0.177-2.105-0.754-2.407-0.916l-0.348-0.199l-0.325-0.037
				c-0.067-0.03-0.201-0.112-0.311-0.236l-0.336-0.38l-0.424-0.154c-0.044-0.033-0.121-0.098-0.179-0.147
				c-0.301-0.257-0.756-0.645-1.448-0.91L104.205,55.807L104.205,55.807z M137.403,76.803l0.298-1.087
				c0.154,0.212,0.338,0.486,0.506,0.74L137.403,76.803L137.403,76.803z M135.256,77.729l0.453-1.753l1.42,0.944L135.256,77.729
				L135.256,77.729z M133.291,78.413l0.429-1.61l1.477,0.952l-3.858,1.666c-0.004,0-0.007,0-0.011,0
				c-0.187,0-0.72-0.032-1.639-0.329c-0.325-0.105-0.692-0.367-1.033-0.677c0.334-0.165,0.67-0.324,1.008-0.479l1.821,1.175
				l0.415-1.595L133.291,78.413L133.291,78.413z"/>
		</g>
		<g>
			<linearGradient id="SVGID_2_" gradientUnits="userSpaceOnUse" x1="130.2695" y1="95.2646" x2="13.96" y2="95.2647">
				<stop  offset="0" style="stop-color:#F8BC7F"/>
				<stop  offset="1" style="stop-color:#F18A24"/>
			</linearGradient>
			<path fill="url(#SVGID_2_)" d="M128.627,79.977c-3.12,0.734-5.048,2.477-7.065,4.771c-1.376,1.563-4.405,8.353-7.802,8.443
				c-0.719,0.019-2.215-0.355-4.189-0.989c-0.181-0.404-0.309-0.845-0.309-0.845s-0.387,0.27-0.861,0.459
				c-0.579-0.195-1.189-0.411-1.823-0.638c-0.199-0.419-0.343-0.924-0.343-0.924s-0.407,0.284-0.896,0.475
				c-0.586-0.214-1.187-0.44-1.803-0.675c-0.237-0.442-0.422-1.085-0.422-1.085s-0.487,0.34-1.034,0.525
				c-0.663-0.257-1.338-0.521-2.015-0.79c-0.245-0.443-0.438-1.113-0.438-1.113s-0.485,0.339-1.03,0.526
				c-4.854-1.958-9.837-4.104-13.313-5.701c0.114-1.875,4.692-3.914,6.268-4.828c-4.982-0.515-9.887,2.509-10.942,2.67
				c-3.5-1.469-7.12-2.458-10.764-3.063c-0.622-0.294-1.395-0.623-2.062-0.799c-1.377-0.367-4.13-1.469-4.773-1.837
				c-0.735-0.093-1.744-0.642-2.477-1.468c-1.01-0.368-1.468-1.283-2.663-1.743c-2.454,0.919-5.353,4.399-6.562,5.627
				c-8.367,1.271-18.299,4.461-19.685,5.387c-7.097,0.916-12.42,6.515-14.93,7.892c-2.42,1.328-1.865,1.007-1.865,1.283
				c0,0.551,0.61,1.103,2.356,2.019c1.744,0.918,2.508,1.287,2.049,1.378c-0.458,0.091-4.589,0.091-4.589,0.091
				c-1.01,0.37-0.919,1.012,0.368,1.746c1.285,0.733,7.067,4.13,8.811,6.054c1.715,1.899,12.061,6.55,25.862,8.71
				c2.55,6.016,9.928,8.18,10.571,7.535c0.366-0.364-1.192-1.192-1.836-2.936c-0.769-2.091-0.609-3.374-0.182-3.952
				c9.273,0.01,19.498-1.912,27.311-4.604c3.633-0.579,7.674,3.604,11.966,3.692c4.497,0.091,6.057-1.104,6.057-1.104
				s-1.377,0.367-4.495-0.642c-2.637-0.853-5.146-4.065-5.692-5.375c2.329-1.32,4.67-2.464,6.911-3.421
				c0.377,0.184,0.723,0.41,0.723,0.41s0.106-0.415,0.319-0.846c0.643-0.263,1.277-0.512,1.898-0.74
				c0.403,0.187,0.796,0.445,0.796,0.445s0.108-0.418,0.32-0.849c0.708-0.247,1.395-0.472,2.055-0.675
				c0.414,0.19,0.828,0.462,0.828,0.462s0.098-0.378,0.293-0.787c1.036-0.29,1.998-0.514,2.863-0.679
				c0.223,0.127,0.384,0.235,0.384,0.235s0.035-0.132,0.102-0.322c1.608-0.27,2.836-0.294,3.523-0.064
				c2.479,0.824,4.498,9.268,13.49,13.122c0.643,0.462,2.296,0.919,0.918-0.551c-1.376-1.469-5.781-9.175-6.055-14.04
				c-0.277-4.864,1.374-8.81,2.659-10.554c1.286-1.743,3.691-4.365,4.405-4.862C130.736,79.793,130.211,79.604,128.627,79.977z"/>
			<path fill="#471F0D" d="M57.871,71.35c1.194,0.46,1.652,1.375,2.663,1.743c0.733,0.826,1.742,1.375,2.477,1.468
				c0.643,0.368,3.396,1.47,4.773,1.837c0.667,0.176,1.44,0.505,2.062,0.799c3.644,0.604,7.264,1.594,10.764,3.063
				c0.973-0.148,5.215-2.729,9.775-2.729c0.387,0,0.777,0.019,1.167,0.059c-1.576,0.914-6.154,2.953-6.268,4.828
				c3.476,1.597,8.458,3.743,13.313,5.701c0.545-0.188,1.03-0.526,1.03-0.526s0.193,0.67,0.438,1.113
				c0.677,0.27,1.352,0.533,2.015,0.79c0.547-0.186,1.034-0.525,1.034-0.525s0.185,0.643,0.422,1.085
				c0.616,0.234,1.217,0.461,1.803,0.675c0.489-0.19,0.896-0.475,0.896-0.475s0.144,0.505,0.343,0.924
				c0.634,0.227,1.244,0.442,1.823,0.638c0.475-0.189,0.861-0.459,0.861-0.459s0.128,0.44,0.309,0.845
				c1.927,0.619,3.399,0.99,4.136,0.99c0.019,0,0.036,0,0.053-0.001c3.396-0.091,6.426-6.881,7.802-8.443
				c2.018-2.295,3.945-4.037,7.065-4.771c0.543-0.128,0.962-0.189,1.24-0.189c0.534,0,0.555,0.227-0.048,0.649
				c-0.714,0.497-3.119,3.119-4.405,4.862c-1.285,1.744-2.937,5.689-2.659,10.554c0.273,4.865,4.679,12.571,6.055,14.04
				c0.706,0.753,0.616,1,0.274,1c-0.325,0-0.879-0.224-1.192-0.449c-8.992-3.854-11.011-12.298-13.49-13.122
				c-0.313-0.104-0.738-0.156-1.261-0.156c-0.624,0-1.387,0.074-2.263,0.221c-0.067,0.19-0.102,0.322-0.102,0.322
				s-0.161-0.108-0.384-0.235c-0.865,0.165-1.827,0.389-2.863,0.679c-0.195,0.409-0.293,0.787-0.293,0.787s-0.414-0.271-0.828-0.462
				c-0.66,0.203-1.347,0.428-2.055,0.675c-0.212,0.431-0.32,0.849-0.32,0.849s-0.393-0.259-0.796-0.445
				c-0.621,0.229-1.256,0.478-1.898,0.74c-0.213,0.431-0.319,0.846-0.319,0.846s-0.346-0.227-0.723-0.41
				c-2.241,0.957-4.582,2.101-6.911,3.421c0.546,1.31,3.056,4.522,5.692,5.375c1.804,0.584,3.024,0.707,3.733,0.707
				c0.517,0,0.762-0.065,0.762-0.065s-1.447,1.108-5.574,1.108c-0.157,0-0.318-0.002-0.482-0.005
				c-4.014-0.082-7.809-3.747-11.255-3.747c-0.238,0-0.476,0.018-0.71,0.055c-7.792,2.685-17.983,4.604-27.237,4.604
				c-0.024,0-0.049,0-0.074,0c-0.427,0.578-0.587,1.861,0.182,3.952c0.644,1.743,2.202,2.571,1.836,2.936
				c-0.072,0.072-0.229,0.109-0.455,0.109c-1.784,0-7.852-2.305-10.116-7.645c-13.801-2.16-24.147-6.811-25.862-8.71
				c-1.743-1.924-7.526-5.32-8.811-6.054c-1.287-0.734-1.377-1.376-0.368-1.746c0,0,4.13,0,4.589-0.091
				c0.459-0.091-0.305-0.46-2.049-1.378c-1.746-0.916-2.356-1.468-2.356-2.019c0-0.276-0.555,0.045,1.865-1.283
				c2.51-1.377,7.833-6.976,14.93-7.892c1.386-0.926,11.318-4.116,19.685-5.387C52.518,75.749,55.417,72.269,57.871,71.35
				 M57.88,69.211l-0.711,0.266c-2.476,0.928-4.937,3.579-6.566,5.334c-0.096,0.104-0.188,0.202-0.275,0.296
				c-7.587,1.23-16.683,3.971-19.349,5.327c-5.623,0.852-10.065,4.232-13.028,6.488c-0.916,0.696-1.706,1.298-2.219,1.579
				l-0.386,0.212c-1.882,1.033-2.274,1.248-2.508,2.169c-0.06,0.234-0.115,0.64,0.026,1.101c0.082,0.518,0.307,0.968,0.628,1.367
				c-1.259,0.648-1.487,1.676-1.524,2.121c-0.099,1.181,0.592,2.203,2.054,3.037c2.659,1.52,7.07,4.281,8.319,5.66
				c2.141,2.371,12.548,6.925,25.993,9.174c2.928,5.492,9.266,7.838,11.467,7.838c0.78,0,1.41-0.234,1.871-0.696
				c0.564-0.563,1.269-1.784-0.382-3.605c-0.367-0.404-0.782-0.863-0.994-1.437c-0.191-0.52-0.3-0.944-0.358-1.278
				c8.455-0.196,18.061-1.893,26.071-4.627c0.081-0.008,0.165-0.012,0.25-0.012c1.21,0,2.748,0.758,4.375,1.56
				c2.031,1.001,4.332,2.136,6.839,2.187c0.179,0.004,0.354,0.006,0.523,0.006c4.573,0,6.458-1.267,6.79-1.521l10.423-7.983
				l-12.115,4.448c-0.052,0.005-0.147,0.013-0.286,0.013c-0.461,0-1.479-0.079-3.118-0.609c-1.23-0.398-2.565-1.65-3.465-2.747
				c1.29-0.677,2.605-1.314,3.936-1.907l2.096,1.363l0.649-2.514c0.053-0.021,0.106-0.041,0.158-0.062l2.199,1.436l0.641-2.458
				c0.094-0.031,0.188-0.062,0.281-0.092l2.284,1.483l0.603-2.316c0.313-0.078,0.623-0.15,0.926-0.217l1.983,1.316l0.462-1.713
				c0.254-0.021,0.487-0.032,0.694-0.032c0.335,0,0.516,0.028,0.589,0.044c0.383,0.271,1.193,1.502,1.79,2.408
				c2.062,3.134,5.167,7.854,11.418,10.593c0.577,0.358,1.406,0.683,2.146,0.683c0.933,0,1.73-0.503,2.081-1.313
				c0.622-1.437-0.521-2.655-0.896-3.056c-1.195-1.276-5.28-8.574-5.517-12.784c-0.259-4.531,1.373-8.035,2.272-9.255
				c1.279-1.734,3.458-4.053,3.943-4.411c1.479-1.039,1.389-2.176,1.204-2.761c-0.113-0.358-0.614-1.526-2.305-1.526
				c-0.448,0-1.004,0.079-1.698,0.242c-3.913,0.921-6.238,3.27-8.109,5.398c-0.468,0.53-0.959,1.325-1.581,2.332
				c-0.999,1.614-3.336,5.395-4.772,5.433c-0.106,0-0.689-0.033-2.585-0.603l-0.724-2.457l-2.17,1.509
				c-0.032-0.012-0.065-0.022-0.097-0.034l-0.748-2.591l-2.189,1.526c-0.044-0.017-0.089-0.033-0.134-0.05
				c-0.009-0.029-0.017-0.055-0.022-0.075l-0.771-2.687l-2.274,1.583c-0.135-0.053-0.271-0.105-0.406-0.159
				c-0.015-0.045-0.027-0.086-0.037-0.118l-0.775-2.688l-2.257,1.578c-3.442-1.399-7.015-2.917-10.064-4.274
				c1.02-0.688,2.384-1.409,2.979-1.724c0.444-0.234,0.833-0.441,1.125-0.61l5.324-3.088L91.757,75.6
				c-0.446-0.046-0.908-0.069-1.372-0.069c-3.74,0-7.24,1.521-9.12,2.338c-0.192,0.083-0.406,0.176-0.594,0.255
				c-3.2-1.28-6.636-2.239-10.228-2.854c-0.813-0.372-1.536-0.643-2.15-0.805c-1.242-0.332-3.82-1.37-4.29-1.639l-0.346-0.198
				l-0.396-0.05c-0.196-0.026-0.777-0.299-1.232-0.812l-0.336-0.379l-0.476-0.174c-0.151-0.055-0.355-0.229-0.613-0.448
				c-0.456-0.389-1.081-0.922-2.015-1.281L57.88,69.211L57.88,69.211z"/>
		</g>
		<g>
			<linearGradient id="SVGID_3_" gradientUnits="userSpaceOnUse" x1="171.2354" y1="123.3418" x2="46.5435" y2="123.3418">
				<stop  offset="0" style="stop-color:#F8BC7F"/>
				<stop  offset="1" style="stop-color:#F18A24"/>
			</linearGradient>
			<path fill="url(#SVGID_3_)" d="M169.475,106.951c-3.345,0.787-5.412,2.656-7.575,5.116c-1.475,1.675-4.723,8.954-8.363,9.053
				c-0.771,0.019-2.376-0.382-4.491-1.063c-0.194-0.433-0.331-0.904-0.331-0.904s-0.415,0.289-0.924,0.491
				c-0.621-0.208-1.276-0.44-1.954-0.684c-0.214-0.449-0.368-0.99-0.368-0.99s-0.437,0.306-0.961,0.509
				c-0.628-0.229-1.272-0.472-1.933-0.723c-0.254-0.475-0.452-1.164-0.452-1.164s-0.522,0.365-1.108,0.563
				c-0.711-0.275-1.435-0.558-2.16-0.847c-0.263-0.476-0.47-1.194-0.47-1.194s-0.521,0.364-1.105,0.564
				c-5.204-2.099-10.545-4.399-14.272-6.111c0.122-2.011,5.03-4.195,6.721-5.176c-5.343-0.552-10.6,2.688-11.732,2.862
				c-3.752-1.575-7.631-2.636-11.539-3.284c-0.667-0.315-1.495-0.667-2.21-0.855c-1.477-0.395-4.427-1.575-5.116-1.97
				c-0.789-0.1-1.87-0.688-2.656-1.573c-1.083-0.395-1.574-1.376-2.854-1.869c-2.63,0.985-5.739,4.716-7.035,6.032
				c-8.97,1.362-19.617,4.783-21.104,5.774c-7.607,0.982-13.314,6.985-16.005,8.461c-2.595,1.424-2,1.08-2,1.375
				c0,0.592,0.655,1.183,2.526,2.165c1.869,0.984,2.689,1.379,2.197,1.478c-0.492,0.097-4.92,0.097-4.92,0.097
				c-1.083,0.397-0.985,1.084,0.395,1.872c1.377,0.786,7.577,4.427,9.445,6.49c1.838,2.036,12.93,7.021,27.726,9.337
				c2.734,6.449,10.644,8.77,11.333,8.079c0.392-0.392-1.278-1.278-1.968-3.147c-0.824-2.241-0.653-3.617-0.195-4.237
				c9.942,0.011,20.902-2.049,29.278-4.935c3.896-0.621,8.227,3.863,12.828,3.958c4.822,0.098,6.493-1.183,6.493-1.183
				s-1.476,0.394-4.818-0.688c-2.827-0.913-5.518-4.358-6.103-5.762c2.497-1.416,5.007-2.642,7.409-3.668
				c0.403,0.196,0.774,0.439,0.774,0.439s0.113-0.444,0.343-0.906c0.688-0.281,1.369-0.549,2.034-0.794
				c0.433,0.2,0.854,0.478,0.854,0.478s0.117-0.448,0.344-0.91c0.76-0.264,1.495-0.506,2.203-0.723
				c0.444,0.205,0.887,0.495,0.887,0.495s0.105-0.405,0.314-0.845c1.111-0.31,2.143-0.55,3.069-0.727
				c0.239,0.136,0.411,0.252,0.411,0.252s0.039-0.141,0.111-0.346c1.725-0.288,3.04-0.314,3.776-0.068
				c2.659,0.884,4.822,9.936,14.464,14.067c0.688,0.495,2.461,0.985,0.983-0.591c-1.475-1.574-6.197-9.836-6.491-15.052
				c-0.297-5.215,1.474-9.444,2.851-11.313c1.38-1.869,3.958-4.681,4.723-5.213C171.735,106.755,171.173,106.552,169.475,106.951z"
				/>
			<path fill="#471F0D" d="M93.619,97.703c1.28,0.493,1.771,1.475,2.854,1.869c0.786,0.886,1.867,1.474,2.656,1.573
				c0.689,0.395,3.639,1.575,5.116,1.97c0.716,0.188,1.543,0.54,2.21,0.855c3.907,0.648,7.787,1.709,11.539,3.284
				c1.044-0.16,5.592-2.926,10.481-2.926c0.415,0,0.833,0.021,1.251,0.063c-1.69,0.98-6.599,3.165-6.721,5.176
				c3.728,1.712,9.068,4.013,14.272,6.111c0.585-0.2,1.105-0.564,1.105-0.564s0.207,0.719,0.47,1.194
				c0.726,0.289,1.449,0.571,2.16,0.847c0.586-0.198,1.108-0.563,1.108-0.563s0.198,0.689,0.452,1.164
				c0.66,0.251,1.305,0.494,1.933,0.723c0.524-0.203,0.961-0.509,0.961-0.509s0.154,0.541,0.368,0.99
				c0.678,0.243,1.333,0.476,1.954,0.684c0.509-0.202,0.924-0.491,0.924-0.491s0.137,0.472,0.331,0.904
				c2.067,0.665,3.647,1.063,4.438,1.063c0.019,0,0.036,0,0.054,0c3.641-0.099,6.889-7.378,8.363-9.053
				c2.163-2.46,4.23-4.329,7.575-5.116c0.582-0.137,1.031-0.203,1.33-0.203c0.572,0,0.594,0.243-0.053,0.697
				c-0.765,0.532-3.343,3.344-4.723,5.213c-1.377,1.869-3.147,6.099-2.851,11.313c0.294,5.216,5.017,13.478,6.491,15.052
				c0.757,0.808,0.661,1.072,0.294,1.072c-0.349,0-0.941-0.24-1.277-0.481c-9.642-4.132-11.805-13.184-14.464-14.067
				c-0.336-0.112-0.791-0.168-1.352-0.168c-0.669,0-1.486,0.079-2.425,0.236c-0.072,0.205-0.111,0.346-0.111,0.346
				s-0.172-0.116-0.411-0.252c-0.927,0.177-1.958,0.417-3.069,0.727c-0.209,0.439-0.314,0.845-0.314,0.845s-0.442-0.29-0.887-0.495
				c-0.708,0.217-1.443,0.459-2.203,0.723c-0.227,0.462-0.344,0.91-0.344,0.91s-0.421-0.277-0.854-0.478
				c-0.665,0.245-1.346,0.513-2.034,0.794c-0.229,0.462-0.343,0.906-0.343,0.906s-0.371-0.243-0.774-0.439
				c-2.402,1.026-4.912,2.252-7.409,3.668c0.585,1.403,3.275,4.849,6.103,5.762c1.935,0.626,3.243,0.758,4.003,0.758
				c0.554,0,0.815-0.069,0.815-0.069s-1.55,1.188-5.975,1.188c-0.168,0-0.342-0.002-0.519-0.005
				c-4.304-0.089-8.371-4.018-12.066-4.018c-0.256,0-0.51,0.02-0.762,0.06c-8.354,2.878-19.279,4.935-29.201,4.935
				c-0.026,0-0.052,0-0.078,0c-0.458,0.62-0.629,1.996,0.195,4.237c0.69,1.869,2.36,2.756,1.968,3.147
				c-0.078,0.077-0.246,0.117-0.488,0.117c-1.913,0-8.417-2.472-10.844-8.196c-14.795-2.315-25.887-7.301-27.726-9.337
				c-1.869-2.063-8.068-5.704-9.445-6.49c-1.379-0.788-1.477-1.475-0.395-1.872c0,0,4.428,0,4.92-0.097
				c0.492-0.099-0.328-0.493-2.197-1.478c-1.872-0.982-2.526-1.573-2.526-2.165c0-0.295-0.595,0.049,2-1.375
				c2.69-1.476,8.397-7.479,16.005-8.461c1.486-0.991,12.134-4.412,21.104-5.774C87.879,102.419,90.988,98.688,93.619,97.703
				 M93.629,95.564l-0.711,0.266c-2.623,0.982-5.248,3.811-6.985,5.682c-0.116,0.125-0.225,0.243-0.329,0.354
				c-7.926,1.285-17.939,4.271-20.769,5.716c-6.002,0.9-10.756,4.52-13.925,6.931c-0.986,0.751-1.837,1.399-2.396,1.706l-0.41,0.225
				c-2.024,1.109-2.389,1.31-2.624,2.236c-0.06,0.235-0.115,0.642,0.027,1.105c0.089,0.599,0.361,1.107,0.756,1.558
				c-1.423,0.656-1.672,1.764-1.711,2.232c-0.101,1.205,0.615,2.255,2.129,3.119c2.859,1.633,7.602,4.603,8.955,6.097
				c2.285,2.53,13.438,7.4,27.854,9.802c3.094,5.879,9.856,8.389,12.199,8.389c0.797,0,1.438-0.237,1.904-0.705
				c0.695-0.693,1.191-1.896-0.414-3.666c-0.402-0.443-0.857-0.946-1.094-1.587c-0.246-0.669-0.364-1.182-0.417-1.561
				c9.096-0.191,19.457-2.015,28.086-4.962c0.098-0.011,0.197-0.016,0.3-0.016c1.331,0,2.994,0.82,4.755,1.688
				c2.163,1.066,4.615,2.275,7.271,2.329c0.191,0.004,0.378,0.006,0.56,0.006c4.857,0,6.843-1.333,7.191-1.601l10.21-7.826
				l-11.905,4.293c-0.057,0.007-0.169,0.016-0.337,0.016c-0.503,0-1.611-0.086-3.387-0.66c-1.394-0.45-2.909-1.903-3.891-3.128
				c1.458-0.771,2.947-1.494,4.452-2.162l2.149,1.398l0.659-2.575c0.104-0.041,0.206-0.081,0.308-0.12l2.247,1.467l0.66-2.514
				c0.149-0.05,0.297-0.098,0.442-0.145c0.002,0.001,0.004,0.003,0.006,0.004l2.328,1.518l0.621-2.375
				c0.389-0.098,0.769-0.187,1.14-0.267l1.986,1.323l0.483-1.729c0.32-0.03,0.612-0.046,0.868-0.046c0.417,0,0.622,0.04,0.69,0.057
				c0.417,0.261,1.319,1.632,1.981,2.638c2.201,3.347,5.518,8.389,12.187,11.307c0.601,0.376,1.466,0.716,2.235,0.716
				c0.941,0,1.745-0.506,2.098-1.319c0.63-1.453-0.506-2.665-0.934-3.121c-1.29-1.377-5.697-9.252-5.953-13.796
				c-0.278-4.888,1.418-8.595,2.464-10.015c1.393-1.887,3.741-4.383,4.259-4.761c1.513-1.062,1.425-2.21,1.238-2.8
				c-0.113-0.36-0.618-1.536-2.332-1.536c-0.47,0-1.055,0.084-1.788,0.257c-4.154,0.978-6.627,3.476-8.619,5.741
				c-0.493,0.561-1.017,1.407-1.681,2.48c-1.174,1.898-3.617,5.851-5.234,5.894c-0.121,0-0.777-0.036-2.893-0.675l-0.738-2.515
				l-2.226,1.543c-0.081-0.028-0.163-0.057-0.245-0.085l-0.768-2.654l-2.242,1.563c-0.093-0.034-0.186-0.069-0.279-0.104
				c-0.02-0.058-0.036-0.111-0.049-0.155l-0.779-2.677l-2.286,1.593c-0.013,0.008-0.026,0.018-0.042,0.027
				c-0.188-0.074-0.378-0.148-0.568-0.223c-0.024-0.075-0.046-0.144-0.063-0.199l-0.78-2.677l-2.286,1.595
				c-0.008,0.005-0.017,0.011-0.028,0.018c-3.797-1.542-7.753-3.225-11.102-4.718c1.12-0.786,2.734-1.639,3.419-2.001
				c0.475-0.251,0.891-0.472,1.203-0.653l5.322-3.087l-6.121-0.632c-0.473-0.049-0.963-0.074-1.456-0.074
				c-3.979,0-7.573,1.561-9.72,2.494c-0.225,0.098-0.479,0.207-0.694,0.297c-3.443-1.382-7.142-2.416-11.007-3.076
				c-0.871-0.399-1.643-0.689-2.299-0.862c-1.34-0.357-4.125-1.48-4.634-1.772l-0.347-0.197l-0.396-0.051
				c-0.234-0.029-0.889-0.328-1.41-0.916l-0.336-0.379l-0.476-0.174c-0.177-0.064-0.382-0.234-0.702-0.507
				c-0.481-0.41-1.14-0.972-2.119-1.349L93.629,95.564L93.629,95.564z"/>
		</g>
	</g>
</g>
</svg>
