<?xml version="1.0" encoding="utf-8"?>
<!-- Generator: Adobe Illustrator 15.1.0, SVG Export Plug-In . SVG Version: 6.00 Build 0)  -->
<!DOCTYPE svg PUBLIC "-//W3C//DTD SVG 1.1//EN" "http://www.w3.org/Graphics/SVG/1.1/DTD/svg11.dtd">
<svg version="1.1" id="レイヤー_1" xmlns="http://www.w3.org/2000/svg" xmlns:xlink="http://www.w3.org/1999/xlink" x="0px"
	 y="0px" width="185.195px" height="213.846px" viewBox="0 0 185.195 213.846" enable-background="new 0 0 185.195 213.846"
	 xml:space="preserve">
<g>
	<g>
		<polygon fill="#471F0D" points="0,53.46 92.599,-0.001 185.196,53.46 185.196,160.385 92.599,213.847 0,160.385 		"/>
		<path fill="#DFB191" d="M92.599,5.772l87.598,50.574v101.151l-87.598,50.575L5,157.498V56.347L92.599,5.772 M92.599-0.001L0,53.46
			v106.925l92.599,53.462l92.598-53.462V53.46L92.599-0.001L92.599-0.001z"/>
	</g>
	<g>
		
			<linearGradient id="SVGID_1_" gradientUnits="userSpaceOnUse" x1="105.6392" y1="171.6401" x2="105.6392" y2="61.0288" gradientTransform="matrix(0.9955 -0.0945 0.0945 0.9955 -40.2421 -10.7154)">
			<stop  offset="0" style="stop-color:#F8BC7F"/>
			<stop  offset="1" style="stop-color:#F18A24"/>
		</linearGradient>
		<path fill="url(#SVGID_1_)" d="M82.698,119.174c-0.276,0.414-0.602,0.816-0.465,1.244c0.195,0.609,1.296-0.628,1.13-0.146
			c-0.166,0.479-1.215,4.297-1.145,5.262c0.067,0.97,1.584,2.431,1.98,3.244c0.393,0.807,3.677,6.117,4.546,7.493
			c0.873,1.38,0.545,1.939,0.212,2.903c-0.333,0.965-2.187,1.663-2.194,2.07c-0.006,0.402-0.375,1.084-0.463,1.724
			c-0.09,0.644,0.645,0.091,0.852-0.511c0.207-0.604,1.06-1.121,1.785-1.273c0.727-0.148,1.84,0.909,2.117,1.68
			c0.27,0.764,0.09,2.855,0.09,2.855s-0.25,0.723-0.176,1.286c0.075,0.563,0.811-0.392,1.22-1.194
			c0.41-0.801,0.464-1.725,0.552-2.366c0.088-0.644,0.676,0.366,1.518,1.064c0.836,0.69,1.428,1.7,1.705,2.47
			c0.271,0.768-0.496,1.041-0.301,1.647c0.197,0.604,1.215-0.791,1.381-1.276c0.164-0.477,0.506-1.843-0.768-3.23
			c-1.277-1.375-3.705-3.699-4.099-4.508c-0.394-0.813-5.901-9.446-6.53-10.738c-0.634-1.299,0.05-4.429,0.744-5.669
			c0.406-0.722,1.169-2.22,1.74-3.352c0.502,0.44,0.962,0.896,0.944,1.217c-0.032,0.561-0.329,1.056-0.063,1.585
			c0.263,0.527,0.881-1.066,0.867-0.723c-0.011,0.344,0.294,1.293,0.326,2.057c0.028,0.77,0.829,2.053,1.263,2.994
			c0.432,0.939,2.024,2.92,2.264,3.623c0.236,0.701,1.047,0.709,1.986,1.602c0.932,0.893,8.664,6.424,9.271,7.004
			c0.609,0.584,0.068,1.611-0.336,2.29c-0.406,0.683-0.121,0.951-0.162,1.852c-0.047,0.897,0.553,0.886,0.73,0.99
			c0.182,0.117-0.115-0.798,0.061-0.769c0.168,0.029,0.553-0.434,0.512-0.859c-0.039-0.417,0.43-1.277,0.789-1.563
			c0.357-0.293,0.971-0.48,1.254-0.25c0.277,0.232,1.217,1.121,1.24,1.377c0.023,0.253,0.553,1.779,0.473,2.298
			c-0.082,0.517,0.455,0.72,0.482,1.018c0.029,0.296-0.152,0.656,0.156,0.753c0.311,0.102,0.477-0.813,0.66-1.131
			c0.18-0.311,0.232-0.656,0.186-1.162c-0.049-0.51-0.084-1.362-0.131-1.868c-0.049-0.503,0.074-0.987,0.736-0.745
			c0.666,0.234,1.867,0.844,2.252,1.23c0.375,0.393,1.045,1.176,1.082,1.561c0.035,0.38-0.146,0.699,0.135,0.926
			c0.381,0.046,0.697-0.706,0.83-1.104c0.111-0.184,0.133-0.82-0.184-1.476c-0.814-1.837-1.885-2.377-3.1-3.03
			c-1.209-0.65-2.748-0.633-3.91-0.779c-1.164-0.145-4.172-2.158-6.141-4.021c-1.963-1.862-6.047-5.815-5.986-6.465
			c0.068-0.646-0.521-1.484-0.826-1.964c-0.301-0.487-0.02-2.942-0.199-4.845c-0.182-1.899,0.799-5.061,0.916-6.481
			c0.125-1.418,0.645,0.067,0.766,1.337c0.119,1.266,0.527,1.484,0.834,0.685c-0.352-5.08,1.699-5.021,2.414-4.188
			c0.723,0.824,0.77,1.331,0.83,1.962c0.061,0.637-0.373,1.442,0.051,1.914c0.43,0.472,0.92-1.108,0.969-0.603
			c0.047,0.506,0.674,4.414,1.137,5.264c0.463,0.854,2.449,1.557,3.146,2.133c0.693,0.57,5.881,4.045,7.242,4.936
			c1.367,0.895,1.299,1.541,1.396,2.556c0.096,1.017-1.301,2.42-1.141,2.792c0.162,0.369,0.109,1.143,0.293,1.762
			c0.186,0.621,0.623-0.186,0.563-0.818c-0.059-0.635,0.5-1.459,1.1-1.898c0.6-0.438,2.049,0.064,2.621,0.652
			c0.563,0.584,1.266,2.562,1.266,2.562s0.072,0.761,0.373,1.243s0.576-0.691,0.615-1.592c0.041-0.898-0.293-1.762-0.479-2.382
			c-0.188-0.624,0.768,0.051,1.822,0.339c1.045,0.281,2.004,0.955,2.574,1.541c0.566,0.588-0.02,1.154,0.408,1.625
			c0.432,0.469,0.779-1.222,0.73-1.732c-0.049-0.502-0.305-1.887-2.037-2.623c-1.732-0.724-4.906-1.831-5.6-2.404
			c-0.695-0.578-9.283-6.154-10.391-7.069c-1.115-0.919-1.791-4.052-1.672-5.468c0.121-1.424,0.256-5.398,0.256-5.398
			s0,0,0.416,0.344c0.414,0.345,0.445-3.369,0.375-4.125c-0.072-0.762,1.467-2.059,2.273-3.029c0.803-0.973,6.16-5.191,7.939-5.234
			c1.787-0.039,6.125-0.965,7.42-1.354c1.295-0.391,5.229-1.033,6.359-0.338c1.137,0.689,3.893,1.76,5.629,3.193
			c1.736,1.436,2.264,1.38,2.381-0.227c-1.154-6.548-5.555-7.996-5.555-7.996s-0.281-4.381-1.424-5.68
			c-1.15-1.303-3.129-3.288-3.949-3.844c-0.818-0.563-5.406-0.383-7.824-0.284c-2.42,0.101-2.959-1.507-4.553-2.124
			c-1.594-0.619-1.074-4.629,1.328-7.545c2.414-2.915,5.461-4.48,7.338-7.6c1.879-3.119,2.578-6.512,3.314-12.207
			c0.744-5.699-2.494-10.124-4.258-13.917c-1.77-3.801-4.373-4.321-5.049-4.637c-0.664-0.32,0.182,4.583,0.969,7.45
			c0.783,2.869-0.73,3.137-0.902,2.645c-0.178-0.497-0.832-3.374-2.732-4.475c-1.893-1.098-1.396,1.413-1.174,2.416
			c0.227,1,0.443,3.282-0.021,3.841c-0.455,0.553-2.291,0.087-3.375-0.58c-1.086-0.661-1.6,0.667-2.021,1.602
			c-0.424,0.935-0.621,2.872-1.035,3.936c-0.41,1.06-1.549,1.168-1.842,0.811c-0.285-0.354-0.119-1.267-0.674-1.722
			c-0.553-0.461-1.154-0.02-0.998,1.626c0.156,1.648,0.025,5.624-0.719,4.544c-0.742-1.075-1.031-2.842-1.828-1.744
			c-0.789,1.099,0.553,5.83-0.115,5.512c-0.67-0.324-2.158-1.203-3.598-0.17c-1.436,1.03-0.189,2.063-1.789,2.726
			c-1.596,0.661-3.439,4.161-4.481,5.285c-1.046,1.122-0.683,2.237-3.438,2.883c-2.753,0.646-2.479,2.157-4.489,3.88
			c-2.012,1.727-3.225,1.074-4.365,1.183c-1.139,0.108-2.537-2.44-2.764-7.542c-0.223-5.091-1.348-8.818-2.338-8.469
			c-0.988,0.349-0.246,4.111-0.578,4.659c-0.337,0.54-0.725-4.923-0.76-5.303c-0.037-0.38-1.553-1.515-2.613-1.928
			c-1.063-0.409-1.781-1.233-2.024-2.488c-0.251-1.255-3.312-2.499-4.256-3.052c-0.948-0.55-1.536,0.02-2.964-0.228
			c-1.428-0.245-2.535,0.241-2.371,0.608c0.16,0.369,0.482,2.387,0.482,2.387s-1.183-1.681-2.02-2.371
			c-0.83-0.686-4.833-1.076-4.645-0.453c0.187,0.624,1.347,2.046,0.698,1.981c-0.646-0.067-1.743-2.263-2.901-2.282
			c-1.154-0.021-3.129,2.088-3.342,2.491c-0.217,0.404-0.096,1.672,0.885,2.602c0.984,0.929,1.619,2.272,0.042,1.787
			c-1.579-0.493-3.83-2.579-4.509-3.026c-0.681-0.447-1.143,0.108-1.762,0.296c-0.621,0.187-1.463,0.78-2.438,1.254
			c-0.976,0.476-1.3,1.147-0.975,1.882c0.329,0.738,3.251,3.273,1.965,3.141c-1.295-0.133-2.575-1.545-3.249-1.869
			c-0.672-0.316-0.747,0.201-2.474,0.875c-1.728,0.678-3.155,3.116-2.72,3.711c0.443,0.601,3.972,4.1,4.53,4.558
			c0.554,0.462-1.27,0.12-2.46-0.278c-1.186-0.395-2.398-1.051-3.758-0.535c-1.359,0.514-1.541,1.294-1.926,2.609
			c-0.389,1.318,2.271,3.752,0.818,3.248c-1.455-0.498-2.803,0.141-2.371,0.611c0.428,0.47,4.92,3.37,6.186,4.525
			c1.261,1.158,0.422,1.752-0.34,1.824c-0.764,0.072-1.971-0.58-1.971-0.58l0.014,1.533l-2.455-2.965l-1.458,0.777
			c0,0,0.753,1.206,0.639,1.345c-0.116,0.142-1.63-0.995-2.058-1.464c-0.43-0.474-1.572,2.325-1.613,3.223
			c-0.043,0.9,2.095,1.846,2.095,1.846s-1.962-0.452-2.939,0.023c-0.979,0.478,3.316,2.627,5.189,3.474
			c1.866,0.845,0.765,1.333-0.489,1.579c-1.255,0.25-4.562,0.434-6.211,0.59c-1.645,0.156-5.371,0-3.261,0.691
			c2.116,0.698,4.825,0.951,5.85,0.984c1.022,0.027,1.03,1.435-0.938,2.262c-1.967,0.828-2.73,0.9-6.86,1.801
			c-4.137,0.902-3.868,1.006-2.313,1.245c1.559,0.235,7.172,0.085,8.173-0.14c1-0.219-2.713,2.433-6.122,2.884
			c-3.411,0.45,1.414,1.399,4.213,1.262c2.8-0.138,6.61-1.777,8.914-1.739c2.307,0.036,18.823,0.262,17.351,0.906
			c-1.472,0.654-1.906,1.462-1.109,1.771c0.8,0.307,5.298-0.761,5.995-0.186c0.691,0.575-0.696,0.834-5.7,1.945
			c-5.012,1.119-3.315,1.465-0.1,1.672c3.221,0.209,8.24-0.782,10.418-0.729c2.18,0.048,10.237,0.045,12.059,0.387
			c1.826,0.339,4.163,0.754,7.086,4.57c1.286,1.682,3.572,3.243,5.775,4.516c-0.67,0.375-1.465,1.373-2.248,3.467L82.698,119.174"/>
		<path fill="#84C6D0" d="M102.229,155.535c4.4,0.002,8.803,0.164,13.197,0.635c2.197,0.245,4.398,0.541,6.58,1.094
			c1.088,0.282,2.182,0.595,3.256,1.096c0.535,0.253,1.072,0.55,1.586,0.984c0.488,0.445,1.061,1.033,1.104,2.105l0.002,0.104
			l-0.002,0.055l-0.008,0.104c-0.014,0.146-0.039,0.266-0.064,0.368c-0.055,0.218-0.135,0.421-0.23,0.603
			c-0.189,0.365-0.424,0.658-0.666,0.912c-0.488,0.502-1.012,0.867-1.535,1.188c-1.053,0.632-2.129,1.096-3.215,1.489
			c-2.178,0.771-4.381,1.323-6.6,1.746c-4.438,0.83-8.924,1.175-13.404,1.185c-4.48-0.008-8.969-0.346-13.408-1.176
			c-2.22-0.418-4.422-0.975-6.6-1.744c-1.088-0.392-2.164-0.857-3.217-1.49c-0.525-0.32-1.048-0.688-1.537-1.189
			c-0.243-0.254-0.479-0.549-0.67-0.915c-0.191-0.359-0.318-0.823-0.305-1.288c0.015-0.193,0.008-0.119,0.035-0.312
			c0.021-0.146,0.054-0.261,0.088-0.359c0.068-0.211,0.162-0.401,0.268-0.569c0.213-0.34,0.465-0.601,0.719-0.82
			c0.515-0.436,1.051-0.732,1.589-0.986c1.075-0.5,2.168-0.814,3.258-1.094c2.181-0.553,4.384-0.85,6.58-1.092
			C93.427,155.698,97.829,155.537,102.229,155.535z M102.229,155.535c-4.398,0.009-8.809,0.348-13.121,1.16
			c-2.152,0.411-4.283,0.956-6.314,1.684c-1.012,0.368-1.998,0.809-2.865,1.344c-0.431,0.267-0.829,0.568-1.118,0.887
			c-0.299,0.319-0.41,0.637-0.366,0.788c0.026,0.149,0.18,0.39,0.502,0.646c0.314,0.251,0.727,0.484,1.17,0.683
			c0.889,0.405,1.893,0.692,2.904,0.949c2.035,0.51,4.166,0.793,6.296,1.028c4.271,0.453,8.593,0.614,12.913,0.619
			c4.318-0.004,8.643-0.158,12.912-0.609c2.133-0.23,4.262-0.519,6.299-1.027c1.012-0.254,2.016-0.545,2.906-0.949
			c0.887-0.389,1.674-0.974,1.678-1.391c-0.002,0.101,0,0.023,0,0.043v-0.008l0.002-0.017c0.004-0.011,0.004-0.022,0.002-0.035
			c0.002-0.024,0-0.05-0.004-0.077c-0.006-0.055-0.025-0.119-0.055-0.189c-0.063-0.141-0.172-0.303-0.316-0.461
			c-0.291-0.318-0.689-0.62-1.121-0.887c-0.867-0.535-1.855-0.977-2.865-1.343c-2.033-0.726-4.164-1.271-6.316-1.68
			C111.036,155.882,106.628,155.544,102.229,155.535z"/>
		<path fill="#84C6D0" d="M105.229,153.877c3.795-0.009,7.588,0.094,11.379,0.295c3.789,0.204,7.578,0.489,11.35,0.983
			c3.771,0.493,7.543,1.085,11.248,2.103c1.85,0.519,3.693,1.104,5.473,1.979c0.887,0.444,1.762,0.953,2.566,1.663
			c0.396,0.357,0.781,0.769,1.09,1.281c0.311,0.518,0.533,1.115,0.547,1.831c0.018,0.614-0.174,1.306-0.463,1.827
			c-0.287,0.541-0.656,0.984-1.041,1.375c-0.779,0.776-1.643,1.354-2.516,1.865c-1.758,1.006-3.586,1.742-5.432,2.371
			c-3.703,1.232-7.475,2.094-11.27,2.746c-7.594,1.274-15.264,1.838-22.936,1.836c-7.662,0.002-15.341-0.549-22.934-1.828
			c-3.797-0.645-7.566-1.514-11.27-2.744c-1.85-0.627-3.677-1.365-5.435-2.372c-0.874-0.512-1.736-1.091-2.517-1.868
			c-0.387-0.391-0.756-0.836-1.043-1.379c-0.289-0.545-0.481-1.165-0.463-1.883c0.016-0.617,0.24-1.289,0.551-1.784
			c0.31-0.515,0.693-0.925,1.093-1.283c0.805-0.71,1.681-1.22,2.568-1.663c1.779-0.875,3.624-1.461,5.476-1.977
			c3.705-1.018,7.477-1.61,11.248-2.1c3.771-0.493,7.563-0.779,11.352-0.981C97.642,153.971,101.437,153.868,105.229,153.877z
			 M105.229,153.877c-7.584,0-15.181,0.555-22.648,1.814c-3.729,0.639-7.428,1.492-10.984,2.682
			c-1.771,0.604-3.511,1.316-5.082,2.227c-0.779,0.457-1.52,0.973-2.1,1.564c-0.584,0.6-0.944,1.238-0.899,1.846
			c0.024,0.506,0.427,1.139,1.034,1.652c0.604,0.525,1.357,0.973,2.148,1.361c1.594,0.779,3.352,1.339,5.123,1.832
			c3.561,0.975,7.261,1.554,10.963,2.038c3.708,0.485,7.449,0.763,11.193,0.967c3.746,0.198,7.494,0.3,11.254,0.294
			c3.746,0.008,7.504-0.091,11.248-0.289c3.744-0.195,7.484-0.48,11.191-0.963c3.705-0.477,7.404-1.063,10.967-2.036
			c1.773-0.489,3.529-1.053,5.125-1.832c0.791-0.39,1.547-0.837,2.15-1.362c0.609-0.537,1.014-1.1,1.039-1.711
			c0.045-0.512-0.316-1.225-0.902-1.803c-0.58-0.592-1.32-1.108-2.1-1.565c-1.572-0.91-3.313-1.624-5.084-2.226
			c-3.559-1.188-7.258-2.043-10.986-2.679C120.411,154.43,112.815,153.877,105.229,153.877z"/>
	</g>
</g>
</svg>
