<?xml version="1.0" encoding="utf-8"?>
<!-- Generator: Adobe Illustrator 15.1.0, SVG Export Plug-In . SVG Version: 6.00 Build 0)  -->
<!DOCTYPE svg PUBLIC "-//W3C//DTD SVG 1.1//EN" "http://www.w3.org/Graphics/SVG/1.1/DTD/svg11.dtd">
<svg version="1.1" id="レイヤー_1" xmlns="http://www.w3.org/2000/svg" xmlns:xlink="http://www.w3.org/1999/xlink" x="0px"
	 y="0px" width="185.195px" height="213.846px" viewBox="0 0 185.195 213.846" enable-background="new 0 0 185.195 213.846"
	 xml:space="preserve">
<g>
	<g>
		<polygon fill="#471F0D" points="0,53.461 92.599,0 185.195,53.461 185.195,160.385 92.599,213.846 0,160.385 		"/>
		<path fill="#DFB191" d="M92.599,5.773l87.597,50.574v101.15l-87.597,50.574L5,157.498V56.348L92.599,5.773 M92.599,0L0,53.461
			v106.924l92.599,53.461l92.597-53.461V53.461L92.599,0L92.599,0z"/>
	</g>
	<path fill="#84C6D0" d="M92.603,155.535c4.401,0.002,8.804,0.164,13.199,0.635c2.196,0.246,4.398,0.541,6.579,1.094
		c1.088,0.283,2.182,0.596,3.256,1.096c0.536,0.254,1.072,0.551,1.586,0.984c0.488,0.445,1.061,1.033,1.104,2.105l0.001,0.104
		l-0.001,0.055l-0.009,0.104c-0.014,0.146-0.039,0.266-0.064,0.369c-0.055,0.217-0.135,0.42-0.229,0.602
		c-0.189,0.365-0.425,0.658-0.667,0.912c-0.488,0.502-1.011,0.867-1.535,1.188c-1.053,0.633-2.128,1.096-3.215,1.49
		c-2.178,0.77-4.38,1.322-6.599,1.746c-4.438,0.83-8.925,1.174-13.406,1.184c-4.479-0.008-8.967-0.346-13.406-1.176
		c-2.221-0.418-4.422-0.975-6.6-1.744c-1.089-0.391-2.164-0.857-3.218-1.49c-0.524-0.32-1.048-0.688-1.537-1.189
		c-0.243-0.254-0.479-0.549-0.669-0.914c-0.191-0.359-0.318-0.824-0.305-1.289c0.014-0.193,0.008-0.119,0.035-0.311
		c0.021-0.146,0.053-0.262,0.087-0.359c0.068-0.211,0.163-0.402,0.269-0.57c0.213-0.34,0.464-0.6,0.719-0.82
		c0.514-0.436,1.051-0.732,1.588-0.986c1.076-0.5,2.168-0.814,3.258-1.094c2.182-0.553,4.384-0.85,6.58-1.092
		C83.801,155.699,88.203,155.537,92.603,155.535z M92.603,155.535c-4.398,0.01-8.807,0.348-13.119,1.16
		c-2.152,0.412-4.283,0.957-6.315,1.684c-1.011,0.369-1.997,0.809-2.864,1.344c-0.432,0.268-0.83,0.568-1.119,0.887
		c-0.299,0.32-0.41,0.637-0.365,0.789c0.025,0.148,0.18,0.389,0.502,0.645c0.313,0.252,0.727,0.484,1.169,0.684
		c0.89,0.404,1.894,0.691,2.905,0.949c2.035,0.51,4.166,0.793,6.295,1.027c4.271,0.453,8.594,0.615,12.912,0.619
		c4.319-0.004,8.644-0.158,12.914-0.609c2.132-0.23,4.262-0.518,6.298-1.027c1.013-0.254,2.017-0.545,2.907-0.949
		c0.886-0.389,1.673-0.973,1.677-1.391c-0.002,0.102,0,0.023,0,0.043v-0.008l0.002-0.016c0.004-0.012,0.004-0.023,0.002-0.035
		c0.003-0.025,0-0.051-0.004-0.078c-0.006-0.055-0.024-0.119-0.055-0.189c-0.062-0.141-0.172-0.303-0.316-0.461
		c-0.29-0.318-0.689-0.619-1.12-0.887c-0.868-0.535-1.855-0.977-2.866-1.342c-2.033-0.727-4.164-1.271-6.316-1.68
		C101.41,155.883,97.002,155.545,92.603,155.535z"/>
	<path fill="#84C6D0" d="M92.604,153.877c3.793-0.008,7.587,0.094,11.378,0.295c3.789,0.205,7.579,0.49,11.351,0.984
		c3.771,0.492,7.542,1.084,11.247,2.102c1.85,0.52,3.694,1.104,5.473,1.98c0.887,0.443,1.762,0.953,2.566,1.662
		c0.397,0.357,0.781,0.77,1.09,1.281c0.311,0.518,0.533,1.115,0.547,1.832c0.018,0.613-0.174,1.305-0.463,1.826
		c-0.287,0.541-0.656,0.984-1.041,1.375c-0.779,0.777-1.642,1.355-2.516,1.865c-1.757,1.006-3.585,1.742-5.432,2.371
		c-3.703,1.232-7.474,2.094-11.269,2.746c-7.595,1.275-15.265,1.838-22.938,1.836c-7.66,0.002-15.34-0.549-22.933-1.828
		c-3.796-0.645-7.565-1.514-11.269-2.744c-1.85-0.627-3.678-1.365-5.436-2.371c-0.873-0.512-1.736-1.092-2.516-1.869
		c-0.387-0.391-0.756-0.836-1.043-1.379c-0.289-0.545-0.482-1.164-0.463-1.883c0.015-0.617,0.239-1.289,0.55-1.783
		c0.31-0.516,0.694-0.926,1.093-1.283c0.805-0.711,1.682-1.221,2.568-1.664c1.779-0.875,3.625-1.461,5.476-1.977
		c3.706-1.018,7.478-1.609,11.249-2.1c3.771-0.492,7.562-0.779,11.351-0.98C85.017,153.971,88.812,153.869,92.604,153.877z
		 M92.604,153.877c-7.586,0-15.182,0.555-22.649,1.814c-3.728,0.639-7.427,1.492-10.984,2.682c-1.771,0.604-3.511,1.316-5.082,2.227
		c-0.779,0.457-1.52,0.973-2.099,1.564c-0.585,0.6-0.945,1.238-0.9,1.846c0.025,0.506,0.427,1.139,1.034,1.652
		c0.604,0.525,1.358,0.973,2.149,1.361c1.594,0.779,3.352,1.34,5.123,1.832c3.561,0.975,7.26,1.555,10.963,2.039
		c3.707,0.484,7.448,0.762,11.191,0.967c3.746,0.197,7.494,0.299,11.254,0.293c3.748,0.008,7.505-0.09,11.249-0.289
		c3.744-0.195,7.484-0.48,11.192-0.963c3.704-0.477,7.404-1.063,10.966-2.035c1.773-0.49,3.529-1.053,5.125-1.832
		c0.791-0.391,1.547-0.838,2.151-1.363c0.608-0.537,1.013-1.1,1.038-1.711c0.045-0.512-0.316-1.225-0.902-1.803
		c-0.579-0.592-1.32-1.107-2.1-1.564c-1.572-0.91-3.313-1.625-5.084-2.227c-3.559-1.188-7.258-2.043-10.986-2.678
		C107.785,154.43,100.189,153.877,92.604,153.877z"/>
	
		<linearGradient id="SVGID_1_" gradientUnits="userSpaceOnUse" x1="64.9292" y1="171.9839" x2="64.9292" y2="91.9814" gradientTransform="matrix(0.9963 0.0855 -0.0855 0.9963 33.4829 -30.1233)">
		<stop  offset="0" style="stop-color:#F8BC7F"/>
		<stop  offset="1" style="stop-color:#F18A24"/>
	</linearGradient>
	<path fill="url(#SVGID_1_)" d="M14.005,108.059c0.674-1.563,2.43-1.05,3.293-0.617c1.297-0.429,1.834-0.383,2.547-0.321
		c0.793-0.831,1.032-1.531,2.283-1.424c1.373-1.323,5.666-3.114,8.025-5.432c2.357-2.317,2.953-7.128,5.938-10.471
		c2.988-3.345,7.895-5.983,9.609-7.097c2.467-3.57,4.68-7.339,8.229-8.834c0.102,0.907,0.115,1.81,0.115,1.81
		s2.094-3.421,5.191-3.876c0.109,0.82-0.184,2.145-0.184,2.145s2.777-3,5.586-3.211c-0.361,1.049-0.51,1.758-0.51,1.758
		s3.067-3.246,6.479-3.135c-0.613,0.847-0.675,1.563-0.675,1.563s3.463-2.584,6.383-3.054c0.489,0.582-0.481,1.399-0.481,1.399
		s3.402-1.867,6.648-1.951c-0.434,0.863-0.434,0.863-0.434,0.863s3.338-1.152,5.678-1.133c-0.241,0.699-0.303,1.414-0.303,1.414
		s4.443-1.418,6.572-1.057c-0.226,0.52-1.165,0.98-1.165,0.98s5.408-0.077,7.535,0.285c-0.806,1.012-0.806,1.012-0.806,1.012
		s5.941-0.029,7.862,0.675c-1.328,0.786-1.328,0.786-1.328,0.786l3.426-0.066l-0.285,1.235c11.187-0.3,21.631,3.837,27.941,5.818
		c4.328,1.357,7.476,3.631,9.547,6.305c2.913-1.197,5.4,0.606,7.826,3.104c2.482,2.554,4.258,7.025,6.225,7.193
		c-3.473,0.604-6.623-2.548-7.884-4.635c-0.864-1.432-3.013-2.722-4.637-3.245c0.246,0.481,0.465,0.97,0.649,1.462
		c1.394,3.697,0.987,9.526-2.148,16.243c-0.008,0.611-0.186,1.19-0.55,1.676c-0.1,0.134-0.428,0.522-0.867,1.073
		c-0.09,0.161-0.173,0.318-0.265,0.48c-0.567,0.986-1.238,1.91-1.981,2.779c0.047,2.276,0.221,5.177,0.763,6.678
		c0.974,2.695,2.986,2.667,3.557,7.74c0.568,5.072,3.122,8.105,4.07,8.79c0.944,0.685,1.154,2.913,1.154,2.913
		s1.322,3.329,0.325,3.244c-0.997-0.086-1.491-1.334-1.491-1.334s-1.129,6.134-4.539,6.041c-0.895-1.282-0.267-6.252-0.912-8.116
		c-0.643-1.865-2.49-8.454-3.636-9.156c-0.298-0.182-1.313-0.655-2.669-1.345c-0.316,1.208-0.738,2.334-1.316,3.28
		c-2.104,3.455-6.679,12.261-6.625,13.975c0.055,1.718-1.433,2.659-1.922,1.333c-3.394,2.061-5.879,2.918-7.8,1.898
		c-1.924-1.021,1.507-3.508,4.265-7.547c2.759-4.043,2.688-7.897,2.506-10.48c-0.133-1.902-2.523-4.118-3.405-7.598
		c-0.335,0.097-0.645,0.184-0.93,0.258c-4.373,1.164-12.827,3.664-18.003,4.217c-6.412,0.686-15.755-0.611-19.795-1.314
		c-0.788,2.72-2.144,7.553-2.269,9.011c-0.177,2.065-0.236,7.169,0.06,8.139c0.296,0.972,0.526,2.692-0.226,2.628
		s-1.111-0.281-1.111-0.281s-0.021,2.457-5.72,2.724c0.398-2.425,1.798-5.521,1.846-6.083c0.048-0.564,0.442-7.342,0.442-7.342
		s-0.381-4.441-0.659-6.193c-0.053,0.033-0.103,0.067-0.153,0.096c-3.635,2.055-10.154,5.866-10.758,6.543
		c-0.605,0.677-5.361,5.186-5.801,6.059c-0.439,0.874-0.973,2.829-1.467,2.242c-0.498-0.59-0.498-0.59-0.498-0.59
		s-2.324,1.622-3.62,1.875c-1.295,0.252-3.63-0.131-3.568-0.854c0.062-0.721,1.575-3.506,2.557-4.334
		c0.981-0.826,4.003-4.209,4.821-5.23c0.816-1.023,4.354-6.182,5.334-7.01c0.603-0.506,1.465-1.673,2.121-2.916
		c-1.27,0.003-2.234,0.063-2.71,0.201c-2.398,0.693-14.622-1.614-16.349-2.482c-1.725-0.869-12.404-0.165-14.816-1.451
		c-2.407-1.287-8.101,0.025-9.545,0.082c-1.446,0.055-3.04-0.261-2.053-1.257c-1.104,0.266-4.723,0.495-4.723,0.495
		C16.261,117.434,13.329,109.622,14.005,108.059z"/>
</g>
</svg>
