<?xml version="1.0" encoding="utf-8"?>
<!-- Generator: Adobe Illustrator 15.1.0, SVG Export Plug-In . SVG Version: 6.00 Build 0)  -->
<!DOCTYPE svg PUBLIC "-//W3C//DTD SVG 1.1//EN" "http://www.w3.org/Graphics/SVG/1.1/DTD/svg11.dtd">
<svg version="1.1" id="レイヤー_1" xmlns="http://www.w3.org/2000/svg" xmlns:xlink="http://www.w3.org/1999/xlink" x="0px"
	 y="0px" width="185.195px" height="213.846px" viewBox="0 0 185.195 213.846" enable-background="new 0 0 185.195 213.846"
	 xml:space="preserve">
<g>
	<g>
		<polygon fill="#471F0D" points="0,53.46 92.598,-0.001 185.196,53.46 185.196,160.385 92.598,213.847 0,160.385 		"/>
		<path fill="#DFB191" d="M92.598,5.772l87.598,50.574v101.151l-87.598,50.575L5,157.498V56.347L92.598,5.772 M92.598-0.001L0,53.46
			v106.925l92.598,53.462l92.598-53.462V53.46L92.598-0.001L92.598-0.001z"/>
	</g>
	<path fill="#84C6D0" d="M102.229,155.535c4.4,0.002,8.803,0.164,13.198,0.635c2.196,0.245,4.398,0.541,6.579,1.094
		c1.088,0.282,2.182,0.595,3.256,1.096c0.536,0.253,1.072,0.55,1.586,0.984c0.488,0.445,1.061,1.033,1.104,2.105l0.001,0.104
		l-0.001,0.055l-0.009,0.104c-0.014,0.146-0.039,0.266-0.064,0.368c-0.055,0.218-0.135,0.421-0.229,0.603
		c-0.189,0.365-0.425,0.658-0.667,0.912c-0.488,0.502-1.011,0.867-1.535,1.188c-1.053,0.632-2.128,1.096-3.215,1.489
		c-2.178,0.771-4.38,1.323-6.599,1.746c-4.438,0.83-8.925,1.175-13.405,1.185c-4.48-0.008-8.968-0.346-13.407-1.176
		c-2.22-0.418-4.423-0.975-6.601-1.744c-1.088-0.392-2.163-0.857-3.217-1.49c-0.525-0.32-1.047-0.688-1.537-1.189
		c-0.242-0.254-0.479-0.549-0.669-0.915c-0.192-0.359-0.319-0.823-0.305-1.288c0.015-0.193,0.007-0.119,0.034-0.312
		c0.022-0.146,0.055-0.261,0.088-0.359c0.068-0.211,0.162-0.401,0.268-0.569c0.213-0.34,0.465-0.601,0.72-0.82
		c0.515-0.436,1.051-0.732,1.589-0.986c1.074-0.5,2.168-0.814,3.258-1.094c2.18-0.553,4.383-0.85,6.58-1.092
		C93.426,155.698,97.828,155.537,102.229,155.535z M102.229,155.535c-4.398,0.009-8.808,0.348-13.121,1.16
		c-2.152,0.411-4.283,0.956-6.314,1.684c-1.011,0.368-1.997,0.809-2.865,1.344c-0.43,0.267-0.828,0.568-1.117,0.887
		c-0.299,0.319-0.41,0.637-0.367,0.788c0.027,0.149,0.181,0.39,0.502,0.646c0.314,0.251,0.727,0.484,1.17,0.683
		c0.889,0.405,1.894,0.692,2.905,0.949c2.035,0.51,4.165,0.793,6.296,1.028c4.27,0.453,8.593,0.614,12.912,0.619
		c4.318-0.004,8.643-0.158,12.913-0.609c2.132-0.23,4.262-0.519,6.298-1.027c1.013-0.254,2.017-0.545,2.907-0.949
		c0.886-0.389,1.673-0.974,1.677-1.391c-0.002,0.101,0,0.023,0,0.043v-0.008l0.002-0.017c0.004-0.011,0.004-0.022,0.002-0.035
		c0.003-0.024,0-0.05-0.004-0.077c-0.006-0.055-0.024-0.119-0.055-0.189c-0.062-0.141-0.172-0.303-0.316-0.461
		c-0.29-0.318-0.689-0.62-1.12-0.887c-0.868-0.535-1.855-0.977-2.866-1.343c-2.033-0.726-4.164-1.271-6.316-1.68
		C111.035,155.882,106.627,155.544,102.229,155.535z"/>
	<path fill="#84C6D0" d="M105.229,153.877c3.794-0.009,7.587,0.094,11.378,0.295c3.789,0.204,7.579,0.489,11.351,0.983
		c3.771,0.493,7.542,1.085,11.247,2.103c1.85,0.519,3.694,1.104,5.473,1.979c0.887,0.444,1.762,0.953,2.566,1.663
		c0.397,0.357,0.781,0.769,1.09,1.281c0.311,0.518,0.533,1.115,0.547,1.831c0.018,0.614-0.174,1.306-0.463,1.827
		c-0.287,0.541-0.656,0.984-1.041,1.375c-0.779,0.776-1.642,1.354-2.516,1.865c-1.757,1.006-3.585,1.742-5.432,2.371
		c-3.703,1.232-7.474,2.094-11.269,2.746c-7.595,1.274-15.265,1.838-22.937,1.836c-7.662,0.002-15.34-0.549-22.934-1.828
		c-3.796-0.645-7.566-1.514-11.27-2.744c-1.849-0.627-3.676-1.365-5.434-2.372c-0.875-0.512-1.736-1.091-2.518-1.868
		c-0.387-0.391-0.755-0.836-1.043-1.379c-0.289-0.545-0.48-1.165-0.463-1.883c0.016-0.617,0.24-1.289,0.551-1.784
		c0.311-0.515,0.694-0.925,1.094-1.283c0.805-0.71,1.681-1.22,2.568-1.663c1.779-0.875,3.624-1.461,5.475-1.977
		c3.705-1.018,7.478-1.61,11.248-2.1c3.771-0.493,7.563-0.779,11.352-0.981C97.642,153.971,101.436,153.868,105.229,153.877z
		 M105.229,153.877c-7.585,0-15.181,0.555-22.649,1.814c-3.729,0.639-7.427,1.492-10.984,2.682c-1.771,0.604-3.51,1.316-5.082,2.227
		c-0.779,0.457-1.52,0.973-2.099,1.564c-0.585,0.6-0.944,1.238-0.899,1.846c0.024,0.506,0.426,1.139,1.033,1.652
		c0.604,0.525,1.357,0.973,2.149,1.361c1.594,0.779,3.351,1.339,5.123,1.832c3.56,0.975,7.261,1.554,10.963,2.038
		c3.708,0.485,7.448,0.763,11.192,0.967c3.746,0.198,7.494,0.3,11.254,0.294c3.747,0.008,7.504-0.091,11.248-0.289
		c3.744-0.195,7.484-0.48,11.192-0.963c3.704-0.477,7.404-1.063,10.966-2.036c1.773-0.489,3.529-1.053,5.125-1.832
		c0.791-0.39,1.547-0.837,2.151-1.362c0.608-0.537,1.013-1.1,1.038-1.711c0.045-0.512-0.316-1.225-0.902-1.803
		c-0.579-0.592-1.32-1.108-2.1-1.565c-1.572-0.91-3.313-1.624-5.084-2.226c-3.559-1.188-7.258-2.043-10.986-2.679
		C120.41,154.43,112.814,153.877,105.229,153.877z"/>
	
		<linearGradient id="SVGID_1_" gradientUnits="userSpaceOnUse" x1="60.3247" y1="84.8818" x2="200.7559" y2="84.8818" gradientTransform="matrix(0.9821 -0.1881 0.1881 0.9821 -43.5593 43.569)">
		<stop  offset="0" style="stop-color:#F8BC7F"/>
		<stop  offset="1" style="stop-color:#F18A24"/>
	</linearGradient>
	<path fill-rule="evenodd" clip-rule="evenodd" fill="url(#SVGID_1_)" d="M139.146,92.529
		c-12.512-0.858-20.903-11.228-23.161-26.045c3.563,0.063,4.416,3.558,9.107,4.703c3.198,0.782,7.398-0.479,10.154,0.986
		c2.862,1.522,2.754,5.047,5.823,5.919c4.188-1.494,2.944-5.08,6.269-7.063c3.162-1.887,7.008-0.594,10.743-2.059
		c3.125-1.224,3.592-4.21,6.701-4.801c1.268,13.487-6.691,20.714-15.915,27.083c10.182,31.563-7.961,52.545-39.809,49.246
		c2.838,9.594,10.092,12.679,14.402,20.104c-13.572,5.16-22.721-8.496-27.035-21.787c-6.199-2.707-13.404-3.931-19.936-6.146
		c-3.681,5.373,3.516,18.128-0.191,23.483c-9.061,1.239-16.102-18.978-11.179-27.755c-12.085-8.338-24.665-16.953-31.223-34.467
		c-0.994-2.656-1.114-6.378-2.407-9.505c-2.61-6.317-19.832-29.071-2.455-31.184c6.742-0.819,16.943,8.587,23.715,13.63
		c17.954,13.375,50.455,35.238,72.861,37.629C133.623,105.357,141.113,102.434,139.146,92.529z M50.488,94.857
		c7.383,14.379,20.109,22.932,33.424,27.597c-1.297-0.745-2.021-2.339-2.563-4.198c-14.096-6.582-28.33-22.144-30.261-41.686
		c4.743,16.154,12.753,27.435,22.524,34.961c1.973,1.52,4.268,4.346,6.521,3.439c-1.368-6.814-7.299-9.577-10.949-14.316
		c-3.578-4.646-7.429-9.717-7.99-17.227c4.758,9.664,9.619,19.177,17.531,24.193C73.923,86.916,60.18,82.569,47.504,73.153
		c-6.278-4.663-13.309-9.987-20.695-10.105c-6.191,7.609,4.084,15.13,6.271,20.489c0.802,1.965,0.618,4.17,1.191,6.22
		c8.589,30.733,36.034,40.102,61.614,46.231c-0.893-4.254-5.935-3.941-8.543-4.812c-19.467-6.49-39.307-17.182-47.332-39.002
		c-1.257-3.417-1.709-7.913-4.079-12.114c-2.429-4.305-9.687-8.866-7.773-16.098c1.569,7.739,7.991,12.449,10.577,18.491
		c1.158,2.708,1.262,5.739,2.189,8.373c9.054,25.687,30.491,33.255,53.42,40.181c-8.361-6.568-18.841-9.201-27.648-15.807
		c-8.604-6.455-16.25-14.627-20.334-26.588c-1.477-4.325-1.969-8.265-3.971-11.55c-2.027-3.325-6.721-5.232-5.342-9.528
		C44.589,73.402,45.945,86.006,50.488,94.857z M75.517,155.131c1.149-6.764-3.448-17.427-0.94-23.268
		c-2.7-1.336-5.41-2.66-8.324-3.681C62.938,136.675,67.275,153.064,75.517,155.131z M112.607,134.545
		c-3.561-0.311-6.628-1.35-9.805-2.227C104.551,134.829,110.092,135.576,112.607,134.545z M133.83,135.169
		c-9.966,2.358-20.244,1.32-27.227,1.697C112.484,141.241,126.5,139.329,133.83,135.169z"/>
</g>
</svg>
